<svg width="1440" height="824" viewBox="0 0 1440 824" fill="none" xmlns="http://www.w3.org/2000/svg">
<rect y="67" width="1440" height="676" fill="url(#paint0_linear_812_1457)"/>
<g clip-path="url(#clip0_812_1457)">
<path d="M934.852 423.63C907.68 382.252 881.957 388.76 864.131 399.049L864.129 399.05C859.626 401.653 855.629 404.49 852.24 406.864C851.085 404.935 849.965 402.803 848.962 400.31C848.949 400.274 848.918 400.254 848.897 400.226C848.891 400.207 848.89 400.186 848.881 400.17C848.467 399.454 846.783 399.649 845.115 400.613C843.45 401.573 842.439 402.934 842.852 403.651C843.737 406.236 844.435 408.882 844.942 411.567C821.505 425.288 792.679 446.905 812.575 492.289C827.017 525.225 873.441 535.813 907.453 516.176C941.466 496.538 954.6 453.705 934.852 423.63ZM856.971 412.135C857.759 411.583 858.577 411.011 859.421 410.429C858.604 411.471 857.828 412.512 857.113 413.52C856.857 413.24 856.588 412.887 856.326 412.583L856.971 412.135ZM845.967 419.132C846.021 419.84 846.068 420.522 846.101 421.155C845.19 420.959 844.267 420.821 843.338 420.742C844.209 420.199 845.086 419.665 845.967 419.132ZM935.492 468.394C931.388 485.683 919.886 500.879 903.938 510.086C887.686 519.47 867.39 521.596 849.644 515.777C835.264 511.059 824.386 501.716 819.015 489.464C808.934 466.467 812.536 450.623 821.985 438.648C832.6 429.575 846.129 427.171 846.129 427.171C846.129 427.171 817.054 435.541 825.947 473.973C827.201 447.163 852.122 440.453 853.64 429.961C861.689 443.903 867.916 431.288 876.663 434.611C887.913 438.882 898.677 451.958 907.902 450.432C891.183 438.715 903.767 432.283 874.175 420.689C886.467 421.086 887.874 412.691 903.151 410.623C882.608 399.45 868.584 414.207 868.584 414.207C868.584 414.207 871.845 403.964 879.241 399.927C893.227 395.69 910.154 398.829 928.978 427.49C936.662 439.196 938.976 453.722 935.492 468.394Z" fill="white" fill-opacity="0.1"/>
</g>
<g clip-path="url(#clip1_812_1457)">
<path d="M391.852 266.63C364.68 225.252 338.957 231.76 321.131 242.049L321.129 242.05C316.626 244.653 312.629 247.49 309.24 249.864C308.085 247.935 306.965 245.803 305.962 243.31C305.949 243.274 305.918 243.254 305.897 243.226C305.892 243.207 305.89 243.186 305.881 243.17C305.467 242.454 303.783 242.649 302.115 243.613C300.45 244.573 299.439 245.934 299.853 246.651C300.737 249.236 301.435 251.882 301.942 254.567C278.505 268.288 249.679 289.905 269.575 335.289C284.017 368.225 330.441 378.813 364.454 359.176C398.466 339.538 411.601 296.705 391.852 266.63ZM313.971 255.135C314.759 254.583 315.577 254.011 316.421 253.429C315.604 254.471 314.828 255.512 314.113 256.52C313.857 256.24 313.588 255.887 313.326 255.583L313.971 255.135ZM302.967 262.132C303.021 262.84 303.068 263.522 303.101 264.155C302.19 263.959 301.267 263.821 300.338 263.742C301.209 263.199 302.086 262.665 302.967 262.132ZM392.492 311.394C388.388 328.683 376.886 343.879 360.938 353.086C344.686 362.47 324.39 364.596 306.644 358.777C292.264 354.059 281.386 344.716 276.015 332.464C265.934 309.467 269.536 293.623 278.985 281.648C289.6 272.575 303.129 270.171 303.129 270.171C303.129 270.171 274.054 278.541 282.947 316.973C284.201 290.163 309.122 283.453 310.64 272.961C318.689 286.903 324.916 274.288 333.663 277.611C344.913 281.882 355.677 294.958 364.902 293.432C348.183 281.715 360.767 275.283 331.175 263.689C343.467 264.086 344.874 255.691 360.151 253.623C339.608 242.45 325.584 257.207 325.584 257.207C325.584 257.207 328.845 246.964 336.241 242.927C350.227 238.69 367.154 241.829 385.978 270.49C393.662 282.196 395.976 296.722 392.492 311.394Z" fill="white" fill-opacity="0.1"/>
</g>
<g clip-path="url(#clip2_812_1457)">
<path d="M85.8522 560.63C58.6799 519.252 32.957 525.76 15.1306 536.049L15.1286 536.05C10.6257 538.653 6.62948 541.49 3.23963 543.864C2.08536 541.935 0.965059 539.803 -0.0382308 537.31C-0.0508888 537.274 -0.0815074 537.254 -0.103142 537.226C-0.108461 537.207 -0.109715 537.186 -0.11909 537.17C-0.532762 536.454 -2.21684 536.649 -3.8853 537.613C-5.54969 538.573 -6.56112 539.934 -6.14745 540.651C-5.26322 543.236 -4.56507 545.882 -4.05833 548.567C-27.495 562.288 -56.3211 583.905 -36.4246 629.289C-21.9826 662.225 24.4411 672.813 58.4535 653.176C92.466 633.538 105.601 590.705 85.8522 560.63ZM7.97141 549.135C8.7594 548.583 9.57665 548.011 10.4206 547.429C9.60429 548.471 8.82779 549.512 8.11335 550.52C7.85715 550.24 7.58812 549.887 7.3263 549.583L7.97141 549.135ZM-3.03304 556.132C-2.97902 556.84 -2.93179 557.522 -2.89903 558.155C-3.81042 557.959 -4.73338 557.821 -5.66231 557.742C-4.79086 557.199 -3.91355 556.665 -3.03304 556.132ZM86.4925 605.394C82.3882 622.683 70.8856 637.879 54.9379 647.086C38.6857 656.47 18.39 658.596 0.643641 652.777C-13.7364 648.059 -24.6139 638.716 -29.9852 626.464C-40.0662 603.467 -36.4642 587.623 -27.0154 575.648C-16.4002 566.575 -2.87079 564.171 -2.87079 564.171C-2.87079 564.171 -31.946 572.541 -23.0533 610.973C-21.7991 584.163 3.12202 577.453 4.63961 566.961C12.6892 580.903 18.9159 568.288 27.6627 571.611C38.913 575.882 49.6774 588.958 58.9018 587.432C42.1833 575.715 54.7674 569.283 25.1753 557.689C37.4668 558.086 38.874 549.691 54.1508 547.623C33.6081 536.45 19.5843 551.207 19.5843 551.207C19.5843 551.207 22.8452 540.964 30.2409 536.927C44.2273 532.69 61.1544 535.829 79.9778 564.49C87.6623 576.196 89.9759 590.722 86.4925 605.394Z" fill="white" fill-opacity="0.1"/>
</g>
<g clip-path="url(#clip3_812_1457)">
<path d="M1461.85 106.63C1434.68 65.2522 1408.96 71.7597 1391.13 82.0491L1391.13 82.0502C1386.63 84.6526 1382.63 87.4903 1379.24 89.8642C1378.09 87.9353 1376.97 85.8027 1375.96 83.3102C1375.95 83.2743 1375.92 83.254 1375.9 83.2259C1375.89 83.2074 1375.89 83.1864 1375.88 83.1702C1375.47 82.4537 1373.78 82.6493 1372.11 83.6126C1370.45 84.5735 1369.44 85.9342 1369.85 86.6507C1370.74 89.2364 1371.43 91.8822 1371.94 94.5675C1348.51 108.288 1319.68 129.905 1339.58 175.289C1354.02 208.225 1400.44 218.813 1434.45 199.176C1468.47 179.539 1481.6 136.705 1461.85 106.63ZM1383.97 95.1349C1384.76 94.5826 1385.58 94.0106 1386.42 93.4286C1385.6 94.471 1384.83 95.512 1384.11 96.5198C1383.86 96.2401 1383.59 95.8867 1383.33 95.5832L1383.97 95.1349ZM1372.97 102.132C1373.02 102.84 1373.07 103.522 1373.1 104.155C1372.19 103.959 1371.27 103.821 1370.34 103.743C1371.21 103.199 1372.09 102.665 1372.97 102.132ZM1462.49 151.394C1458.39 168.683 1446.89 183.879 1430.94 193.086C1414.69 202.47 1394.39 204.596 1376.64 198.777C1362.26 194.059 1351.39 184.716 1346.01 172.464C1335.93 149.467 1339.54 133.623 1348.98 121.648C1359.6 112.575 1373.13 110.171 1373.13 110.171C1373.13 110.171 1344.05 118.541 1352.95 156.974C1354.2 130.163 1379.12 123.453 1380.64 112.961C1388.69 126.903 1394.92 114.288 1403.66 117.612C1414.91 121.882 1425.68 134.958 1434.9 133.432C1418.18 121.715 1430.77 115.283 1401.18 103.689C1413.47 104.087 1414.87 95.691 1430.15 93.6232C1409.61 82.4499 1395.58 97.2069 1395.58 97.2069C1395.58 97.2069 1398.85 86.9643 1406.24 82.9272C1420.23 78.6897 1437.15 81.8287 1455.98 110.49C1463.66 122.196 1465.98 136.722 1462.49 151.394Z" fill="white" fill-opacity="0.1"/>
</g>
<g clip-path="url(#clip4_812_1457)">
<path d="M1397.85 642.63C1370.68 601.252 1344.96 607.76 1327.13 618.049L1327.13 618.05C1322.63 620.653 1318.63 623.49 1315.24 625.864C1314.09 623.935 1312.96 621.803 1311.96 619.31C1311.95 619.274 1311.92 619.254 1311.9 619.226C1311.89 619.207 1311.89 619.186 1311.88 619.17C1311.47 618.454 1309.78 618.649 1308.11 619.613C1306.45 620.573 1305.44 621.934 1305.85 622.651C1306.74 625.236 1307.43 627.882 1307.94 630.567C1284.5 644.288 1255.68 665.905 1275.58 711.289C1290.02 744.225 1336.44 754.813 1370.45 735.176C1404.47 715.538 1417.6 672.705 1397.85 642.63ZM1319.97 631.135C1320.76 630.583 1321.58 630.011 1322.42 629.429C1321.6 630.471 1320.83 631.512 1320.11 632.52C1319.86 632.24 1319.59 631.887 1319.33 631.583L1319.97 631.135ZM1308.97 638.132C1309.02 638.84 1309.07 639.522 1309.1 640.155C1308.19 639.959 1307.27 639.821 1306.34 639.742C1307.21 639.199 1308.09 638.665 1308.97 638.132ZM1398.49 687.394C1394.39 704.683 1382.89 719.879 1366.94 729.086C1350.69 738.47 1330.39 740.596 1312.64 734.777C1298.26 730.059 1287.39 720.716 1282.01 708.464C1271.93 685.467 1275.54 669.623 1284.98 657.648C1295.6 648.575 1309.13 646.171 1309.13 646.171C1309.13 646.171 1280.05 654.541 1288.95 692.973C1290.2 666.163 1315.12 659.453 1316.64 648.961C1324.69 662.903 1330.92 650.288 1339.66 653.611C1350.91 657.882 1361.68 670.958 1370.9 669.432C1354.18 657.715 1366.77 651.283 1337.18 639.689C1349.47 640.086 1350.87 631.691 1366.15 629.623C1345.61 618.45 1331.58 633.207 1331.58 633.207C1331.58 633.207 1334.85 622.964 1342.24 618.927C1356.23 614.69 1373.15 617.829 1391.98 646.49C1399.66 658.196 1401.98 672.722 1398.49 687.394Z" fill="white" fill-opacity="0.1"/>
</g>
<path d="M797.935 686.239C796.357 687.15 794.852 688.144 793.388 689.177L793.253 688.942C771.939 652.025 741.569 631.386 729.658 638.262C717.748 645.139 720.437 681.76 741.751 718.677L755.267 742.087L731.857 755.602L739.967 769.648C744.275 777.091 751.36 782.521 759.667 784.746C767.974 786.972 776.824 785.812 784.277 781.521L798.323 773.412C811.969 765.513 821.924 752.525 826.005 737.295C830.086 722.065 827.959 705.839 820.09 692.176L811.981 678.13L797.935 686.239ZM751.115 713.271L760.479 707.864L755.073 698.5L746.051 703.709C742.805 697.181 740.074 690.408 737.884 683.454L748.942 677.07L743.536 667.706L735.109 672.571C732.397 659.117 733.41 650.005 735.102 647.692C738.982 647.275 753.103 654.173 768.337 672.115L761.009 676.345L766.416 685.709L775.049 680.725C778.228 685.111 781.178 689.659 783.889 694.349L785.041 696.343C775.065 706.658 769.133 720.218 768.33 734.545L764.631 736.68L751.115 713.271ZM778.871 772.157C773.902 775.018 768.002 775.791 762.464 774.307C756.927 772.823 752.203 769.203 749.331 764.242L746.627 759.56L768.932 746.682C770.017 754.006 772.471 761.06 776.168 767.475L778.871 772.157ZM810.726 697.582C817.164 708.761 818.904 722.037 815.565 734.498C812.227 746.958 804.081 757.585 792.917 764.048L788.235 766.751L785.532 762.069C779.094 750.89 777.354 737.614 780.692 725.153C784.031 712.693 792.176 702.066 803.341 695.603L808.023 692.9L810.726 697.582Z" fill="white" fill-opacity="0.1"/>
<path d="M459.935 545.239C458.357 546.15 456.852 547.144 455.388 548.177L455.253 547.942C433.939 511.025 403.569 490.386 391.658 497.262C379.748 504.139 382.437 540.76 403.751 577.677L417.267 601.087L393.857 614.602L401.967 628.648C406.275 636.091 413.36 641.521 421.667 643.746C429.974 645.972 438.824 644.812 446.277 640.521L460.323 632.412C473.969 624.513 483.924 611.525 488.005 596.295C492.086 581.065 489.959 564.839 482.09 551.176L473.981 537.13L459.935 545.239ZM413.115 572.271L422.479 566.864L417.073 557.5L408.051 562.709C404.805 556.181 402.074 549.408 399.884 542.454L410.942 536.07L405.536 526.706L397.109 531.571C394.397 518.117 395.41 509.005 397.102 506.692C400.982 506.275 415.103 513.173 430.337 531.115L423.009 535.345L428.416 544.709L437.049 539.725C440.228 544.111 443.178 548.659 445.889 553.349L447.041 555.343C437.065 565.658 431.133 579.218 430.33 593.545L426.631 595.68L413.115 572.271ZM440.871 631.157C435.902 634.018 430.002 634.791 424.464 633.307C418.927 631.823 414.203 628.203 411.331 623.242L408.627 618.56L430.932 605.682C432.017 613.006 434.471 620.06 438.168 626.475L440.871 631.157ZM472.726 556.582C479.164 567.761 480.904 581.037 477.565 593.498C474.227 605.958 466.081 616.585 454.917 623.048L450.235 625.751L447.532 621.069C441.094 609.89 439.354 596.614 442.692 584.153C446.031 571.693 454.176 561.066 465.341 554.603L470.023 551.9L472.726 556.582Z" fill="white" fill-opacity="0.1"/>
<path d="M481.935 117.239C480.357 118.15 478.852 119.144 477.388 120.176L477.253 119.942C455.939 83.0251 425.569 62.3855 413.658 69.2622C401.748 76.139 404.437 112.76 425.751 149.677L439.267 173.086L415.857 186.602L423.967 200.648C428.275 208.091 435.36 213.52 443.667 215.746C451.974 217.972 460.824 216.812 468.277 212.521L482.323 204.411C495.969 196.513 505.924 183.524 510.005 168.295C514.086 153.065 511.959 136.839 504.09 123.176L495.981 109.13L481.935 117.239ZM435.115 144.27L444.479 138.864L439.073 129.5L430.051 134.709C426.805 128.181 424.074 121.408 421.884 114.454L432.942 108.069L427.536 98.7055L419.109 103.571C416.397 90.1168 417.41 81.0046 419.102 78.6917C422.982 78.2747 437.103 85.173 452.337 103.115L445.009 107.345L450.416 116.709L459.049 111.724C462.228 116.111 465.178 120.658 467.889 125.349L469.041 127.343C459.065 137.658 453.133 151.218 452.33 165.545L448.631 167.68L435.115 144.27ZM462.871 203.157C457.902 206.017 452.002 206.79 446.464 205.307C440.927 203.823 436.203 200.203 433.331 195.242L430.627 190.56L452.932 177.682C454.017 185.006 456.471 192.06 460.168 198.475L462.871 203.157ZM494.726 128.582C501.164 139.761 502.904 153.037 499.565 165.497C496.227 177.958 488.081 188.585 476.917 195.048L472.235 197.751L469.532 193.069C463.094 181.89 461.354 168.614 464.692 156.153C468.031 143.693 476.176 133.066 487.341 126.603L492.023 123.9L494.726 128.582Z" fill="white" fill-opacity="0.1"/>
<g clip-path="url(#clip5_812_1457)">
<path d="M567.142 378.593L556.874 334.365L597.385 310.976L630.55 341.984M653.939 382.495L664.21 426.721L623.699 450.109L590.531 419.103L653.939 382.495Z" stroke="white" stroke-opacity="0.1" stroke-width="13.365" stroke-linecap="round" stroke-linejoin="round"/>
<path d="M648.159 358.825C652.464 366.282 654.308 374.488 653.939 382.495C653.613 389.782 651.457 396.871 647.668 403.104C643.878 409.338 638.579 414.516 632.26 418.16C625.944 421.811 618.81 423.811 611.517 423.975C604.224 424.14 597.008 422.464 590.534 419.102C583.171 415.292 577.059 409.447 572.925 402.261C568.62 394.804 566.775 386.598 567.145 378.591C567.47 371.303 569.627 364.215 573.416 357.982C577.205 351.748 582.504 346.57 588.824 342.926C595.139 339.275 602.273 337.275 609.566 337.111C616.859 336.946 624.076 338.622 630.55 341.984C637.912 345.794 644.025 351.639 648.159 358.825V358.825Z" stroke="white" stroke-opacity="0.1" stroke-width="13.365" stroke-linecap="round" stroke-linejoin="round"/>
<path d="M598.847 360.288L610.542 380.543L628.799 385.435" stroke="white" stroke-opacity="0.1" stroke-width="13.365" stroke-linecap="round" stroke-linejoin="round"/>
</g>
<g clip-path="url(#clip6_812_1457)">
<path d="M721.142 137.593L710.874 93.3652L751.385 69.9764L784.55 100.984M807.939 141.495L818.21 185.721L777.699 209.109L744.531 178.103L807.939 141.495Z" stroke="white" stroke-opacity="0.1" stroke-width="13.365" stroke-linecap="round" stroke-linejoin="round"/>
<path d="M802.159 117.825C806.464 125.282 808.308 133.488 807.939 141.495C807.613 148.783 805.457 155.871 801.668 162.104C797.878 168.338 792.579 173.516 786.26 177.16C779.944 180.811 772.81 182.811 765.517 182.976C758.224 183.14 751.008 181.464 744.534 178.102C737.171 174.292 731.059 168.447 726.925 161.261C722.62 153.804 720.775 145.598 721.145 137.591C721.47 130.304 723.627 123.215 727.416 116.982C731.205 110.748 736.504 105.57 742.824 101.926C749.139 98.2753 756.273 96.2752 763.566 96.1106C770.859 95.946 778.076 97.6222 784.55 100.984C791.912 104.794 798.025 110.639 802.159 117.825V117.825Z" stroke="white" stroke-opacity="0.1" stroke-width="13.365" stroke-linecap="round" stroke-linejoin="round"/>
<path d="M752.847 119.288L764.542 139.543L782.799 144.435" stroke="white" stroke-opacity="0.1" stroke-width="13.365" stroke-linecap="round" stroke-linejoin="round"/>
</g>
<g clip-path="url(#clip7_812_1457)">
<path d="M1374.14 472.593L1363.87 428.365L1404.38 404.976L1437.55 435.984M1460.94 476.495L1471.21 520.721L1430.7 544.109L1397.53 513.103L1460.94 476.495Z" stroke="white" stroke-opacity="0.1" stroke-width="13.365" stroke-linecap="round" stroke-linejoin="round"/>
<path d="M1455.16 452.825C1459.46 460.282 1461.31 468.488 1460.94 476.495C1460.61 483.782 1458.46 490.871 1454.67 497.104C1450.88 503.338 1445.58 508.516 1439.26 512.16C1432.94 515.811 1425.81 517.811 1418.52 517.975C1411.22 518.14 1404.01 516.464 1397.53 513.102C1390.17 509.292 1384.06 503.447 1379.92 496.261C1375.62 488.804 1373.78 480.598 1374.14 472.591C1374.47 465.303 1376.63 458.215 1380.42 451.982C1384.2 445.748 1389.5 440.57 1395.82 436.926C1402.14 433.275 1409.27 431.275 1416.57 431.111C1423.86 430.946 1431.08 432.622 1437.55 435.984C1444.91 439.794 1451.02 445.639 1455.16 452.825V452.825Z" stroke="white" stroke-opacity="0.1" stroke-width="13.365" stroke-linecap="round" stroke-linejoin="round"/>
<path d="M1405.85 454.288L1417.54 474.543L1435.8 479.435" stroke="white" stroke-opacity="0.1" stroke-width="13.365" stroke-linecap="round" stroke-linejoin="round"/>
</g>
<g clip-path="url(#clip8_812_1457)">
<path d="M9.14196 129.593L-1.12617 85.3652L39.3844 61.9764L72.5496 92.9843M95.9384 133.495L106.209 177.721L65.6989 201.109L32.5307 170.103L95.9384 133.495Z" stroke="white" stroke-opacity="0.1" stroke-width="13.365" stroke-linecap="round" stroke-linejoin="round"/>
<path d="M90.1585 109.825C94.4637 117.282 96.308 125.488 95.9384 133.495C95.6132 140.783 93.4565 147.871 89.6674 154.104C85.8784 160.338 80.5793 165.516 74.2598 169.16C67.9442 172.811 60.8103 174.811 53.5173 174.976C46.2243 175.14 39.0075 173.464 32.5336 170.102C25.1709 166.292 19.0585 160.447 14.9247 153.261C10.6195 145.804 8.77521 137.598 9.14488 129.591C9.47005 122.304 11.6268 115.215 15.4158 108.982C19.2049 102.748 24.504 97.5701 30.8235 93.9261C37.1391 90.2753 44.2729 88.2752 51.5659 88.1106C58.8589 87.946 66.0758 89.6222 72.5496 92.9844C79.9123 96.7937 86.0247 102.639 90.1585 109.825V109.825Z" stroke="white" stroke-opacity="0.1" stroke-width="13.365" stroke-linecap="round" stroke-linejoin="round"/>
<path d="M40.8472 111.288L52.5416 131.543L70.7985 136.435" stroke="white" stroke-opacity="0.1" stroke-width="13.365" stroke-linecap="round" stroke-linejoin="round"/>
</g>
<g clip-path="url(#clip9_812_1457)">
<path d="M39.142 375.593L28.8738 331.365L69.3844 307.976L102.55 338.984M125.938 379.495L136.209 423.721L95.6989 447.109L62.5307 416.103L125.938 379.495Z" stroke="white" stroke-opacity="0.1" stroke-width="13.365" stroke-linecap="round" stroke-linejoin="round"/>
<path d="M120.159 355.825C124.464 363.282 126.308 371.488 125.938 379.495C125.613 386.782 123.456 393.871 119.667 400.104C115.878 406.338 110.579 411.516 104.26 415.16C97.9442 418.811 90.8103 420.811 83.5173 420.975C76.2243 421.14 69.0075 419.464 62.5336 416.102C55.1709 412.292 49.0585 406.447 44.9247 399.261C40.6195 391.804 38.7752 383.598 39.1449 375.591C39.47 368.303 41.6268 361.215 45.4158 354.982C49.2049 348.748 54.504 343.57 60.8235 339.926C67.1391 336.275 74.2729 334.275 81.5659 334.111C88.8589 333.946 96.0758 335.622 102.55 338.984C109.912 342.794 116.025 348.639 120.159 355.825V355.825Z" stroke="white" stroke-opacity="0.1" stroke-width="13.365" stroke-linecap="round" stroke-linejoin="round"/>
<path d="M70.8472 357.288L82.5416 377.543L100.799 382.435" stroke="white" stroke-opacity="0.1" stroke-width="13.365" stroke-linecap="round" stroke-linejoin="round"/>
</g>
<g clip-path="url(#clip10_812_1457)">
<path d="M614.376 674.941C614.762 674.828 615.121 674.64 615.434 674.387C615.746 674.134 616.005 673.821 616.196 673.468C616.387 673.114 616.505 672.725 616.545 672.325C616.584 671.925 616.544 671.521 616.426 671.137C616.308 670.753 616.115 670.395 615.858 670.086C615.601 669.777 615.285 669.522 614.929 669.336C614.572 669.15 614.182 669.037 613.782 669.002C613.381 668.968 612.978 669.014 612.595 669.137L592.894 675.183C592.501 675.289 592.133 675.473 591.813 675.725C591.492 675.976 591.225 676.289 591.028 676.646C590.831 677.002 590.708 677.395 590.666 677.8C590.624 678.205 590.664 678.615 590.783 679.004C590.902 679.393 591.099 679.755 591.361 680.067C591.623 680.379 591.945 680.635 592.308 680.819C592.671 681.004 593.068 681.114 593.474 681.142C593.88 681.171 594.288 681.117 594.673 680.985L614.376 674.941Z" fill="white" fill-opacity="0.1"/>
<path fill-rule="evenodd" clip-rule="evenodd" d="M615.777 696.092C621.355 692.872 625.426 687.567 627.093 681.346C628.76 675.124 627.887 668.495 624.667 662.917C621.446 657.339 616.142 653.269 609.92 651.602C603.698 649.935 597.069 650.807 591.491 654.028C585.913 657.248 581.843 662.553 580.176 668.774C578.509 674.996 579.381 681.625 582.602 687.203C585.822 692.781 591.127 696.852 597.349 698.519C603.57 700.186 610.199 699.313 615.777 696.092ZM612.742 690.834C614.813 689.638 616.629 688.046 618.085 686.148C619.541 684.251 620.609 682.085 621.228 679.774C621.847 677.464 622.005 675.054 621.693 672.683C621.381 670.311 620.605 668.024 619.409 665.953C618.213 663.881 616.62 662.066 614.723 660.61C612.825 659.153 610.659 658.085 608.349 657.466C606.038 656.847 603.628 656.689 601.257 657.001C598.885 657.314 596.599 658.09 594.527 659.286C590.343 661.701 587.291 665.68 586.04 670.346C584.79 675.012 585.445 679.984 587.86 684.167C590.275 688.351 594.254 691.404 598.92 692.654C603.586 693.904 608.558 693.25 612.742 690.834ZM551.139 688.7C547.113 685.654 541.185 688.537 541.06 693.597L540.071 733.194C539.956 737.761 544.751 740.742 548.941 738.704L581.422 722.918C585.611 720.884 586.266 715.255 582.633 712.508L551.139 688.7ZM547.134 693.705C547.131 693.72 547.129 693.735 547.128 693.75L546.143 733.281L546.151 733.283C546.162 733.283 546.173 733.282 546.184 733.279C546.22 733.271 546.256 733.259 546.289 733.243L578.772 717.454C578.828 717.429 578.856 717.405 578.872 717.396C578.898 717.374 578.916 717.345 578.925 717.313L547.479 693.544L547.453 693.524C547.396 693.527 547.341 693.542 547.29 693.569C547.232 693.596 547.18 693.636 547.141 693.687L547.135 693.694L547.136 693.696L547.134 693.705ZM641.215 731.743C643.987 727.786 645.073 722.89 644.234 718.132C643.395 713.374 640.701 709.144 636.744 706.373C634.784 705.001 632.574 704.028 630.238 703.51C627.903 702.992 625.488 702.939 623.133 703.354C618.375 704.193 614.145 706.887 611.373 710.844L590.479 740.687C589.107 742.647 588.134 744.857 587.616 747.192C587.098 749.528 587.045 751.942 587.461 754.298C587.876 756.653 588.751 758.904 590.036 760.922C591.321 762.939 592.991 764.684 594.951 766.056C596.91 767.428 599.12 768.4 601.456 768.918C603.791 769.436 606.205 769.489 608.561 769.074C610.917 768.658 613.167 767.783 615.185 766.498C617.202 765.213 618.947 763.543 620.319 761.584L641.214 731.741L641.215 731.743ZM595.452 744.171C594.519 745.477 593.853 746.954 593.494 748.518C593.135 750.082 593.09 751.702 593.361 753.284C593.632 754.866 594.213 756.378 595.072 757.734C595.931 759.089 597.05 760.261 598.365 761.182C599.679 762.102 601.164 762.753 602.731 763.096C604.299 763.44 605.919 763.469 607.498 763.182C609.077 762.896 610.584 762.299 611.931 761.427C613.278 760.554 614.438 759.423 615.346 758.1L623.925 745.845L604.034 731.914L595.451 744.169L595.452 744.171ZM627.409 740.871L607.516 726.943L616.347 714.328C617.251 712.997 618.411 711.859 619.759 710.98C621.107 710.101 622.616 709.498 624.199 709.208C625.782 708.917 627.406 708.944 628.979 709.287C630.551 709.629 632.04 710.281 633.358 711.205C634.676 712.128 635.797 713.304 636.657 714.664C637.517 716.024 638.097 717.542 638.365 719.129C638.633 720.716 638.583 722.34 638.218 723.907C637.853 725.474 637.18 726.954 636.238 728.258L627.409 740.871Z" fill="white" fill-opacity="0.1"/>
</g>
<g clip-path="url(#clip11_812_1457)">
<path d="M1142.38 57.941C1142.76 57.8282 1143.12 57.6398 1143.43 57.3869C1143.75 57.1339 1144.01 56.8214 1144.2 56.4675C1144.39 56.1136 1144.51 55.7254 1144.54 55.3253C1144.58 54.9252 1144.54 54.5213 1144.43 54.1369C1144.31 53.7526 1144.11 53.3955 1143.86 53.0863C1143.6 52.7772 1143.28 52.5222 1142.93 52.3362C1142.57 52.1501 1142.18 52.0367 1141.78 52.0025C1141.38 51.9683 1140.98 52.014 1140.6 52.137L1120.89 58.1831C1120.5 58.2893 1120.13 58.4735 1119.81 58.7248C1119.49 58.9761 1119.23 59.2893 1119.03 59.6458C1118.83 60.0023 1118.71 60.3948 1118.67 60.8C1118.62 61.2051 1118.66 61.6146 1118.78 62.004C1118.9 62.3934 1119.1 62.7548 1119.36 63.0667C1119.62 63.3786 1119.95 63.6345 1120.31 63.8193C1120.67 64.0041 1121.07 64.114 1121.47 64.1423C1121.88 64.1707 1122.29 64.117 1122.67 63.9845L1142.38 57.941Z" fill="white" fill-opacity="0.1"/>
<path fill-rule="evenodd" clip-rule="evenodd" d="M1143.78 79.0925C1149.36 75.872 1153.43 70.5675 1155.09 64.3459C1156.76 58.1243 1155.89 51.4953 1152.67 45.9172C1149.45 40.3391 1144.14 36.2687 1137.92 34.6017C1131.7 32.9346 1125.07 33.8073 1119.49 37.0279C1113.91 40.2484 1109.84 45.5529 1108.18 51.7745C1106.51 57.9961 1107.38 64.6251 1110.6 70.2032C1113.82 75.7814 1119.13 79.8517 1125.35 81.5187C1131.57 83.1858 1138.2 82.3131 1143.78 79.0925ZM1140.74 73.8345C1142.81 72.6385 1144.63 71.0462 1146.08 69.1485C1147.54 67.2508 1148.61 65.0849 1149.23 62.7745C1149.85 60.464 1150.01 58.0542 1149.69 55.6827C1149.38 53.3112 1148.6 51.0244 1147.41 48.9529C1146.21 46.8814 1144.62 45.0658 1142.72 43.6096C1140.82 42.1535 1138.66 41.0854 1136.35 40.4663C1134.04 39.8472 1131.63 39.6893 1129.26 40.0015C1126.89 40.3137 1124.6 41.09 1122.53 42.2859C1118.34 44.7013 1115.29 48.6797 1114.04 53.3459C1112.79 58.0121 1113.44 62.9839 1115.86 67.1675C1118.28 71.3511 1122.25 74.4038 1126.92 75.6541C1131.59 76.9044 1136.56 76.2499 1140.74 73.8345ZM1079.14 71.7C1075.11 68.6544 1069.18 71.5372 1069.06 76.5974L1068.07 116.194C1067.96 120.761 1072.75 123.742 1076.94 121.705L1109.42 105.918C1113.61 103.884 1114.27 98.2552 1110.63 95.5083L1079.14 71.7ZM1075.13 76.7048C1075.13 76.7197 1075.13 76.7348 1075.13 76.75L1074.14 116.281L1074.15 116.283C1074.16 116.283 1074.17 116.282 1074.18 116.279C1074.22 116.271 1074.26 116.259 1074.29 116.243L1106.77 100.454C1106.83 100.429 1106.86 100.405 1106.87 100.396C1106.9 100.374 1106.92 100.345 1106.93 100.313L1075.48 76.544L1075.45 76.5238C1075.4 76.5268 1075.34 76.5422 1075.29 76.5689C1075.23 76.5956 1075.18 76.636 1075.14 76.6867L1075.13 76.6939L1075.14 76.6965L1075.13 76.7048ZM1169.22 114.743C1171.99 110.786 1173.07 105.89 1172.23 101.132C1171.4 96.3742 1168.7 92.1443 1164.74 89.373C1162.78 88.0007 1160.57 87.0278 1158.24 86.5099C1155.9 85.992 1153.49 85.9391 1151.13 86.3543C1146.37 87.1929 1142.14 89.8871 1139.37 93.8444L1118.48 123.687C1117.11 125.647 1116.13 127.857 1115.62 130.192C1115.1 132.528 1115.05 134.942 1115.46 137.298C1115.88 139.653 1116.75 141.904 1118.04 143.922C1119.32 145.939 1120.99 147.684 1122.95 149.056C1124.91 150.428 1127.12 151.4 1129.46 151.918C1131.79 152.436 1134.21 152.489 1136.56 152.074C1138.92 151.658 1141.17 150.783 1143.18 149.498C1145.2 148.213 1146.95 146.543 1148.32 144.584L1169.21 114.741L1169.22 114.743ZM1123.45 127.171C1122.52 128.477 1121.85 129.954 1121.49 131.518C1121.14 133.082 1121.09 134.702 1121.36 136.284C1121.63 137.866 1122.21 139.378 1123.07 140.734C1123.93 142.089 1125.05 143.261 1126.36 144.182C1127.68 145.102 1129.16 145.753 1130.73 146.096C1132.3 146.44 1133.92 146.469 1135.5 146.182C1137.08 145.896 1138.58 145.299 1139.93 144.427C1141.28 143.554 1142.44 142.424 1143.35 141.1L1151.93 128.845L1132.03 114.915L1123.45 127.169L1123.45 127.171ZM1155.41 123.871L1135.52 109.943L1144.35 97.3282C1145.25 95.997 1146.41 94.8588 1147.76 93.9797C1149.11 93.1007 1150.62 92.4983 1152.2 92.2077C1153.78 91.917 1155.41 91.9439 1156.98 92.2867C1158.55 92.6295 1160.04 93.2815 1161.36 94.2046C1162.68 95.1278 1163.8 96.3037 1164.66 97.6641C1165.52 99.0245 1166.1 100.542 1166.37 102.129C1166.63 103.716 1166.58 105.34 1166.22 106.907C1165.85 108.475 1165.18 109.954 1164.24 111.258L1155.41 123.871Z" fill="white" fill-opacity="0.1"/>
</g>
<g clip-path="url(#clip12_812_1457)">
<path d="M226.376 664.941C226.761 664.828 227.121 664.64 227.434 664.387C227.746 664.134 228.005 663.821 228.196 663.468C228.387 663.114 228.505 662.725 228.545 662.325C228.584 661.925 228.544 661.521 228.426 661.137C228.308 660.753 228.115 660.395 227.858 660.086C227.601 659.777 227.285 659.522 226.929 659.336C226.572 659.15 226.182 659.037 225.782 659.002C225.381 658.968 224.978 659.014 224.595 659.137L204.894 665.183C204.501 665.289 204.133 665.473 203.812 665.725C203.492 665.976 203.225 666.289 203.028 666.646C202.831 667.002 202.708 667.395 202.666 667.8C202.624 668.205 202.664 668.615 202.783 669.004C202.902 669.393 203.099 669.755 203.361 670.067C203.623 670.379 203.945 670.635 204.308 670.819C204.671 671.004 205.067 671.114 205.474 671.142C205.88 671.171 206.288 671.117 206.673 670.985L226.376 664.941Z" fill="white" fill-opacity="0.1"/>
<path fill-rule="evenodd" clip-rule="evenodd" d="M227.777 686.092C233.355 682.872 237.426 677.567 239.093 671.346C240.76 665.124 239.887 658.495 236.667 652.917C233.446 647.339 228.141 643.269 221.92 641.602C215.698 639.935 209.069 640.807 203.491 644.028C197.913 647.248 193.843 652.553 192.176 658.774C190.509 664.996 191.381 671.625 194.602 677.203C197.822 682.781 203.127 686.852 209.348 688.519C215.57 690.186 222.199 689.313 227.777 686.092ZM224.741 680.834C226.813 679.638 228.629 678.046 230.085 676.148C231.541 674.251 232.609 672.085 233.228 669.774C233.847 667.464 234.005 665.054 233.693 662.683C233.381 660.311 232.604 658.024 231.408 655.953C230.212 653.881 228.62 652.066 226.722 650.61C224.825 649.153 222.659 648.085 220.348 647.466C218.038 646.847 215.628 646.689 213.257 647.001C210.885 647.314 208.598 648.09 206.527 649.286C202.343 651.701 199.291 655.68 198.04 660.346C196.79 665.012 197.445 669.984 199.86 674.167C202.275 678.351 206.254 681.404 210.92 682.654C215.586 683.904 220.558 683.25 224.741 680.834ZM163.139 678.7C159.113 675.654 153.185 678.537 153.06 683.597L152.07 723.194C151.956 727.761 156.751 730.742 160.941 728.704L193.421 712.918C197.611 710.884 198.266 705.255 194.633 702.508L163.139 678.7ZM159.134 683.705C159.131 683.72 159.129 683.735 159.128 683.75L158.143 723.281L158.151 723.283C158.162 723.283 158.173 723.282 158.184 723.279C158.22 723.271 158.256 723.259 158.289 723.243L190.772 707.454C190.828 707.429 190.856 707.405 190.872 707.396C190.898 707.374 190.916 707.345 190.925 707.313L159.479 683.544L159.453 683.524C159.396 683.527 159.341 683.542 159.29 683.569C159.232 683.596 159.18 683.636 159.141 683.687L159.134 683.694L159.136 683.696L159.134 683.705ZM253.215 721.743C255.987 717.786 257.072 712.89 256.234 708.132C255.395 703.374 252.701 699.144 248.744 696.373C246.784 695.001 244.574 694.028 242.238 693.51C239.903 692.992 237.488 692.939 235.132 693.354C230.375 694.193 226.145 696.887 223.373 700.844L202.479 730.687C201.106 732.647 200.134 734.857 199.616 737.192C199.098 739.528 199.045 741.942 199.461 744.298C199.876 746.653 200.751 748.904 202.036 750.922C203.321 752.939 204.991 754.684 206.951 756.056C208.91 757.428 211.12 758.4 213.456 758.918C215.791 759.436 218.205 759.489 220.561 759.074C222.917 758.658 225.167 757.783 227.185 756.498C229.202 755.213 230.947 753.543 232.319 751.584L253.214 721.741L253.215 721.743ZM207.452 734.171C206.519 735.477 205.853 736.954 205.494 738.518C205.135 740.082 205.09 741.702 205.361 743.284C205.631 744.866 206.213 746.378 207.072 747.734C207.931 749.089 209.05 750.261 210.365 751.182C211.679 752.102 213.163 752.753 214.731 753.096C216.299 753.44 217.919 753.469 219.498 753.182C221.077 752.896 222.583 752.299 223.93 751.427C225.277 750.554 226.438 749.423 227.345 748.1L235.925 735.845L216.034 721.914L207.45 734.169L207.452 734.171ZM239.409 730.871L219.515 716.943L228.347 704.328C229.251 702.997 230.411 701.859 231.759 700.98C233.107 700.101 234.616 699.498 236.199 699.208C237.782 698.917 239.406 698.944 240.979 699.287C242.551 699.629 244.039 700.281 245.358 701.205C246.676 702.128 247.797 703.304 248.657 704.664C249.517 706.024 250.097 707.542 250.365 709.129C250.633 710.716 250.583 712.34 250.218 713.907C249.853 715.474 249.179 716.954 248.238 718.258L239.409 730.871Z" fill="white" fill-opacity="0.1"/>
</g>
<g clip-path="url(#clip13_812_1457)">
<path d="M1034.53 680.412C1035.55 679.51 1036.18 678.237 1036.27 676.874C1036.36 675.51 1035.9 674.168 1035 673.141C1034.1 672.115 1032.82 671.489 1031.46 671.401C1030.1 671.313 1028.75 671.77 1027.73 672.672C1022.97 676.843 1021.09 682.945 1021.84 689.23C1022.57 695.451 1025.86 701.866 1031.38 707.575C1031.85 708.08 1032.41 708.487 1033.03 708.771C1033.66 709.056 1034.34 709.213 1035.02 709.232C1035.71 709.252 1036.39 709.135 1037.03 708.887C1037.67 708.639 1038.26 708.265 1038.75 707.788C1039.24 707.311 1039.64 706.74 1039.91 706.109C1040.18 705.478 1040.32 704.799 1040.32 704.113C1040.33 703.426 1040.19 702.746 1039.93 702.112C1039.67 701.477 1039.28 700.902 1038.79 700.419C1034.47 695.952 1032.48 691.529 1032.06 688.013C1031.65 684.554 1032.71 682.01 1034.53 680.406L1034.53 680.412ZM990.282 643.969C992.466 648.338 995.527 652.211 999.273 655.347C1003.02 658.482 1007.37 660.812 1012.06 662.193C1007.33 667.089 1004.12 673.252 1002.83 679.935C1001.53 686.618 1002.21 693.532 1004.77 699.84C1010.9 714.98 1022 727.579 1036.25 735.56L1040.36 737.867C1040.52 737.951 1040.67 738.026 1040.83 738.094L1055.8 744.569C1058.97 745.942 1062.41 746.607 1065.86 746.518C1069.32 746.429 1072.71 745.588 1075.81 744.054C1078.9 742.52 1081.63 740.329 1083.79 737.635C1085.95 734.94 1087.5 731.807 1088.33 728.452C1088.43 728.059 1088.61 727.691 1088.85 727.368C1089.09 727.045 1089.4 726.774 1089.75 726.572C1090.1 726.37 1090.48 726.241 1090.89 726.192C1091.29 726.143 1091.69 726.176 1092.08 726.288C1095.4 727.248 1098.89 727.472 1102.31 726.945C1105.72 726.419 1108.98 725.154 1111.86 723.24C1114.73 721.325 1117.16 718.807 1118.96 715.859C1120.77 712.912 1121.91 709.607 1122.3 706.174L1124.18 689.968C1124.2 689.795 1124.21 689.622 1124.21 689.449L1124.27 684.734C1124.49 668.402 1119.14 652.483 1109.1 639.6C1106.15 635.804 1102.44 632.657 1098.21 630.351C1093.99 628.046 1089.34 626.633 1084.54 626.199C1079.75 625.765 1074.92 626.32 1070.35 627.828C1065.78 629.337 1061.57 631.767 1057.97 634.97L1048.02 643.842L1048 643.852C1045.5 639.109 1043.34 633.694 1042.3 628.602C1041.04 622.443 1041.64 617.958 1043.67 615.313C1044.49 614.226 1044.86 612.854 1044.68 611.5C1044.49 610.145 1043.78 608.918 1042.69 608.089C1041.61 607.259 1040.24 606.896 1038.88 607.078C1037.53 607.26 1036.3 607.973 1035.47 609.059C1030.72 615.283 1030.74 623.529 1032.2 630.664L1032.42 631.666C1029.32 629.682 1025.93 628.186 1022.38 627.232C1017.51 625.924 1012.42 625.666 1007.44 626.474C1002.47 627.282 997.72 629.137 993.516 631.918C991.593 633.18 990.201 635.105 989.603 637.325C989.006 639.546 989.244 641.909 990.272 643.966L990.282 643.969ZM999.873 640.073C1002.81 638.263 1006.08 637.073 1009.5 636.576C1012.91 636.079 1016.38 636.286 1019.71 637.183C1023.05 638.071 1026.16 639.631 1028.87 641.767C1031.57 643.904 1033.81 646.571 1035.45 649.606C1034.39 650.258 1033.28 650.831 1032.14 651.322L1028.03 652.679C1023.94 653.653 1019.67 653.589 1015.61 652.495C1012.28 651.608 1009.16 650.048 1006.46 647.911C1003.75 645.775 1001.51 643.107 999.873 640.073ZM1029.54 663.03L1030.88 662.586C1032.54 662.166 1034.17 661.632 1035.75 660.983L1042.2 658.841C1046.88 657.294 1051.19 654.805 1054.87 651.526L1064.83 642.651C1067.37 640.387 1070.35 638.668 1073.58 637.601C1076.82 636.535 1080.23 636.143 1083.62 636.45C1087.01 636.757 1090.3 637.757 1093.29 639.387C1096.28 641.017 1098.9 643.243 1100.99 645.927C1109.59 656.965 1114.17 670.604 1113.98 684.595L1113.92 689.045L1112.08 704.987C1111.85 706.933 1111.21 708.807 1110.18 710.478C1109.16 712.148 1107.79 713.576 1106.16 714.661C1104.53 715.746 1102.68 716.462 1100.74 716.76C1098.81 717.058 1096.83 716.931 1094.95 716.386C1093.23 715.888 1091.42 715.743 1089.64 715.959C1087.87 716.175 1086.15 716.748 1084.6 717.643C1083.05 718.539 1081.69 719.738 1080.62 721.17C1079.54 722.601 1078.77 724.236 1078.34 725.974C1077.87 727.876 1076.99 729.653 1075.76 731.181C1074.54 732.708 1072.99 733.951 1071.24 734.82C1069.48 735.69 1067.56 736.167 1065.6 736.218C1063.64 736.268 1061.7 735.891 1059.9 735.113L1045.17 728.738L1041.29 726.561C1029.08 719.73 1019.56 708.941 1014.3 695.975C1013.03 692.822 1012.41 689.44 1012.49 686.038C1012.57 682.637 1013.35 679.288 1014.78 676.2C1016.21 673.112 1018.25 670.35 1020.79 668.084C1023.33 665.819 1026.31 664.098 1029.54 663.03Z" fill="white" fill-opacity="0.1"/>
</g>
<defs>
<linearGradient id="paint0_linear_812_1457" x1="0" y1="405" x2="1440" y2="405" gradientUnits="userSpaceOnUse">
<stop stop-color="#79D871"/>
<stop offset="1" stop-color="#105318"/>
</linearGradient>
<clipPath id="clip0_812_1457">
<rect width="150" height="150" fill="white" transform="translate(772 432) rotate(-30)"/>
</clipPath>
<clipPath id="clip1_812_1457">
<rect width="150" height="150" fill="white" transform="translate(229 275) rotate(-30)"/>
</clipPath>
<clipPath id="clip2_812_1457">
<rect width="150" height="150" fill="white" transform="translate(-77 569) rotate(-30)"/>
</clipPath>
<clipPath id="clip3_812_1457">
<rect width="150" height="150" fill="white" transform="translate(1299 115) rotate(-30)"/>
</clipPath>
<clipPath id="clip4_812_1457">
<rect width="150" height="150" fill="white" transform="translate(1235 651) rotate(-30)"/>
</clipPath>
<clipPath id="clip5_812_1457">
<rect width="160.38" height="160.38" fill="white" transform="translate(501 351.191) rotate(-30)"/>
</clipPath>
<clipPath id="clip6_812_1457">
<rect width="160.38" height="160.38" fill="white" transform="translate(655 110.191) rotate(-30)"/>
</clipPath>
<clipPath id="clip7_812_1457">
<rect width="160.38" height="160.38" fill="white" transform="translate(1308 445.191) rotate(-30)"/>
</clipPath>
<clipPath id="clip8_812_1457">
<rect width="160.38" height="160.38" fill="white" transform="translate(-57 102.191) rotate(-30)"/>
</clipPath>
<clipPath id="clip9_812_1457">
<rect width="160.38" height="160.38" fill="white" transform="translate(-27 348.191) rotate(-30)"/>
</clipPath>
<clipPath id="clip10_812_1457">
<rect width="145.716" height="145.716" fill="white" transform="translate(493 689.859) rotate(-30)"/>
</clipPath>
<clipPath id="clip11_812_1457">
<rect width="145.716" height="145.716" fill="white" transform="translate(1021 72.8594) rotate(-30)"/>
</clipPath>
<clipPath id="clip12_812_1457">
<rect width="145.716" height="145.716" fill="white" transform="translate(105 679.859) rotate(-30)"/>
</clipPath>
<clipPath id="clip13_812_1457">
<rect width="164.844" height="164.844" fill="white" transform="translate(946 642.422) rotate(-30)"/>
</clipPath>
</defs>
</svg>
