<svg width="1440" height="808" viewBox="0 0 1440 808" fill="none" xmlns="http://www.w3.org/2000/svg">
<rect y="55" width="1440" height="676" fill="url(#paint0_linear_812_1290)"/>
<g clip-path="url(#clip0_812_1290)">
<path d="M49.497 142.569C57.3707 153.783 71.8923 156.583 87.2528 149.161L92.2308 157.783L99.6263 153.513L94.6483 144.891C110.011 134.329 114.841 119.638 107.218 106.435C100.709 95.1614 90.228 92.5148 73.8625 97.0663L67.9775 98.696L52.4131 71.7376C60.819 67.9244 68.6592 69.1081 73.7061 74.7219L84.1293 68.7041C76.4022 58.0387 61.9601 55.5236 47.2591 62.8106L42.3138 54.2451L34.9183 58.5149L39.9659 67.2576C27.1589 76.8262 22.8057 91.0815 29.6996 103.022C35.6519 113.332 46.7139 116.673 60.5091 112.812L65.4976 111.463L81.9995 140.045C73.1564 143.544 64.9687 142.315 59.8564 136.588L49.497 142.569ZM57.8376 101.487C49.3654 103.892 43.1153 102.187 39.8771 96.5788C36.0126 89.8853 38.1511 82.0612 45.1568 76.2485L59.4645 101.03L57.8417 101.494L57.8376 101.487ZM76.7822 108.248C87.23 105.269 93.4305 106.757 97.1558 113.209C101.647 120.988 98.7823 129.552 89.4943 135.964L73.9585 109.055L76.7781 108.241L76.7822 108.248Z" fill="#DEDEDE" fill-opacity="0.1"/>
</g>
<g clip-path="url(#clip1_812_1290)">
<path d="M710.497 125.569C718.371 136.783 732.892 139.583 748.253 132.161L753.231 140.783L760.626 136.513L755.648 127.891C771.011 117.329 775.841 102.638 768.218 89.4354C761.709 78.1614 751.228 75.5148 734.862 80.0663L728.978 81.696L713.413 54.7376C721.819 50.9244 729.659 52.1081 734.706 57.7219L745.129 51.7041C737.402 41.0387 722.96 38.5236 708.259 45.8106L703.314 37.2451L695.918 41.5149L700.966 50.2576C688.159 59.8262 683.806 74.0815 690.7 86.022C696.652 96.3318 707.714 99.6734 721.509 95.8118L726.498 94.4633L742.999 123.045C734.156 126.544 725.969 125.315 720.856 119.588L710.497 125.569ZM718.838 84.4872C710.365 86.8921 704.115 85.1875 700.877 79.5788C697.013 72.8853 699.151 65.0612 706.157 59.2485L720.464 84.0301L718.842 84.4943L718.838 84.4872ZM737.782 91.2476C748.23 88.2692 754.43 89.7568 758.156 96.2092C762.647 103.988 759.782 112.552 750.494 118.964L734.958 92.0553L737.778 91.2405L737.782 91.2476Z" fill="#DEDEDE" fill-opacity="0.1"/>
</g>
<g clip-path="url(#clip2_812_1290)">
<path d="M1231.5 754.569C1239.37 765.783 1253.89 768.583 1269.25 761.161L1274.23 769.783L1281.63 765.513L1276.65 756.891C1292.01 746.329 1296.84 731.638 1289.22 718.435C1282.71 707.161 1272.23 704.515 1255.86 709.066L1249.98 710.696L1234.41 683.738C1242.82 679.924 1250.66 681.108 1255.71 686.722L1266.13 680.704C1258.4 670.039 1243.96 667.524 1229.26 674.811L1224.31 666.245L1216.92 670.515L1221.97 679.258C1209.16 688.826 1204.81 703.082 1211.7 715.022C1217.65 725.332 1228.71 728.673 1242.51 724.812L1247.5 723.463L1264 752.045C1255.16 755.544 1246.97 754.315 1241.86 748.588L1231.5 754.569ZM1239.84 713.487C1231.37 715.892 1225.12 714.187 1221.88 708.579C1218.01 701.885 1220.15 694.061 1227.16 688.248L1241.46 713.03L1239.84 713.494L1239.84 713.487ZM1258.78 720.248C1269.23 717.269 1275.43 718.757 1279.16 725.209C1283.65 732.988 1280.78 741.552 1271.49 747.964L1255.96 721.055L1258.78 720.241L1258.78 720.248Z" fill="#DEDEDE" fill-opacity="0.1"/>
</g>
<g clip-path="url(#clip3_812_1290)">
<path d="M622.497 730.569C630.371 741.783 644.892 744.583 660.253 737.161L665.231 745.783L672.626 741.513L667.648 732.891C683.011 722.329 687.841 707.638 680.218 694.435C673.709 683.161 663.228 680.515 646.862 685.066L640.978 686.696L625.413 659.738C633.819 655.924 641.659 657.108 646.706 662.722L657.129 656.704C649.402 646.039 634.96 643.524 620.259 650.811L615.314 642.245L607.918 646.515L612.966 655.258C600.159 664.826 595.806 679.082 602.7 691.022C608.652 701.332 619.714 704.673 633.509 700.812L638.498 699.463L654.999 728.045C646.156 731.544 637.969 730.315 632.856 724.588L622.497 730.569ZM630.838 689.487C622.365 691.892 616.115 690.187 612.877 684.579C609.013 677.885 611.151 670.061 618.157 664.248L632.464 689.03L630.842 689.494L630.838 689.487ZM649.782 696.248C660.23 693.269 666.43 694.757 670.156 701.209C674.647 708.988 671.782 717.552 662.494 723.964L646.958 697.055L649.778 696.241L649.782 696.248Z" fill="#DEDEDE" fill-opacity="0.1"/>
</g>
<g clip-path="url(#clip4_812_1290)">
<path d="M696.497 339.569C704.371 350.783 718.892 353.583 734.253 346.161L739.231 354.783L746.626 350.513L741.648 341.891C757.011 331.329 761.841 316.638 754.218 303.435C747.709 292.161 737.228 289.515 720.862 294.066L714.978 295.696L699.413 268.738C707.819 264.924 715.659 266.108 720.706 271.722L731.129 265.704C723.402 255.039 708.96 252.524 694.259 259.811L689.314 251.245L681.918 255.515L686.966 264.258C674.159 273.826 669.806 288.082 676.7 300.022C682.652 310.332 693.714 313.673 707.509 309.812L712.498 308.463L728.999 337.045C720.156 340.544 711.969 339.315 706.856 333.588L696.497 339.569ZM704.838 298.487C696.365 300.892 690.115 299.187 686.877 293.579C683.013 286.885 685.151 279.061 692.157 273.248L706.464 298.03L704.842 298.494L704.838 298.487ZM723.782 305.248C734.23 302.269 740.43 303.757 744.156 310.209C748.647 317.988 745.782 326.552 736.494 332.964L720.958 306.055L723.778 305.241L723.782 305.248Z" fill="#DEDEDE" fill-opacity="0.1"/>
</g>
<g clip-path="url(#clip5_812_1290)">
<path d="M438.217 358.162L443.334 367.025C443.899 368.004 445.151 368.34 446.13 367.775L453.22 363.681C453.691 363.409 454.034 362.962 454.174 362.438C454.315 361.914 454.241 361.355 453.97 360.885L448.852 352.022L452.398 349.975L457.515 358.838C458.08 359.816 459.333 360.152 460.311 359.587L467.402 355.493C467.872 355.222 468.215 354.775 468.355 354.251C468.496 353.726 468.422 353.167 468.151 352.697L463.034 343.834L463.629 343.49C477.754 335.335 483.622 322.181 476.306 309.511C470.158 298.86 459.656 297.161 450.818 301.158L450.457 300.534C456.344 294.848 458.403 286.738 453.425 278.116C447.154 267.254 435.192 265.367 422.748 272.552L422.096 272.928L416.979 264.065C416.708 263.595 416.26 263.252 415.736 263.111C415.212 262.971 414.653 263.044 414.183 263.316L407.092 267.41C406.622 267.681 406.279 268.128 406.139 268.652C405.998 269.177 406.072 269.736 406.343 270.206L411.46 279.069L407.397 281.415L402.28 272.551C402.009 272.081 401.562 271.738 401.037 271.598C400.513 271.457 399.954 271.531 399.484 271.802L392.911 275.597C392.441 275.868 392.098 276.316 391.957 276.84C391.817 277.364 391.89 277.923 392.162 278.393L397.279 287.256L383.157 295.514C382.687 295.785 382.344 296.232 382.203 296.757C382.063 297.281 382.137 297.84 382.408 298.31L386.457 305.322C387.018 306.294 388.26 306.645 389.239 306.08L394.571 302.954C395.981 302.152 397.651 301.941 399.215 302.366C400.78 302.791 402.114 303.817 402.924 305.222L425.46 344.255C426.275 345.666 426.495 347.342 426.074 348.915C425.652 350.488 424.623 351.829 423.213 352.644L417.954 355.784C417.484 356.055 417.141 356.502 417 357.027C416.86 357.551 416.933 358.11 417.205 358.58L421.299 365.67C421.864 366.649 423.116 366.984 424.095 366.419L438.217 358.162ZM413.485 291.958L425.673 284.921C432.098 281.212 437.908 282.565 441.241 288.337C444.806 294.513 442.739 300.348 433.507 305.678L424.431 310.918L413.485 291.958ZM430.069 320.682L443.115 313.15C451.177 308.495 457.941 310.074 461.805 316.767C465.707 323.524 463.302 329.611 452.44 335.883L442.243 341.77L430.073 320.689L430.069 320.682Z" fill="white" fill-opacity="0.1"/>
</g>
<g clip-path="url(#clip6_812_1290)">
<path d="M414.217 673.162L419.334 682.025C419.899 683.004 421.151 683.34 422.13 682.775L429.22 678.681C429.691 678.409 430.034 677.962 430.174 677.438C430.315 676.914 430.241 676.355 429.97 675.885L424.852 667.022L428.398 664.975L433.515 673.838C434.08 674.816 435.333 675.152 436.311 674.587L443.402 670.493C443.872 670.222 444.215 669.775 444.355 669.251C444.496 668.726 444.422 668.167 444.151 667.697L439.034 658.834L439.629 658.49C453.754 650.335 459.622 637.181 452.306 624.511C446.158 613.86 435.656 612.161 426.818 616.158L426.457 615.534C432.344 609.848 434.403 601.738 429.425 593.116C423.154 582.254 411.192 580.367 398.748 587.552L398.096 587.928L392.979 579.065C392.708 578.595 392.26 578.252 391.736 578.111C391.212 577.971 390.653 578.044 390.183 578.316L383.092 582.41C382.622 582.681 382.279 583.128 382.139 583.652C381.998 584.177 382.072 584.736 382.343 585.206L387.46 594.069L383.397 596.415L378.28 587.551C378.009 587.081 377.562 586.738 377.037 586.598C376.513 586.457 375.954 586.531 375.484 586.802L368.911 590.597C368.441 590.868 368.098 591.316 367.957 591.84C367.817 592.364 367.89 592.923 368.162 593.393L373.279 602.256L359.157 610.514C358.687 610.785 358.344 611.232 358.203 611.757C358.063 612.281 358.137 612.84 358.408 613.31L362.457 620.322C363.018 621.294 364.26 621.645 365.239 621.08L370.571 617.954C371.981 617.152 373.651 616.941 375.215 617.366C376.78 617.791 378.114 618.817 378.924 620.222L401.46 659.255C402.275 660.666 402.495 662.342 402.074 663.915C401.652 665.488 400.623 666.829 399.213 667.644L393.954 670.784C393.484 671.055 393.141 671.502 393 672.027C392.86 672.551 392.933 673.11 393.205 673.58L397.299 680.67C397.864 681.649 399.116 681.984 400.095 681.419L414.217 673.162ZM389.485 606.958L401.673 599.921C408.098 596.212 413.908 597.565 417.241 603.337C420.806 609.513 418.739 615.348 409.507 620.678L400.431 625.918L389.485 606.958ZM406.069 635.682L419.115 628.15C427.177 623.495 433.941 625.074 437.805 631.767C441.707 638.524 439.302 644.611 428.44 650.883L418.243 656.77L406.073 635.689L406.069 635.682Z" fill="white" fill-opacity="0.1"/>
</g>
<g clip-path="url(#clip7_812_1290)">
<path d="M1251.22 152.162L1256.33 161.025C1256.9 162.004 1258.15 162.34 1259.13 161.775L1266.22 157.681C1266.69 157.409 1267.03 156.962 1267.17 156.438C1267.31 155.914 1267.24 155.355 1266.97 154.885L1261.85 146.022L1265.4 143.975L1270.51 152.838C1271.08 153.816 1272.33 154.152 1273.31 153.587L1280.4 149.493C1280.87 149.222 1281.21 148.775 1281.36 148.251C1281.5 147.726 1281.42 147.167 1281.15 146.697L1276.03 137.834L1276.63 137.49C1290.75 129.335 1296.62 116.181 1289.31 103.511C1283.16 92.8604 1272.66 91.1615 1263.82 95.1584L1263.46 94.5344C1269.34 88.8476 1271.4 80.7384 1266.43 72.1163C1260.15 61.2535 1248.19 59.3671 1235.75 66.5516L1235.1 66.9282L1229.98 58.065C1229.71 57.5949 1229.26 57.2518 1228.74 57.1113C1228.21 56.9708 1227.65 57.0444 1227.18 57.3158L1220.09 61.4096C1219.62 61.681 1219.28 62.1281 1219.14 62.6524C1219 63.1768 1219.07 63.7355 1219.34 64.2056L1224.46 73.0689L1220.4 75.4146L1215.28 66.5514C1215.01 66.0812 1214.56 65.7382 1214.04 65.5977C1213.51 65.4572 1212.95 65.5307 1212.48 65.8021L1205.91 69.5971C1205.44 69.8685 1205.1 70.3156 1204.96 70.8399C1204.82 71.3643 1204.89 71.923 1205.16 72.3931L1210.28 81.2564L1196.16 89.5137C1195.69 89.7851 1195.34 90.2322 1195.2 90.7566C1195.06 91.2809 1195.14 91.8396 1195.41 92.3098L1199.46 99.3223C1200.02 100.294 1201.26 100.645 1202.24 100.08L1207.57 96.9535C1208.98 96.1521 1210.65 95.9408 1212.22 96.3658C1213.78 96.7907 1215.11 97.8173 1215.92 99.2216L1238.46 138.255C1239.27 139.666 1239.5 141.342 1239.07 142.915C1238.65 144.488 1237.62 145.829 1236.21 146.644L1230.95 149.784C1230.48 150.055 1230.14 150.502 1230 151.027C1229.86 151.551 1229.93 152.11 1230.2 152.58L1234.3 159.67C1234.86 160.649 1236.12 160.984 1237.09 160.419L1251.22 152.162ZM1226.48 85.9583L1238.67 78.9211C1245.1 75.2122 1250.91 76.5654 1254.24 82.3372C1257.81 88.5131 1255.74 94.3484 1246.51 99.6785L1237.43 104.918L1226.48 85.9583ZM1243.07 114.682L1256.12 107.15C1264.18 102.495 1270.94 104.074 1274.81 110.767C1278.71 117.524 1276.3 123.611 1265.44 129.883L1255.24 135.77L1243.07 114.689L1243.07 114.682Z" fill="white" fill-opacity="0.1"/>
</g>
<path d="M166.507 714.998L180.469 706.937C183.188 709.763 185.631 712.834 187.641 716.315C193.311 726.136 192.641 737.026 184.272 744.458L189.242 753.066L245.399 720.643L240.323 711.851L201.268 734.399L200.74 733.485C204.441 726.385 202.868 718.585 197.759 709.736C195.856 706.439 193.526 703.549 191.033 700.837L214.361 687.369L210.382 680.477L185.36 694.924C181.081 690.559 176.766 686.13 173.523 680.514C168.308 671.481 172.49 661.579 183.359 655.303C188.544 652.404 194.266 650.597 200.174 649.991L194.816 640.709C188.711 641.435 182.814 643.374 177.47 646.413C159.864 656.578 154.209 672.048 162.703 686.761C165.876 692.256 170.288 696.705 174.731 701.06L162.528 708.106L166.507 714.998Z" fill="white" fill-opacity="0.1"/>
<path d="M-12.4929 593.998L1.46851 585.937C4.18751 588.763 6.63139 591.834 8.64142 595.315C14.3113 605.136 13.6407 616.026 5.27224 623.458L10.2421 632.066L66.3995 599.643L61.3232 590.851L22.2683 613.399L21.7402 612.485C25.4407 605.385 23.8684 597.585 18.7594 588.736C16.8558 585.439 14.5255 582.549 12.0335 579.837L35.3615 566.369L31.3824 559.477L6.3597 573.924C2.08107 569.559 -2.2344 565.13 -5.47665 559.514C-10.6921 550.481 -6.5105 540.579 4.35937 534.303C9.54359 531.404 15.2659 529.597 21.1745 528.991L15.8157 519.709C9.7114 520.435 3.81384 522.374 -1.52976 525.413C-19.1357 535.578 -24.7914 551.048 -16.2969 565.761C-13.1242 571.256 -8.71219 575.705 -4.26908 580.06L-16.472 587.106L-12.4929 593.998Z" fill="white" fill-opacity="0.1"/>
<path d="M33.5071 332.998L47.4685 324.937C50.1875 327.763 52.6314 330.834 54.6414 334.315C60.3113 344.136 59.6407 355.026 51.2722 362.458L56.2421 371.066L112.399 338.643L107.323 329.851L68.2683 352.399L67.7402 351.485C71.4407 344.385 69.8684 336.585 64.7594 327.736C62.8558 324.439 60.5255 321.549 58.0335 318.837L81.3615 305.369L77.3824 298.477L52.3597 312.924C48.0811 308.559 43.7656 304.13 40.5233 298.514C35.3079 289.481 39.4895 279.579 50.3594 273.303C55.5436 270.404 61.2659 268.597 67.1745 267.991L61.8157 258.709C55.7114 259.435 49.8138 261.374 44.4702 264.413C26.8643 274.578 21.2086 290.048 29.7031 304.761C32.8758 310.256 37.2878 314.705 41.7309 319.06L29.528 326.106L33.5071 332.998Z" fill="white" fill-opacity="0.1"/>
<path d="M259.507 164.998L273.469 156.937C276.188 159.763 278.631 162.834 280.641 166.315C286.311 176.136 285.641 187.026 277.272 194.458L282.242 203.066L338.399 170.643L333.323 161.851L294.268 184.399L293.74 183.485C297.441 176.385 295.868 168.585 290.759 159.736C288.856 156.439 286.526 153.549 284.033 150.837L307.361 137.369L303.382 130.477L278.36 144.924C274.081 140.559 269.766 136.13 266.523 130.514C261.308 121.481 265.49 111.579 276.359 105.303C281.544 102.404 287.266 100.597 293.174 99.991L287.816 90.7094C281.711 91.4347 275.814 93.3739 270.47 96.4128C252.864 106.578 247.209 122.048 255.703 136.761C258.876 142.256 263.288 146.705 267.731 151.06L255.528 158.106L259.507 164.998Z" fill="white" fill-opacity="0.1"/>
<g clip-path="url(#clip8_812_1290)">
<path d="M579.355 172.948L568.593 154.307L585.936 144.293L581.978 137.437L564.634 147.45L559.271 138.161L576.608 128.152L572.649 121.296L557.993 129.757L556.82 72.5093L544.773 79.4646L547.053 128.51L546.443 128.862L505.108 102.365L493.005 109.353L541.933 139.03L527.149 147.565L531.111 154.429L548.639 144.309L554.002 153.598L536.488 163.709L540.443 170.559L557.957 160.447L568.719 179.088L579.369 172.94L579.355 172.948Z" fill="white" fill-opacity="0.1"/>
</g>
<defs>
<linearGradient id="paint0_linear_812_1290" x1="0" y1="393" x2="1440" y2="393" gradientUnits="userSpaceOnUse">
<stop stop-color="#853DF2"/>
<stop offset="1" stop-color="#14242B"/>
</linearGradient>
<clipPath id="clip0_812_1290">
<rect width="131" height="131" fill="white" transform="translate(-23 82.5) rotate(-30)"/>
</clipPath>
<clipPath id="clip1_812_1290">
<rect width="131" height="131" fill="white" transform="translate(638 65.5) rotate(-30)"/>
</clipPath>
<clipPath id="clip2_812_1290">
<rect width="131" height="131" fill="white" transform="translate(1159 694.5) rotate(-30)"/>
</clipPath>
<clipPath id="clip3_812_1290">
<rect width="131" height="131" fill="white" transform="translate(550 670.5) rotate(-30)"/>
</clipPath>
<clipPath id="clip4_812_1290">
<rect width="131" height="131" fill="white" transform="translate(624 279.5) rotate(-30)"/>
</clipPath>
<clipPath id="clip5_812_1290">
<rect width="131" height="131" fill="white" transform="translate(346 288.5) rotate(-30)"/>
</clipPath>
<clipPath id="clip6_812_1290">
<rect width="131" height="131" fill="white" transform="translate(322 603.5) rotate(-30)"/>
</clipPath>
<clipPath id="clip7_812_1290">
<rect width="131" height="131" fill="white" transform="translate(1159 82.5) rotate(-30)"/>
</clipPath>
<clipPath id="clip8_812_1290">
<rect width="131" height="131" fill="white" transform="translate(460 109.5) rotate(-30)"/>
</clipPath>
</defs>
</svg>
