<svg width="1440" height="723" viewBox="0 0 1440 723" fill="none" xmlns="http://www.w3.org/2000/svg">
<rect y="28" width="1440" height="676" fill="url(#paint0_linear_812_1305)"/>
<g clip-path="url(#clip0_812_1305)">
<path d="M639.791 631.556C640.27 630.445 640.389 629.212 640.132 628.029C639.874 626.847 639.253 625.774 638.356 624.963C637.458 624.151 636.329 623.641 635.127 623.503C633.925 623.365 632.71 623.607 631.652 624.195L610.856 635.176C610.752 635.227 610.636 635.247 610.521 635.233C610.406 635.219 610.297 635.173 610.208 635.098L592.209 620.164C591.298 619.401 590.174 618.938 588.99 618.835C587.807 618.732 586.62 618.996 585.591 619.59C584.562 620.184 583.741 621.08 583.238 622.156C582.735 623.233 582.575 624.438 582.779 625.608L586.775 648.718C586.795 648.832 586.781 648.949 586.736 649.056C586.69 649.162 586.615 649.254 586.519 649.318L566.611 661.837C565.573 662.459 564.756 663.391 564.274 664.501C563.792 665.611 563.669 666.844 563.924 668.027C564.178 669.21 564.796 670.284 565.691 671.098C566.587 671.912 567.714 672.426 568.916 672.566L592.127 675.899C592.243 675.916 592.352 675.966 592.44 676.044C592.527 676.122 592.59 676.224 592.621 676.338L598.367 698.98C598.655 700.136 599.291 701.175 600.191 701.956C601.09 702.737 602.208 703.222 603.392 703.345C604.577 703.469 605.771 703.224 606.812 702.644C607.852 702.065 608.689 701.179 609.209 700.107L619.55 679.061C619.6 678.956 619.681 678.868 619.782 678.81C619.883 678.752 619.999 678.725 620.115 678.735L643.512 680.302C644.7 680.415 645.894 680.155 646.927 679.558C647.96 678.961 648.782 678.058 649.279 676.973C649.768 675.891 649.91 674.684 649.685 673.518C649.46 672.352 648.879 671.284 648.022 670.462L631.202 654.123C631.116 654.042 631.057 653.936 631.034 653.82C631.01 653.705 631.022 653.584 631.07 653.476L639.791 631.556Z" fill="white" fill-opacity="0.1"/>
</g>
<g clip-path="url(#clip1_812_1305)">
<path d="M631.377 343.936C611.2 355.585 604.286 381.388 615.936 401.565C627.585 421.742 653.388 428.656 673.565 417.007C693.742 405.357 700.656 379.555 689.007 359.377C677.357 339.2 651.555 332.286 631.377 343.936ZM675.796 370.252L658.073 380.485C658.071 381.459 657.814 382.416 657.329 383.26L659.126 386.372L654.254 389.184L652.458 386.073C651.484 386.07 650.527 385.813 649.682 385.329L646.573 387.124L643.758 382.254L646.869 380.458C646.874 379.481 647.128 378.529 647.613 377.682L631.754 350.213L636.626 347.401L652.485 374.869C653.459 374.871 654.416 375.128 655.26 375.613L672.986 365.379L675.796 370.252Z" fill="white" fill-opacity="0.1"/>
<path d="M654.581 384.125C656.598 382.96 657.29 380.38 656.125 378.362C654.96 376.344 652.38 375.653 650.362 376.818C648.344 377.983 647.653 380.563 648.818 382.581C649.983 384.598 652.563 385.29 654.581 384.125Z" fill="white" fill-opacity="0.1"/>
</g>
<g clip-path="url(#clip2_812_1305)">
<path d="M1312.38 117.936C1292.2 129.585 1285.29 155.388 1296.94 175.565C1308.59 195.742 1334.39 202.656 1354.56 191.007C1374.74 179.357 1381.66 153.555 1370.01 133.377C1358.36 113.2 1332.55 106.286 1312.38 117.936ZM1356.8 144.252L1339.07 154.485C1339.07 155.459 1338.81 156.416 1338.33 157.26L1340.13 160.372L1335.25 163.184L1333.46 160.073C1332.48 160.07 1331.53 159.813 1330.68 159.329L1327.57 161.124L1324.76 156.254L1327.87 154.458C1327.87 153.481 1328.13 152.529 1328.61 151.682L1312.75 124.213L1317.63 121.401L1333.48 148.869C1334.46 148.871 1335.42 149.128 1336.26 149.613L1353.99 139.379L1356.8 144.252Z" fill="white" fill-opacity="0.1"/>
<path d="M1335.58 158.125C1337.6 156.96 1338.29 154.38 1337.12 152.362C1335.96 150.344 1333.38 149.653 1331.36 150.818C1329.34 151.983 1328.65 154.563 1329.82 156.581C1330.98 158.598 1333.56 159.29 1335.58 158.125Z" fill="white" fill-opacity="0.1"/>
</g>
<g clip-path="url(#clip3_812_1305)">
<path d="M1271.38 624.936C1251.2 636.585 1244.29 662.388 1255.94 682.565C1267.59 702.742 1293.39 709.656 1313.56 698.007C1333.74 686.357 1340.66 660.555 1329.01 640.377C1317.36 620.2 1291.55 613.286 1271.38 624.936ZM1315.8 651.252L1298.07 661.485C1298.07 662.459 1297.81 663.416 1297.33 664.26L1299.13 667.372L1294.25 670.185L1292.46 667.073C1291.48 667.07 1290.53 666.814 1289.68 666.329L1286.57 668.124L1283.76 663.254L1286.87 661.458C1286.87 660.481 1287.13 659.529 1287.61 658.682L1271.75 631.213L1276.63 628.401L1292.48 655.869C1293.46 655.872 1294.42 656.128 1295.26 656.613L1312.99 646.379L1315.8 651.252Z" fill="white" fill-opacity="0.1"/>
<path d="M1294.58 665.125C1296.6 663.96 1297.29 661.38 1296.12 659.362C1294.96 657.344 1292.38 656.653 1290.36 657.818C1288.34 658.983 1287.65 661.563 1288.82 663.581C1289.98 665.598 1292.56 666.29 1294.58 665.125Z" fill="white" fill-opacity="0.1"/>
</g>
<g clip-path="url(#clip4_812_1305)">
<path d="M682.377 24.9357C662.2 36.585 655.286 62.3876 666.936 82.5649C678.585 102.742 704.388 109.656 724.565 98.0066C744.742 86.3572 751.656 60.5547 740.007 40.3774C728.357 20.2001 702.555 13.2863 682.377 24.9357ZM726.796 51.252L709.073 61.4845C709.071 62.4588 708.814 63.4156 708.329 64.2604L710.126 67.372L705.254 70.1845L703.458 67.0729C702.484 67.0697 701.527 66.8134 700.682 66.3291L697.573 68.1242L694.758 63.2542L697.869 61.4577C697.874 60.4809 698.128 59.5288 698.613 58.6819L682.754 31.2133L687.626 28.4008L703.485 55.8694C704.459 55.8715 705.416 56.1279 706.26 56.6132L723.986 46.3792L726.796 51.252Z" fill="white" fill-opacity="0.1"/>
<path d="M705.581 65.1247C707.598 63.9597 708.29 61.3796 707.125 59.3618C705.96 57.344 703.38 56.6527 701.362 57.8176C699.344 58.9826 698.653 61.5627 699.818 63.5805C700.983 65.5983 703.563 66.2897 705.581 65.1247Z" fill="white" fill-opacity="0.1"/>
</g>
<path fill-rule="evenodd" clip-rule="evenodd" d="M18.4649 708.909L-15.9078 649.374C-17.2583 647.035 -17.6243 644.255 -16.9252 641.646C-16.2261 639.036 -14.5192 636.812 -12.18 635.461L23.1002 615.092C25.4394 613.742 28.2193 613.376 30.8283 614.075C33.4374 614.774 35.6619 616.481 37.0124 618.82L71.3851 678.355C71.6065 678.738 71.7243 679.172 71.7271 679.614C71.7299 680.056 71.6175 680.492 71.4009 680.877C71.1844 681.263 70.8712 681.585 70.4922 681.813C70.1132 682.04 69.6815 682.165 69.2394 682.176L38.7354 682.911L22.8461 708.961C22.6163 709.339 22.2921 709.65 21.9054 709.864C21.5187 710.079 21.0828 710.189 20.6407 710.183C20.1986 710.178 19.7655 710.058 19.384 709.834C19.0025 709.611 18.6857 709.292 18.4649 708.909ZM16.6048 642.951C16.464 642.856 16.2993 642.802 16.1295 642.796C15.9597 642.79 15.7917 642.832 15.6446 642.917C15.4975 643.002 15.3772 643.127 15.2974 643.277C15.2177 643.427 15.1817 643.596 15.1936 643.765L15.6694 651.047C15.6796 651.193 15.6539 651.341 15.5944 651.475C15.5349 651.61 15.4435 651.728 15.328 651.82L9.59028 656.344C9.45874 656.449 9.35909 656.589 9.30248 656.747C9.24586 656.906 9.23454 657.077 9.26977 657.242C9.30499 657.406 9.38538 657.558 9.50192 657.679C9.61846 657.801 9.76654 657.888 9.92957 657.93L17.0029 659.732C17.2925 659.806 17.5265 660.017 17.6301 660.299L20.1675 667.148C20.2267 667.306 20.3287 667.444 20.4621 667.547C20.5954 667.65 20.7549 667.714 20.9225 667.731C21.0902 667.749 21.2594 667.719 21.4111 667.646C21.5628 667.572 21.6911 667.458 21.7814 667.316L25.6813 661.136C25.7597 661.013 25.8668 660.91 25.9935 660.837C26.1203 660.764 26.2628 660.722 26.409 660.716L33.7105 660.429C33.8781 660.42 34.0401 660.366 34.1785 660.271C34.3169 660.176 34.4262 660.045 34.4943 659.891C34.5625 659.738 34.5867 659.569 34.5643 659.402C34.542 659.236 34.474 659.079 34.3678 658.949L29.6978 653.325C29.6029 653.213 29.5368 653.079 29.5051 652.936C29.4735 652.792 29.4772 652.643 29.516 652.501L31.5008 645.47C31.5459 645.307 31.5449 645.136 31.4979 644.974C31.4509 644.812 31.3599 644.667 31.2349 644.554C31.1099 644.441 30.956 644.366 30.7904 644.335C30.6247 644.305 30.454 644.321 30.2972 644.383L23.5104 647.09C23.3735 647.144 23.2254 647.164 23.0789 647.148C22.9325 647.132 22.7921 647.081 22.67 646.999L16.6048 642.951Z" fill="white" fill-opacity="0.1"/>
<path fill-rule="evenodd" clip-rule="evenodd" d="M71.4649 394.909L37.0922 335.374C35.7417 333.035 35.3757 330.255 36.0748 327.646C36.7739 325.036 38.4808 322.812 40.82 321.461L76.1002 301.092C78.4394 299.742 81.2193 299.376 83.8283 300.075C86.4374 300.774 88.6619 302.481 90.0124 304.82L124.385 364.355C124.606 364.738 124.724 365.172 124.727 365.614C124.73 366.056 124.617 366.492 124.401 366.877C124.184 367.263 123.871 367.585 123.492 367.813C123.113 368.04 122.681 368.165 122.239 368.176L91.7354 368.911L75.8461 394.961C75.6163 395.339 75.2921 395.65 74.9054 395.864C74.5187 396.079 74.0828 396.189 73.6407 396.183C73.1986 396.178 72.7655 396.058 72.384 395.834C72.0025 395.611 71.6857 395.292 71.4649 394.909ZM69.6048 328.951C69.464 328.856 69.2993 328.802 69.1295 328.796C68.9597 328.79 68.7917 328.832 68.6446 328.917C68.4975 329.002 68.3772 329.127 68.2974 329.277C68.2177 329.427 68.1817 329.596 68.1936 329.765L68.6694 337.047C68.6796 337.193 68.6539 337.341 68.5944 337.475C68.5349 337.61 68.4435 337.728 68.328 337.82L62.5903 342.344C62.4587 342.449 62.3591 342.589 62.3025 342.747C62.2459 342.906 62.2345 343.077 62.2698 343.242C62.305 343.406 62.3854 343.558 62.5019 343.679C62.6185 343.801 62.7665 343.888 62.9296 343.93L70.0029 345.732C70.2925 345.806 70.5265 346.017 70.6301 346.299L73.1675 353.148C73.2267 353.306 73.3287 353.444 73.4621 353.547C73.5954 353.65 73.7549 353.714 73.9225 353.731C74.0902 353.749 74.2594 353.719 74.4111 353.646C74.5628 353.572 74.6911 353.458 74.7814 353.316L78.6813 347.136C78.7597 347.013 78.8668 346.91 78.9935 346.837C79.1203 346.764 79.2628 346.722 79.409 346.716L86.7105 346.429C86.8781 346.42 87.0401 346.366 87.1785 346.271C87.3169 346.176 87.4262 346.045 87.4943 345.891C87.5625 345.738 87.5867 345.569 87.5643 345.402C87.542 345.236 87.474 345.079 87.3678 344.949L82.6978 339.325C82.6029 339.213 82.5368 339.079 82.5051 338.936C82.4735 338.792 82.4772 338.643 82.516 338.501L84.5008 331.47C84.5459 331.307 84.5449 331.136 84.4979 330.974C84.4509 330.812 84.3599 330.667 84.2349 330.554C84.1099 330.441 83.956 330.366 83.7904 330.335C83.6247 330.305 83.454 330.321 83.2972 330.383L76.5104 333.09C76.3735 333.144 76.2254 333.164 76.0789 333.148C75.9325 333.132 75.7921 333.081 75.67 332.999L69.6048 328.951Z" fill="white" fill-opacity="0.1"/>
<path fill-rule="evenodd" clip-rule="evenodd" d="M1034.46 627.909L1000.09 568.374C998.742 566.035 998.376 563.255 999.075 560.646C999.774 558.036 1001.48 555.812 1003.82 554.461L1039.1 534.092C1041.44 532.742 1044.22 532.376 1046.83 533.075C1049.44 533.774 1051.66 535.481 1053.01 537.82L1087.39 597.355C1087.61 597.738 1087.72 598.172 1087.73 598.614C1087.73 599.056 1087.62 599.492 1087.4 599.877C1087.18 600.263 1086.87 600.585 1086.49 600.813C1086.11 601.04 1085.68 601.165 1085.24 601.176L1054.74 601.911L1038.85 627.961C1038.62 628.339 1038.29 628.65 1037.91 628.864C1037.52 629.079 1037.08 629.189 1036.64 629.183C1036.2 629.178 1035.77 629.058 1035.38 628.834C1035 628.611 1034.69 628.292 1034.46 627.909ZM1032.6 561.951C1032.46 561.856 1032.3 561.802 1032.13 561.796C1031.96 561.79 1031.79 561.832 1031.64 561.917C1031.5 562.002 1031.38 562.127 1031.3 562.277C1031.22 562.427 1031.18 562.596 1031.19 562.765L1031.67 570.047C1031.68 570.193 1031.65 570.341 1031.59 570.475C1031.53 570.61 1031.44 570.728 1031.33 570.82L1025.59 575.344C1025.46 575.449 1025.36 575.589 1025.3 575.747C1025.25 575.906 1025.23 576.077 1025.27 576.242C1025.3 576.406 1025.39 576.558 1025.5 576.679C1025.62 576.801 1025.77 576.888 1025.93 576.93L1033 578.732C1033.29 578.806 1033.53 579.017 1033.63 579.299L1036.17 586.148C1036.23 586.306 1036.33 586.444 1036.46 586.547C1036.6 586.65 1036.75 586.714 1036.92 586.731C1037.09 586.749 1037.26 586.719 1037.41 586.646C1037.56 586.572 1037.69 586.458 1037.78 586.316L1041.68 580.136C1041.76 580.013 1041.87 579.91 1041.99 579.837C1042.12 579.764 1042.26 579.722 1042.41 579.716L1049.71 579.429C1049.88 579.42 1050.04 579.366 1050.18 579.271C1050.32 579.176 1050.43 579.045 1050.49 578.891C1050.56 578.738 1050.59 578.569 1050.56 578.402C1050.54 578.236 1050.47 578.079 1050.37 577.949L1045.7 572.325C1045.6 572.213 1045.54 572.079 1045.51 571.936C1045.47 571.792 1045.48 571.643 1045.52 571.501L1047.5 564.47C1047.55 564.307 1047.54 564.136 1047.5 563.974C1047.45 563.812 1047.36 563.667 1047.23 563.554C1047.11 563.441 1046.96 563.366 1046.79 563.335C1046.62 563.305 1046.45 563.321 1046.3 563.383L1039.51 566.09C1039.37 566.144 1039.23 566.164 1039.08 566.148C1038.93 566.132 1038.79 566.081 1038.67 565.999L1032.6 561.951Z" fill="white" fill-opacity="0.1"/>
<path fill-rule="evenodd" clip-rule="evenodd" d="M288.465 114.909L254.092 55.3737C252.742 53.0345 252.376 50.2546 253.075 47.6456C253.774 45.0365 255.481 42.812 257.82 41.4615L293.1 21.0925C295.439 19.7419 298.219 19.3759 300.828 20.075C303.437 20.7741 305.662 22.481 307.012 24.8203L341.385 84.3555C341.606 84.7382 341.724 85.172 341.727 85.6141C341.73 86.0563 341.617 86.4915 341.401 86.877C341.184 87.2625 340.871 87.585 340.492 87.8127C340.113 88.0404 339.681 88.1655 339.239 88.1756L308.735 88.9115L292.846 114.961C292.616 115.339 292.292 115.65 291.905 115.864C291.519 116.079 291.083 116.189 290.641 116.183C290.199 116.178 289.765 116.058 289.384 115.834C289.002 115.611 288.686 115.292 288.465 114.909ZM286.605 48.9507C286.464 48.8556 286.299 48.8021 286.13 48.7962C285.96 48.7902 285.792 48.8321 285.645 48.917C285.497 49.002 285.377 49.1265 285.297 49.2766C285.218 49.4266 285.182 49.5959 285.194 49.7654L285.669 57.0465C285.68 57.1935 285.654 57.3407 285.594 57.4754C285.535 57.6102 285.443 57.7284 285.328 57.8199L279.59 62.3438C279.459 62.449 279.359 62.5886 279.302 62.7472C279.246 62.9058 279.235 63.077 279.27 63.2416C279.305 63.4062 279.385 63.5578 279.502 63.6793C279.618 63.8009 279.767 63.8875 279.93 63.9296L287.003 65.7317C287.293 65.8056 287.527 66.0174 287.63 66.2986L290.168 73.148C290.227 73.3058 290.329 73.444 290.462 73.5471C290.595 73.6502 290.755 73.714 290.923 73.7314C291.09 73.7489 291.259 73.7192 291.411 73.6458C291.563 73.5723 291.691 73.4581 291.781 73.3158L295.681 67.1363C295.76 67.0128 295.867 66.91 295.994 66.8369C296.12 66.7637 296.263 66.7223 296.409 66.7162L303.711 66.4285C303.878 66.4203 304.04 66.3657 304.178 66.2708C304.317 66.176 304.426 66.0446 304.494 65.8913C304.562 65.738 304.587 65.5688 304.564 65.4025C304.542 65.2362 304.474 65.0794 304.368 64.9495L299.698 59.3255C299.603 59.2132 299.537 59.0795 299.505 58.9359C299.473 58.7923 299.477 58.6432 299.516 58.5014L301.501 51.4696C301.546 51.3073 301.545 51.1358 301.498 50.9741C301.451 50.8124 301.36 50.667 301.235 50.5541C301.11 50.4413 300.956 50.3655 300.79 50.3353C300.625 50.305 300.454 50.3215 300.297 50.3828L293.51 53.0899C293.373 53.1441 293.225 53.1642 293.079 53.1484C292.932 53.1325 292.792 53.0812 292.67 52.9989L286.605 48.9507Z" fill="white" fill-opacity="0.1"/>
<path fill-rule="evenodd" clip-rule="evenodd" d="M329.465 614.909L295.092 555.374C293.742 553.035 293.376 550.255 294.075 547.646C294.774 545.036 296.481 542.812 298.82 541.461L334.1 521.092C336.439 519.742 339.219 519.376 341.828 520.075C344.437 520.774 346.662 522.481 348.012 524.82L382.385 584.355C382.606 584.738 382.724 585.172 382.727 585.614C382.73 586.056 382.617 586.492 382.401 586.877C382.184 587.263 381.871 587.585 381.492 587.813C381.113 588.04 380.681 588.165 380.239 588.176L349.735 588.911L333.846 614.961C333.616 615.339 333.292 615.65 332.905 615.864C332.519 616.079 332.083 616.189 331.641 616.183C331.199 616.178 330.765 616.058 330.384 615.834C330.002 615.611 329.686 615.292 329.465 614.909ZM327.605 548.951C327.464 548.856 327.299 548.802 327.13 548.796C326.96 548.79 326.792 548.832 326.645 548.917C326.497 549.002 326.377 549.127 326.297 549.277C326.218 549.427 326.182 549.596 326.194 549.765L326.669 557.047C326.68 557.193 326.654 557.341 326.594 557.475C326.535 557.61 326.443 557.728 326.328 557.82L320.59 562.344C320.459 562.449 320.359 562.589 320.302 562.747C320.246 562.906 320.235 563.077 320.27 563.242C320.305 563.406 320.385 563.558 320.502 563.679C320.618 563.801 320.767 563.888 320.93 563.93L328.003 565.732C328.293 565.806 328.527 566.017 328.63 566.299L331.168 573.148C331.227 573.306 331.329 573.444 331.462 573.547C331.595 573.65 331.755 573.714 331.923 573.731C332.09 573.749 332.259 573.719 332.411 573.646C332.563 573.572 332.691 573.458 332.781 573.316L336.681 567.136C336.76 567.013 336.867 566.91 336.994 566.837C337.12 566.764 337.263 566.722 337.409 566.716L344.711 566.429C344.878 566.42 345.04 566.366 345.178 566.271C345.317 566.176 345.426 566.045 345.494 565.891C345.562 565.738 345.587 565.569 345.564 565.402C345.542 565.236 345.474 565.079 345.368 564.949L340.698 559.325C340.603 559.213 340.537 559.079 340.505 558.936C340.473 558.792 340.477 558.643 340.516 558.501L342.501 551.47C342.546 551.307 342.545 551.136 342.498 550.974C342.451 550.812 342.36 550.667 342.235 550.554C342.11 550.441 341.956 550.366 341.79 550.335C341.625 550.305 341.454 550.321 341.297 550.383L334.51 553.09C334.373 553.144 334.225 553.164 334.079 553.148C333.932 553.132 333.792 553.081 333.67 552.999L327.605 548.951Z" fill="white" fill-opacity="0.1"/>
<defs>
<linearGradient id="paint0_linear_812_1305" x1="0" y1="366" x2="1440" y2="366" gradientUnits="userSpaceOnUse">
<stop stop-color="#FF7538"/>
<stop offset="1" stop-color="#460608"/>
</linearGradient>
<clipPath id="clip0_812_1305">
<rect width="94" height="94" fill="white" transform="translate(541 638) rotate(-30)"/>
</clipPath>
<clipPath id="clip1_812_1305">
<rect width="90" height="90" fill="white" transform="translate(591 364) rotate(-30)"/>
</clipPath>
<clipPath id="clip2_812_1305">
<rect width="90" height="90" fill="white" transform="translate(1272 138) rotate(-30)"/>
</clipPath>
<clipPath id="clip3_812_1305">
<rect width="90" height="90" fill="white" transform="translate(1231 645) rotate(-30)"/>
</clipPath>
<clipPath id="clip4_812_1305">
<rect width="90" height="90" fill="white" transform="translate(642 45) rotate(-30)"/>
</clipPath>
</defs>
</svg>
