<svg width="1440" height="1087" viewBox="0 0 1440 1087" fill="none" xmlns="http://www.w3.org/2000/svg">
<rect y="231" width="1440" height="676" fill="url(#paint0_linear_812_1329)"/>
<path d="M680.102 601.919C685.53 602.472 688.824 608.177 686.589 613.155L654.791 683.963C652.118 689.915 643.827 690.336 640.565 684.686L595.142 606.011C591.88 600.36 596.39 593.391 602.881 594.052L680.102 601.919Z" fill="white" fill-opacity="0.1"/>
<path d="M100.102 811.919C105.531 812.472 108.825 818.178 106.59 823.155L74.792 893.963C72.119 899.916 63.8282 900.337 60.5658 894.686L15.1429 816.011C11.8804 810.361 16.3906 803.391 22.8818 804.053L100.102 811.919Z" fill="white" fill-opacity="0.1"/>
<path d="M90.1025 268.919C95.5308 269.472 98.8249 275.177 96.5896 280.155L64.792 350.963C62.119 356.915 53.8282 357.337 50.5658 351.686L5.14286 273.011C1.88045 267.36 6.39062 260.391 12.8818 261.052L90.1025 268.919Z" fill="white" fill-opacity="0.1"/>
<path d="M979.102 212.919C984.53 213.472 987.824 219.177 985.589 224.155L953.791 294.963C951.118 300.915 942.827 301.337 939.565 295.686L894.142 217.011C890.88 211.36 895.39 204.391 901.881 205.052L979.102 212.919Z" fill="white" fill-opacity="0.1"/>
<path d="M1393.1 836.919C1398.53 837.472 1401.82 843.178 1399.59 848.155L1367.79 918.963C1365.12 924.916 1356.83 925.337 1353.56 919.686L1308.14 841.011C1304.88 835.361 1309.39 828.391 1315.88 829.053L1393.1 836.919Z" fill="white" fill-opacity="0.1"/>
<path d="M130.82 570.061L154.523 548.548C154.523 548.548 106.559 488.041 106.225 487.65C105.895 487.263 105.374 487.175 105.011 487.384C104.649 487.593 97.4724 491.058 97.4724 491.058C97.4724 491.058 89.9355 489.039 89.0629 488.865C88.8426 488.797 88.6509 488.814 88.4613 488.823L130.82 570.061ZM87.2168 489.353C87.1362 489.4 87.041 489.549 86.9705 489.589C86.8899 489.636 86.0494 490.517 84.7462 491.934C80.4736 488.232 75.1809 485.588 70.1862 488.471L69.7532 488.721C67.2487 487.744 65.0574 487.948 63.5318 488.829C51.8708 495.562 54.6889 513.349 57.2213 521.736C53.5295 525.713 50.8612 528.603 50.5679 528.967C48.4896 531.228 48.4648 531.336 49.5615 533.898C50.2745 535.796 73.1697 590.684 73.1697 590.684L129.629 570.836L87.2168 489.353ZM75.9961 500.558L76.2926 501.071C73.981 503.567 71.4079 506.308 68.9054 509.008C66.8016 501.341 68.1676 496.196 70.28 493.331C72.1052 494.795 73.9903 497.083 75.9961 500.558ZM64.9687 492.155C65.4722 491.864 66.0621 491.712 66.7908 491.788C64.1052 495.648 62.5942 502.414 66.0272 512.221C64.1039 514.337 62.1542 516.43 60.1787 518.498C58.2449 510.625 56.6408 496.963 64.9687 492.155ZM89.7018 530.32C89.7018 530.32 85.745 530.489 82.1299 532.577C76.6921 535.716 78.4407 539.245 78.9436 540.116C81.6209 544.753 94.839 539.532 101.156 550.473C106.133 559.092 103.875 567.74 96.4886 572.005C87.6472 577.109 79.9758 574.194 79.9758 574.194L77.85 564.989C77.85 564.989 84.7946 566.296 88.6967 564.043C89.1763 563.792 89.6003 563.446 89.9432 563.027C90.2862 562.608 90.5411 562.124 90.6927 561.604C90.8444 561.084 90.8896 560.539 90.8258 560.001C90.7619 559.463 90.5903 558.943 90.3211 558.473C86.8066 552.386 76.6357 557.862 70.8683 547.873C66.0166 539.47 67.3067 527.809 79.5518 520.739C84.2645 518.018 87.3662 518.053 87.3662 518.053L89.7018 530.32ZM73.1786 490.98C75.9611 489.776 79.342 491.772 82.3468 494.488C81.3007 495.676 80.0956 496.949 78.7952 498.371L78.2516 497.429C76.6208 494.605 74.9182 492.493 73.1786 490.98Z" fill="white" fill-opacity="0.1"/>
<path d="M502.82 452.061L526.523 430.548C526.523 430.548 478.559 370.041 478.225 369.65C477.895 369.263 477.374 369.175 477.011 369.384C476.649 369.593 469.472 373.058 469.472 373.058C469.472 373.058 461.936 371.039 461.063 370.865C460.843 370.797 460.651 370.814 460.461 370.823L502.82 452.061ZM459.217 371.353C459.136 371.4 459.041 371.549 458.971 371.589C458.89 371.636 458.049 372.517 456.746 373.934C452.474 370.232 447.181 367.588 442.186 370.471L441.753 370.721C439.249 369.744 437.057 369.948 435.532 370.829C423.871 377.562 426.689 395.349 429.221 403.736C425.53 407.713 422.861 410.603 422.568 410.967C420.49 413.228 420.465 413.336 421.562 415.898C422.275 417.796 445.17 472.684 445.17 472.684L501.629 452.836L459.217 371.353ZM447.996 382.558L448.293 383.071C445.981 385.567 443.408 388.308 440.905 391.008C438.802 383.341 440.168 378.196 442.28 375.331C444.105 376.795 445.99 379.083 447.996 382.558ZM436.969 374.155C437.472 373.864 438.062 373.712 438.791 373.788C436.105 377.648 434.594 384.414 438.027 394.221C436.104 396.337 434.154 398.43 432.179 400.498C430.245 392.625 428.641 378.963 436.969 374.155ZM461.702 412.32C461.702 412.32 457.745 412.489 454.13 414.577C448.692 417.716 450.441 421.245 450.944 422.116C453.621 426.753 466.839 421.532 473.156 432.473C478.133 441.092 475.875 449.74 468.489 454.005C459.647 459.109 451.976 456.194 451.976 456.194L449.85 446.989C449.85 446.989 456.795 448.296 460.697 446.043C461.176 445.792 461.6 445.446 461.943 445.027C462.286 444.608 462.541 444.124 462.693 443.604C462.844 443.084 462.89 442.539 462.826 442.001C462.762 441.463 462.59 440.943 462.321 440.473C458.807 434.386 448.636 439.862 442.868 429.873C438.017 421.47 439.307 409.809 451.552 402.739C456.264 400.018 459.366 400.053 459.366 400.053L461.702 412.32ZM445.179 372.98C447.961 371.776 451.342 373.772 454.347 376.488C453.301 377.676 452.096 378.949 450.795 380.371L450.252 379.429C448.621 376.605 446.918 374.493 445.179 372.98Z" fill="white" fill-opacity="0.1"/>
<path d="M484.82 863.061L508.523 841.548C508.523 841.548 460.559 781.041 460.225 780.65C459.895 780.263 459.374 780.175 459.011 780.384C458.649 780.593 451.472 784.059 451.472 784.059C451.472 784.059 443.936 782.039 443.063 781.865C442.843 781.797 442.651 781.814 442.461 781.823L484.82 863.061ZM441.217 782.353C441.136 782.4 441.041 782.549 440.971 782.59C440.89 782.636 440.049 783.517 438.746 784.934C434.474 781.232 429.181 778.588 424.186 781.471L423.753 781.721C421.249 780.744 419.057 780.948 417.532 781.829C405.871 788.562 408.689 806.35 411.221 814.736C407.53 818.713 404.861 821.603 404.568 821.967C402.49 824.228 402.465 824.336 403.562 826.899C404.275 828.796 427.17 883.684 427.17 883.684L483.629 863.836L441.217 782.353ZM429.996 793.558L430.293 794.071C427.981 796.567 425.408 799.308 422.905 802.009C420.802 794.341 422.168 789.196 424.28 786.331C426.105 787.795 427.99 790.084 429.996 793.558ZM418.969 785.155C419.472 784.864 420.062 784.712 420.791 784.788C418.105 788.648 416.594 795.414 420.027 805.221C418.104 807.338 416.154 809.43 414.179 811.498C412.245 803.625 410.641 789.963 418.969 785.155ZM443.702 823.32C443.702 823.32 439.745 823.49 436.13 825.577C430.692 828.716 432.441 832.245 432.944 833.116C435.621 837.753 448.839 832.532 455.156 843.473C460.133 852.093 457.875 860.74 450.489 865.005C441.647 870.109 433.976 867.194 433.976 867.194L431.85 857.989C431.85 857.989 438.795 859.297 442.697 857.044C443.176 856.792 443.6 856.446 443.943 856.027C444.286 855.608 444.541 855.124 444.693 854.604C444.844 854.084 444.89 853.539 444.826 853.001C444.762 852.463 444.59 851.944 444.321 851.474C440.807 845.386 430.636 850.862 424.868 840.873C420.017 832.47 421.307 820.809 433.552 813.739C438.264 811.018 441.366 811.054 441.366 811.054L443.702 823.32ZM427.179 783.98C429.961 782.776 433.342 784.772 436.347 787.488C435.301 788.676 434.096 789.949 432.795 791.371L432.252 790.43C430.621 787.605 428.918 785.493 427.179 783.98Z" fill="white" fill-opacity="0.1"/>
<path d="M878.82 401.061L902.523 379.548C902.523 379.548 854.559 319.041 854.225 318.65C853.895 318.263 853.374 318.175 853.011 318.384C852.649 318.593 845.472 322.058 845.472 322.058C845.472 322.058 837.936 320.039 837.063 319.865C836.843 319.797 836.651 319.814 836.461 319.823L878.82 401.061ZM835.217 320.353C835.136 320.4 835.041 320.549 834.971 320.589C834.89 320.636 834.049 321.517 832.746 322.934C828.474 319.232 823.181 316.588 818.186 319.471L817.753 319.721C815.249 318.744 813.057 318.948 811.532 319.829C799.871 326.562 802.689 344.349 805.221 352.736C801.53 356.713 798.861 359.603 798.568 359.967C796.49 362.228 796.465 362.336 797.562 364.898C798.275 366.796 821.17 421.684 821.17 421.684L877.629 401.836L835.217 320.353ZM823.996 331.558L824.293 332.071C821.981 334.567 819.408 337.308 816.905 340.008C814.802 332.341 816.168 327.196 818.28 324.331C820.105 325.795 821.99 328.083 823.996 331.558ZM812.969 323.155C813.472 322.864 814.062 322.712 814.791 322.788C812.105 326.648 810.594 333.414 814.027 343.221C812.104 345.337 810.154 347.43 808.179 349.498C806.245 341.625 804.641 327.963 812.969 323.155ZM837.702 361.32C837.702 361.32 833.745 361.489 830.13 363.577C824.692 366.716 826.441 370.245 826.944 371.116C829.621 375.753 842.839 370.532 849.156 381.473C854.133 390.092 851.875 398.74 844.489 403.005C835.647 408.109 827.976 405.194 827.976 405.194L825.85 395.989C825.85 395.989 832.795 397.296 836.697 395.043C837.176 394.792 837.6 394.446 837.943 394.027C838.286 393.608 838.541 393.124 838.693 392.604C838.844 392.084 838.89 391.539 838.826 391.001C838.762 390.463 838.59 389.943 838.321 389.473C834.807 383.386 824.636 388.862 818.868 378.873C814.017 370.47 815.307 358.809 827.552 351.739C832.264 349.018 835.366 349.053 835.366 349.053L837.702 361.32ZM821.179 321.98C823.961 320.776 827.342 322.772 830.347 325.488C829.301 326.676 828.096 327.949 826.795 329.371L826.252 328.429C824.621 325.605 822.918 323.493 821.179 321.98Z" fill="white" fill-opacity="0.1"/>
<g clip-path="url(#clip0_812_1329)">
<path d="M264.288 323.076C264.993 324.298 265.185 325.749 264.82 327.111C264.455 328.473 263.564 329.634 262.342 330.339C261.121 331.044 259.67 331.235 258.308 330.87C256.946 330.505 255.785 329.614 255.08 328.393C254.375 327.172 254.184 325.721 254.549 324.359C254.914 322.997 255.805 321.835 257.026 321.13C258.247 320.425 259.698 320.234 261.06 320.599C262.422 320.964 263.583 321.855 264.288 323.076ZM282.706 312.443C283.411 313.664 283.602 315.115 283.237 316.478C282.872 317.84 281.981 319.001 280.76 319.706C279.539 320.411 278.087 320.602 276.725 320.237C275.363 319.872 274.202 318.981 273.497 317.76C272.792 316.539 272.601 315.087 272.966 313.725C273.331 312.363 274.222 311.202 275.443 310.497C276.664 309.792 278.116 309.601 279.478 309.966C280.84 310.331 282.001 311.222 282.706 312.443ZM299.177 309.073C300.398 308.367 301.289 307.206 301.654 305.844C302.019 304.482 301.828 303.031 301.123 301.81C300.418 300.589 299.257 299.698 297.895 299.333C296.533 298.968 295.082 299.159 293.861 299.864C292.639 300.569 291.748 301.73 291.383 303.092C291.018 304.454 291.21 305.905 291.915 307.126C292.62 308.348 293.781 309.239 295.143 309.604C296.505 309.969 297.956 309.778 299.177 309.073Z" fill="white" fill-opacity="0.1"/>
<path d="M271.978 366.541L272.059 366.469C279.52 359.933 283.395 354.755 285.09 352.162C289.158 351.067 293.064 349.443 296.71 347.332C317.052 335.587 325.213 311.635 314.936 293.835C304.659 276.034 279.835 271.126 259.493 282.871C239.151 294.615 230.99 318.568 241.267 336.368C245.945 344.472 253.646 349.91 262.566 352.311C264.271 356.177 265.529 360.225 266.315 364.377L266.33 364.436C266.558 365.623 266.748 366.818 266.9 368.017C267.031 369.084 268.288 369.635 269.119 368.958C270.085 368.168 271.038 367.362 271.978 366.541ZM267.399 350.104C267.075 349.392 266.597 348.761 266.001 348.256C265.404 347.75 264.704 347.382 263.949 347.178C256.24 345.097 249.773 340.469 245.871 333.71C237.386 319.013 243.753 298.098 262.152 287.475C280.551 276.853 301.847 281.796 310.332 296.493C318.82 311.195 312.45 332.105 294.051 342.728C290.809 344.606 287.333 346.051 283.714 347.026C282.449 347.365 281.353 348.159 280.637 349.257C279.377 351.188 276.443 355.177 270.884 360.37C270.043 356.847 268.877 353.41 267.399 350.104Z" fill="white" fill-opacity="0.1"/>
</g>
<g clip-path="url(#clip1_812_1329)">
<path d="M696.288 851.077C696.993 852.298 697.184 853.749 696.819 855.111C696.454 856.473 695.563 857.634 694.342 858.339C693.121 859.044 691.67 859.235 690.308 858.87C688.946 858.505 687.784 857.614 687.079 856.393C686.374 855.172 686.183 853.721 686.548 852.359C686.913 850.997 687.804 849.836 689.025 849.13C690.247 848.425 691.698 848.234 693.06 848.599C694.422 848.964 695.583 849.855 696.288 851.077ZM714.705 840.443C715.411 841.664 715.602 843.116 715.237 844.478C714.872 845.84 713.981 847.001 712.759 847.706C711.538 848.411 710.087 848.602 708.725 848.237C707.363 847.872 706.202 846.981 705.497 845.76C704.792 844.539 704.601 843.088 704.966 841.725C705.331 840.363 706.222 839.202 707.443 838.497C708.664 837.792 710.115 837.601 711.477 837.966C712.839 838.331 714 839.222 714.705 840.443ZM731.177 837.073C732.398 836.368 733.289 835.206 733.654 833.844C734.019 832.482 733.828 831.031 733.123 829.81C732.418 828.589 731.257 827.698 729.895 827.333C728.533 826.968 727.081 827.159 725.86 827.864C724.639 828.569 723.748 829.73 723.383 831.092C723.018 832.454 723.209 833.905 723.914 835.127C724.619 836.348 725.78 837.239 727.143 837.604C728.505 837.969 729.956 837.778 731.177 837.073Z" fill="white" fill-opacity="0.1"/>
<path d="M703.978 894.541L704.059 894.469C711.52 887.933 715.395 882.755 717.09 880.162C721.158 879.067 725.064 877.443 728.71 875.332C749.052 863.587 757.213 839.635 746.936 821.835C736.659 804.034 711.835 799.126 691.493 810.871C671.151 822.615 662.99 846.568 673.267 864.368C677.945 872.472 685.646 877.91 694.566 880.311C696.271 884.177 697.529 888.225 698.315 892.377L698.33 892.436C698.558 893.623 698.748 894.818 698.9 896.017C699.031 897.084 700.288 897.635 701.119 896.958C702.085 896.168 703.038 895.362 703.978 894.541ZM699.399 878.104C699.075 877.392 698.597 876.761 698.001 876.256C697.404 875.75 696.704 875.382 695.949 875.178C688.24 873.097 681.773 868.469 677.871 861.71C669.386 847.013 675.753 826.098 694.152 815.475C712.551 804.853 733.847 809.796 742.332 824.493C750.82 839.195 744.45 860.105 726.051 870.728C722.809 872.606 719.333 874.051 715.714 875.026C714.449 875.365 713.353 876.159 712.637 877.257C711.377 879.188 708.443 883.177 702.884 888.37C702.043 884.847 700.877 881.41 699.399 878.104Z" fill="white" fill-opacity="0.1"/>
</g>
<g clip-path="url(#clip2_812_1329)">
<path d="M1160.29 357.077C1160.99 358.298 1161.18 359.749 1160.82 361.111C1160.45 362.473 1159.56 363.634 1158.34 364.339C1157.12 365.044 1155.67 365.235 1154.31 364.87C1152.95 364.505 1151.78 363.614 1151.08 362.393C1150.37 361.172 1150.18 359.721 1150.55 358.359C1150.91 356.997 1151.8 355.836 1153.03 355.13C1154.25 354.425 1155.7 354.234 1157.06 354.599C1158.42 354.964 1159.58 355.855 1160.29 357.077ZM1178.71 346.443C1179.41 347.664 1179.6 349.116 1179.24 350.478C1178.87 351.84 1177.98 353.001 1176.76 353.706C1175.54 354.411 1174.09 354.602 1172.73 354.237C1171.36 353.872 1170.2 352.981 1169.5 351.76C1168.79 350.539 1168.6 349.088 1168.97 347.725C1169.33 346.363 1170.22 345.202 1171.44 344.497C1172.66 343.792 1174.12 343.601 1175.48 343.966C1176.84 344.331 1178 345.222 1178.71 346.443ZM1195.18 343.073C1196.4 342.368 1197.29 341.206 1197.65 339.844C1198.02 338.482 1197.83 337.031 1197.12 335.81C1196.42 334.589 1195.26 333.698 1193.89 333.333C1192.53 332.968 1191.08 333.159 1189.86 333.864C1188.64 334.569 1187.75 335.73 1187.38 337.092C1187.02 338.454 1187.21 339.905 1187.91 341.127C1188.62 342.348 1189.78 343.239 1191.14 343.604C1192.5 343.969 1193.96 343.778 1195.18 343.073Z" fill="white" fill-opacity="0.1"/>
<path d="M1167.98 400.541L1168.06 400.469C1175.52 393.933 1179.39 388.755 1181.09 386.162C1185.16 385.067 1189.06 383.443 1192.71 381.332C1213.05 369.587 1221.21 345.635 1210.94 327.835C1200.66 310.034 1175.84 305.126 1155.49 316.871C1135.15 328.615 1126.99 352.568 1137.27 370.368C1141.95 378.472 1149.65 383.91 1158.57 386.311C1160.27 390.177 1161.53 394.225 1162.31 398.377L1162.33 398.436C1162.56 399.623 1162.75 400.818 1162.9 402.017C1163.03 403.084 1164.29 403.635 1165.12 402.958C1166.09 402.168 1167.04 401.362 1167.98 400.541ZM1163.4 384.104C1163.07 383.392 1162.6 382.761 1162 382.256C1161.4 381.75 1160.7 381.382 1159.95 381.178C1152.24 379.097 1145.77 374.469 1141.87 367.71C1133.39 353.013 1139.75 332.098 1158.15 321.475C1176.55 310.853 1197.85 315.796 1206.33 330.493C1214.82 345.195 1208.45 366.105 1190.05 376.728C1186.81 378.606 1183.33 380.051 1179.71 381.026C1178.45 381.365 1177.35 382.159 1176.64 383.257C1175.38 385.188 1172.44 389.177 1166.88 394.37C1166.04 390.847 1164.88 387.41 1163.4 384.104Z" fill="white" fill-opacity="0.1"/>
</g>
<g clip-path="url(#clip3_812_1329)">
<path d="M304.288 686.077C304.993 687.298 305.184 688.749 304.819 690.111C304.454 691.473 303.563 692.634 302.342 693.339C301.121 694.044 299.67 694.235 298.308 693.87C296.946 693.505 295.784 692.614 295.079 691.393C294.374 690.172 294.183 688.721 294.548 687.359C294.913 685.997 295.804 684.836 297.025 684.13C298.247 683.425 299.698 683.234 301.06 683.599C302.422 683.964 303.583 684.855 304.288 686.077ZM322.705 675.443C323.411 676.664 323.602 678.116 323.237 679.478C322.872 680.84 321.981 682.001 320.759 682.706C319.538 683.411 318.087 683.602 316.725 683.237C315.363 682.872 314.202 681.981 313.497 680.76C312.792 679.539 312.601 678.088 312.966 676.725C313.331 675.363 314.222 674.202 315.443 673.497C316.664 672.792 318.115 672.601 319.477 672.966C320.839 673.331 322 674.222 322.705 675.443ZM339.177 672.073C340.398 671.368 341.289 670.206 341.654 668.844C342.019 667.482 341.828 666.031 341.123 664.81C340.418 663.589 339.257 662.698 337.895 662.333C336.533 661.968 335.081 662.159 333.86 662.864C332.639 663.569 331.748 664.73 331.383 666.092C331.018 667.454 331.209 668.905 331.914 670.127C332.619 671.348 333.78 672.239 335.143 672.604C336.505 672.969 337.956 672.778 339.177 672.073Z" fill="white" fill-opacity="0.1"/>
<path d="M311.978 729.541L312.059 729.469C319.52 722.933 323.395 717.755 325.09 715.162C329.158 714.067 333.064 712.443 336.71 710.332C357.052 698.587 365.213 674.635 354.936 656.835C344.659 639.034 319.835 634.126 299.493 645.871C279.151 657.615 270.99 681.568 281.267 699.368C285.945 707.472 293.646 712.91 302.566 715.311C304.271 719.177 305.529 723.225 306.315 727.377L306.33 727.436C306.558 728.623 306.748 729.818 306.9 731.017C307.031 732.084 308.288 732.635 309.119 731.958C310.085 731.168 311.038 730.362 311.978 729.541ZM307.399 713.104C307.075 712.392 306.597 711.761 306.001 711.256C305.404 710.75 304.704 710.382 303.949 710.178C296.24 708.097 289.773 703.469 285.871 696.71C277.386 682.013 283.753 661.098 302.152 650.475C320.551 639.853 341.847 644.796 350.332 659.493C358.82 674.195 352.45 695.105 334.051 705.728C330.809 707.606 327.333 709.051 323.714 710.026C322.449 710.365 321.353 711.159 320.637 712.257C319.377 714.188 316.443 718.177 310.884 723.37C310.043 719.847 308.877 716.41 307.399 713.104Z" fill="white" fill-opacity="0.1"/>
</g>
<defs>
<linearGradient id="paint0_linear_812_1329" x1="0" y1="569" x2="1440" y2="569" gradientUnits="userSpaceOnUse">
<stop stop-color="#9C1C56"/>
<stop offset="1" stop-color="#3B051C"/>
</linearGradient>
<clipPath id="clip0_812_1329">
<rect width="85.0665" height="85.0665" fill="white" transform="translate(220 299.533) rotate(-30)"/>
</clipPath>
<clipPath id="clip1_812_1329">
<rect width="85.0665" height="85.0665" fill="white" transform="translate(652 827.533) rotate(-30)"/>
</clipPath>
<clipPath id="clip2_812_1329">
<rect width="85.0665" height="85.0665" fill="white" transform="translate(1116 333.533) rotate(-30)"/>
</clipPath>
<clipPath id="clip3_812_1329">
<rect width="85.0665" height="85.0665" fill="white" transform="translate(260 662.533) rotate(-30)"/>
</clipPath>
</defs>
</svg>
