<svg width="1440" height="733" viewBox="0 0 1440 733" fill="none" xmlns="http://www.w3.org/2000/svg">
<rect y="23" width="1440" height="676" fill="url(#paint0_linear_812_1566)"/>
<g clip-path="url(#clip0_812_1566)">
<path d="M590.483 520.646C584.276 517.723 583.821 510.05 587.251 504.109L627.204 526.873L627.466 480.891C634.326 480.891 640.744 485.121 640.171 491.959L636.087 531.933L653.16 541.664C655.309 538.356 658.608 535.963 662.419 534.946C666.231 533.93 670.283 534.364 673.794 536.163C677.304 537.962 680.023 540.999 681.424 544.686C682.824 548.373 682.808 552.449 681.378 556.125C679.947 559.801 677.205 562.816 673.68 564.587C670.155 566.358 666.099 566.759 662.296 565.712C658.493 564.666 655.213 562.246 653.091 558.921C650.969 555.596 650.155 551.602 650.807 547.712L635.185 540.698L633.446 557.728C637.141 559.108 640.193 561.81 642.011 565.31C643.829 568.811 644.285 572.861 643.29 576.678C642.295 580.495 639.92 583.807 636.624 585.974C633.328 588.141 629.345 589.009 625.447 588.41C621.548 587.81 618.01 585.787 615.517 582.73C613.024 579.673 611.753 575.8 611.95 571.86C612.148 567.921 613.799 564.194 616.585 561.402C619.37 558.609 623.093 556.949 627.032 556.742L627.144 537.096L590.483 520.646ZM636.16 567.887C634.892 565.69 632.804 564.088 630.354 563.431C627.904 562.775 625.294 563.119 623.098 564.387C620.902 565.655 619.299 567.743 618.642 570.193C617.986 572.643 618.33 575.253 619.598 577.449C620.866 579.646 622.954 581.248 625.404 581.905C627.854 582.561 630.464 582.217 632.66 580.949C634.857 579.681 636.459 577.593 637.116 575.143C637.772 572.693 637.429 570.083 636.16 567.887ZM674.807 545.574C673.539 543.378 671.45 541.775 669 541.119C666.551 540.462 663.941 540.806 661.744 542.074C659.548 543.342 657.945 545.431 657.289 547.88C656.632 550.33 656.976 552.94 658.244 555.137C659.512 557.333 661.601 558.936 664.051 559.592C666.5 560.249 669.11 559.905 671.307 558.637C673.503 557.369 675.106 555.28 675.762 552.83C676.419 550.381 676.075 547.771 674.807 545.574Z" fill="white" fill-opacity="0.1"/>
</g>
<g clip-path="url(#clip1_812_1566)">
<path d="M-6.51685 635.165C-12.7244 632.242 -13.1793 624.569 -9.74866 618.628L30.2039 641.392L30.4657 595.41C37.326 595.409 43.7434 599.64 43.1714 606.477L39.0873 646.451L56.1598 656.183C58.3086 652.875 61.6077 650.481 65.4191 649.465C69.2305 648.449 73.2833 648.882 76.7937 650.681C80.3041 652.48 83.0226 655.517 84.4235 659.204C85.8243 662.892 85.808 666.968 84.3777 670.644C82.9473 674.32 80.2045 677.335 76.6799 679.106C73.1552 680.877 69.099 681.277 65.2959 680.231C61.4928 679.184 58.2129 676.764 56.0907 673.439C53.9684 670.114 53.1546 666.12 53.8066 662.23L38.1854 655.216L36.4457 672.246C40.1408 673.627 43.1926 676.328 45.011 679.829C46.8294 683.329 47.2851 687.38 46.29 691.196C45.2948 695.013 42.9196 698.326 39.6237 700.493C36.3277 702.66 32.3453 703.528 28.4465 702.928C24.5478 702.329 21.0098 700.305 18.5169 697.248C16.024 694.191 14.7532 690.319 14.9504 686.379C15.1476 682.439 16.7987 678.713 19.5844 675.92C22.3702 673.128 26.0926 671.467 30.0317 671.26L30.1434 651.615L-6.51685 635.165ZM39.1604 682.405C37.8924 680.209 35.8037 678.606 33.354 677.95C30.9043 677.293 28.2942 677.637 26.0978 678.905C23.9015 680.173 22.2988 682.262 21.6424 684.712C20.986 687.161 21.3296 689.771 22.5977 691.968C23.8658 694.164 25.9544 695.767 28.4041 696.423C30.8538 697.08 33.464 696.736 35.6603 695.468C37.8567 694.2 39.4593 692.111 40.1157 689.661C40.7721 687.212 40.4285 684.602 39.1604 682.405ZM77.8068 660.093C76.5387 657.896 74.4501 656.294 72.0004 655.637C69.5507 654.981 66.9406 655.325 64.7442 656.593C62.5478 657.861 60.9452 659.949 60.2888 662.399C59.6324 664.849 59.976 667.459 61.2441 669.655C62.5121 671.852 64.6008 673.454 67.0505 674.111C69.5002 674.767 72.1103 674.423 74.3067 673.155C76.5031 671.887 78.1057 669.799 78.7621 667.349C79.4185 664.899 79.0749 662.289 77.8068 660.093Z" fill="white" fill-opacity="0.1"/>
</g>
<g clip-path="url(#clip2_812_1566)">
<path d="M-6.51685 59.1649C-12.7244 56.2415 -13.1793 48.5687 -9.74866 42.6277L30.2039 65.392L30.4657 19.41C37.326 19.4095 43.7434 23.6398 43.1714 30.4774L39.0873 70.4511L56.1598 80.1825C58.3086 76.8746 61.6077 74.4812 65.4191 73.465C69.2305 72.4488 73.2833 72.8821 76.7937 74.6812C80.3041 76.4802 83.0226 79.5171 84.4235 83.2045C85.8243 86.8918 85.808 90.9677 84.3777 94.6438C82.9473 98.3198 80.2045 101.335 76.6799 103.106C73.1552 104.877 69.099 105.277 65.2959 104.231C61.4928 103.184 58.2129 100.764 56.0907 97.4393C53.9684 94.1143 53.1546 90.1205 53.8066 86.2302L38.1854 79.2164L36.4457 96.2462C40.1408 97.6267 43.1926 100.328 45.011 103.829C46.8294 107.329 47.2851 111.38 46.29 115.196C45.2948 119.013 42.9196 122.326 39.6237 124.493C36.3277 126.66 32.3453 127.528 28.4465 126.928C24.5478 126.329 21.0098 124.305 18.5169 121.248C16.024 118.191 14.7532 114.319 14.9504 110.379C15.1476 106.439 16.7987 102.713 19.5844 99.9203C22.3702 97.1276 26.0926 95.4672 30.0317 95.2602L30.1434 75.6149L-6.51685 59.1649ZM39.1604 106.405C37.8924 104.209 35.8037 102.606 33.354 101.95C30.9043 101.293 28.2942 101.637 26.0978 102.905C23.9015 104.173 22.2988 106.262 21.6424 108.712C20.986 111.161 21.3296 113.771 22.5977 115.968C23.8658 118.164 25.9544 119.767 28.4041 120.423C30.8538 121.08 33.464 120.736 35.6603 119.468C37.8567 118.2 39.4593 116.111 40.1157 113.661C40.7721 111.212 40.4285 108.602 39.1604 106.405ZM77.8068 84.0927C76.5387 81.8964 74.4501 80.2937 72.0004 79.6373C69.5507 78.9809 66.9406 79.3246 64.7442 80.5926C62.5478 81.8607 60.9452 83.9493 60.2888 86.399C59.6324 88.8488 59.976 91.4589 61.2441 93.6552C62.5121 95.8516 64.6008 97.4543 67.0505 98.1107C69.5002 98.7671 72.1103 98.4234 74.3067 97.1554C76.5031 95.8873 78.1057 93.7987 78.7621 91.349C79.4185 88.8992 79.0749 86.2891 77.8068 84.0927Z" fill="white" fill-opacity="0.1"/>
</g>
<g clip-path="url(#clip3_812_1566)">
<path d="M436.483 198.165C430.276 195.242 429.821 187.569 433.251 181.628L473.204 204.392L473.466 158.41C480.326 158.409 486.744 162.64 486.171 169.477L482.087 209.451L499.16 219.183C501.309 215.875 504.608 213.481 508.419 212.465C512.231 211.449 516.283 211.882 519.794 213.681C523.304 215.48 526.023 218.517 527.424 222.204C528.824 225.892 528.808 229.968 527.378 233.644C525.947 237.32 523.205 240.335 519.68 242.106C516.155 243.877 512.099 244.277 508.296 243.231C504.493 242.184 501.213 239.764 499.091 236.439C496.969 233.114 496.155 229.12 496.807 225.23L481.185 218.216L479.446 235.246C483.141 236.627 486.193 239.328 488.011 242.829C489.829 246.329 490.285 250.38 489.29 254.196C488.295 258.013 485.92 261.326 482.624 263.493C479.328 265.66 475.345 266.528 471.447 265.928C467.548 265.329 464.01 263.305 461.517 260.248C459.024 257.191 457.753 253.319 457.95 249.379C458.148 245.439 459.799 241.713 462.585 238.92C465.37 236.128 469.093 234.467 473.032 234.26L473.144 214.615L436.483 198.165ZM482.16 245.405C480.892 243.209 478.804 241.606 476.354 240.95C473.904 240.293 471.294 240.637 469.098 241.905C466.902 243.173 465.299 245.262 464.642 247.712C463.986 250.161 464.33 252.771 465.598 254.968C466.866 257.164 468.954 258.767 471.404 259.423C473.854 260.08 476.464 259.736 478.66 258.468C480.857 257.2 482.459 255.111 483.116 252.661C483.772 250.212 483.429 247.602 482.16 245.405ZM520.807 223.093C519.539 220.896 517.45 219.294 515 218.637C512.551 217.981 509.941 218.325 507.744 219.593C505.548 220.861 503.945 222.949 503.289 225.399C502.632 227.849 502.976 230.459 504.244 232.655C505.512 234.852 507.601 236.454 510.051 237.111C512.5 237.767 515.11 237.423 517.307 236.155C519.503 234.887 521.106 232.799 521.762 230.349C522.419 227.899 522.075 225.289 520.807 223.093Z" fill="white" fill-opacity="0.1"/>
</g>
<g clip-path="url(#clip4_812_1566)">
<path d="M979.483 104.165C973.276 101.242 972.821 93.5687 976.251 87.6277L1016.2 110.392L1016.47 64.41C1023.33 64.4095 1029.74 68.6398 1029.17 75.4774L1025.09 115.451L1042.16 125.183C1044.31 121.875 1047.61 119.481 1051.42 118.465C1055.23 117.449 1059.28 117.882 1062.79 119.681C1066.3 121.48 1069.02 124.517 1070.42 128.204C1071.82 131.892 1071.81 135.968 1070.38 139.644C1068.95 143.32 1066.2 146.335 1062.68 148.106C1059.16 149.877 1055.1 150.277 1051.3 149.231C1047.49 148.184 1044.21 145.764 1042.09 142.439C1039.97 139.114 1039.15 135.12 1039.81 131.23L1024.19 124.216L1022.45 141.246C1026.14 142.627 1029.19 145.328 1031.01 148.829C1032.83 152.329 1033.29 156.38 1032.29 160.196C1031.29 164.013 1028.92 167.326 1025.62 169.493C1022.33 171.66 1018.35 172.528 1014.45 171.928C1010.55 171.329 1007.01 169.305 1004.52 166.248C1002.02 163.191 1000.75 159.319 1000.95 155.379C1001.15 151.439 1002.8 147.713 1005.58 144.92C1008.37 142.128 1012.09 140.467 1016.03 140.26L1016.14 120.615L979.483 104.165ZM1025.16 151.405C1023.89 149.209 1021.8 147.606 1019.35 146.95C1016.9 146.293 1014.29 146.637 1012.1 147.905C1009.9 149.173 1008.3 151.262 1007.64 153.712C1006.99 156.161 1007.33 158.771 1008.6 160.968C1009.87 163.164 1011.95 164.767 1014.4 165.423C1016.85 166.08 1019.46 165.736 1021.66 164.468C1023.86 163.2 1025.46 161.111 1026.12 158.661C1026.77 156.212 1026.43 153.602 1025.16 151.405ZM1063.81 129.093C1062.54 126.896 1060.45 125.294 1058 124.637C1055.55 123.981 1052.94 124.325 1050.74 125.593C1048.55 126.861 1046.95 128.949 1046.29 131.399C1045.63 133.849 1045.98 136.459 1047.24 138.655C1048.51 140.852 1050.6 142.454 1053.05 143.111C1055.5 143.767 1058.11 143.423 1060.31 142.155C1062.5 140.887 1064.11 138.799 1064.76 136.349C1065.42 133.899 1065.07 131.289 1063.81 129.093Z" fill="white" fill-opacity="0.1"/>
</g>
<g clip-path="url(#clip5_812_1566)">
<path d="M1369.48 432.165C1363.28 429.242 1362.82 421.569 1366.25 415.628L1406.2 438.392L1406.47 392.41C1413.33 392.409 1419.74 396.64 1419.17 403.477L1415.09 443.451L1432.16 453.183C1434.31 449.875 1437.61 447.481 1441.42 446.465C1445.23 445.449 1449.28 445.882 1452.79 447.681C1456.3 449.48 1459.02 452.517 1460.42 456.204C1461.82 459.892 1461.81 463.968 1460.38 467.644C1458.95 471.32 1456.2 474.335 1452.68 476.106C1449.16 477.877 1445.1 478.277 1441.3 477.231C1437.49 476.184 1434.21 473.764 1432.09 470.439C1429.97 467.114 1429.15 463.12 1429.81 459.23L1414.19 452.216L1412.45 469.246C1416.14 470.627 1419.19 473.328 1421.01 476.829C1422.83 480.329 1423.29 484.38 1422.29 488.196C1421.29 492.013 1418.92 495.326 1415.62 497.493C1412.33 499.66 1408.35 500.528 1404.45 499.928C1400.55 499.329 1397.01 497.305 1394.52 494.248C1392.02 491.191 1390.75 487.319 1390.95 483.379C1391.15 479.439 1392.8 475.713 1395.58 472.92C1398.37 470.128 1402.09 468.467 1406.03 468.26L1406.14 448.615L1369.48 432.165ZM1415.16 479.405C1413.89 477.209 1411.8 475.606 1409.35 474.95C1406.9 474.293 1404.29 474.637 1402.1 475.905C1399.9 477.173 1398.3 479.262 1397.64 481.712C1396.99 484.161 1397.33 486.771 1398.6 488.968C1399.87 491.164 1401.95 492.767 1404.4 493.423C1406.85 494.08 1409.46 493.736 1411.66 492.468C1413.86 491.2 1415.46 489.111 1416.12 486.661C1416.77 484.212 1416.43 481.602 1415.16 479.405ZM1453.81 457.093C1452.54 454.896 1450.45 453.294 1448 452.637C1445.55 451.981 1442.94 452.325 1440.74 453.593C1438.55 454.861 1436.95 456.949 1436.29 459.399C1435.63 461.849 1435.98 464.459 1437.24 466.655C1438.51 468.852 1440.6 470.454 1443.05 471.111C1445.5 471.767 1448.11 471.423 1450.31 470.155C1452.5 468.887 1454.11 466.799 1454.76 464.349C1455.42 461.899 1455.07 459.289 1453.81 457.093Z" fill="white" fill-opacity="0.1"/>
</g>
<g clip-path="url(#clip6_812_1566)">
<path d="M1380.44 49.2663L1350.72 66.4246C1347.59 68.2363 1345.24 71.1559 1344.14 74.6099C1343.05 78.064 1343.28 81.8028 1344.8 85.0919L1366.21 131.412C1367.06 133.243 1368.28 134.878 1369.79 136.212C1371.31 137.546 1373.08 138.55 1375 139.16C1376.93 139.77 1378.96 139.972 1380.96 139.755C1382.97 139.537 1384.9 138.904 1386.65 137.895L1424.38 116.115C1426.12 115.107 1427.64 113.745 1428.83 112.117C1430.02 110.489 1430.86 108.63 1431.3 106.66C1431.73 104.689 1431.75 102.65 1431.35 100.673C1430.95 98.6947 1430.15 96.8217 1428.98 95.1729L1399.57 53.4717C1397.48 50.51 1394.36 48.4364 1390.82 47.6583C1387.28 46.8802 1383.58 47.4537 1380.44 49.2663ZM1394.62 108.143C1388.12 111.9 1379.85 109.776 1376.17 103.407C1373.34 98.4947 1374.62 84.5289 1375.35 78.3967C1375.4 78.0471 1375.52 77.7121 1375.71 77.4185C1375.91 77.1248 1376.17 76.8804 1376.47 76.7047C1376.78 76.529 1377.12 76.4267 1377.47 76.4061C1377.82 76.3854 1378.18 76.4469 1378.5 76.5856C1384.18 79.0164 1396.91 84.8863 1399.75 89.7982C1403.43 96.1641 1401.13 104.386 1394.62 108.143ZM1401.19 20.0122L1387.77 16.4138C1384.05 15.4176 1380.09 15.9396 1376.75 17.8648L1363.64 25.4366C1362.68 23.7691 1361.09 22.5524 1359.23 22.054C1357.37 21.5557 1355.39 21.8166 1353.72 22.7793L1341.15 30.0392C1339.48 31.0019 1338.26 32.5876 1337.76 34.4474C1337.27 36.3073 1337.53 38.2889 1338.49 39.9564L1349.38 58.8181L1374.53 44.2983L1370.9 38.0111L1384.01 30.4393L1397.44 34.0358C1397.9 34.1592 1398.38 34.1907 1398.85 34.1285C1399.32 34.0663 1399.78 33.9116 1400.19 33.6732C1400.6 33.4348 1400.97 33.1175 1401.26 32.7392C1401.55 32.361 1401.76 31.9292 1401.88 31.4687L1403.76 24.4585C1403.88 23.998 1403.92 23.5177 1403.85 23.045C1403.79 22.5723 1403.64 22.1165 1403.4 21.7036C1403.16 21.2907 1402.84 20.9288 1402.46 20.6386C1402.09 20.3484 1401.65 20.1356 1401.19 20.0122Z" fill="white" fill-opacity="0.1"/>
</g>
<g clip-path="url(#clip7_812_1566)">
<path d="M1066.44 636.266L1036.72 653.425C1033.59 655.236 1031.24 658.156 1030.14 661.61C1029.05 665.064 1029.28 668.803 1030.8 672.092L1052.21 718.412C1053.06 720.243 1054.28 721.878 1055.79 723.212C1057.31 724.546 1059.08 725.55 1061 726.16C1062.93 726.77 1064.96 726.972 1066.96 726.755C1068.97 726.537 1070.9 725.904 1072.65 724.895L1110.38 703.115C1112.12 702.107 1113.64 700.745 1114.83 699.117C1116.02 697.489 1116.86 695.63 1117.3 693.66C1117.73 691.689 1117.75 689.65 1117.35 687.673C1116.95 685.695 1116.15 683.822 1114.98 682.173L1085.57 640.472C1083.48 637.51 1080.36 635.436 1076.82 634.658C1073.28 633.88 1069.58 634.454 1066.44 636.266ZM1080.62 695.143C1074.12 698.9 1065.85 696.776 1062.17 690.407C1059.34 685.495 1060.62 671.529 1061.35 665.397C1061.4 665.047 1061.52 664.712 1061.71 664.418C1061.91 664.125 1062.17 663.88 1062.47 663.705C1062.78 663.529 1063.12 663.427 1063.47 663.406C1063.82 663.385 1064.18 663.447 1064.5 663.586C1070.18 666.016 1082.91 671.886 1085.75 676.798C1089.43 683.164 1087.13 691.386 1080.62 695.143ZM1087.19 607.012L1073.77 603.414C1070.05 602.418 1066.09 602.94 1062.75 604.865L1049.64 612.437C1048.68 610.769 1047.09 609.552 1045.23 609.054C1043.37 608.556 1041.39 608.817 1039.72 609.779L1027.15 617.039C1025.48 618.002 1024.26 619.588 1023.76 621.447C1023.27 623.307 1023.53 625.289 1024.49 626.956L1035.38 645.818L1060.53 631.298L1056.9 625.011L1070.01 617.439L1083.44 621.036C1083.9 621.159 1084.38 621.191 1084.85 621.129C1085.32 621.066 1085.78 620.912 1086.19 620.673C1086.6 620.435 1086.97 620.117 1087.26 619.739C1087.55 619.361 1087.76 618.929 1087.88 618.469L1089.76 611.458C1089.88 610.998 1089.92 610.518 1089.85 610.045C1089.79 609.572 1089.64 609.117 1089.4 608.704C1089.16 608.291 1088.84 607.929 1088.46 607.639C1088.09 607.348 1087.65 607.136 1087.19 607.012Z" fill="white" fill-opacity="0.1"/>
</g>
<g clip-path="url(#clip8_812_1566)">
<path d="M806.444 308.266L776.725 325.425C773.587 327.236 771.239 330.156 770.144 333.61C769.049 337.064 769.284 340.803 770.805 344.092L792.214 390.412C793.06 392.243 794.279 393.878 795.793 395.212C797.306 396.546 799.081 397.55 801.004 398.16C802.927 398.77 804.956 398.972 806.961 398.755C808.967 398.537 810.905 397.904 812.652 396.895L850.376 375.115C852.123 374.107 853.641 372.745 854.832 371.117C856.024 369.489 856.863 367.63 857.297 365.66C857.73 363.689 857.748 361.65 857.35 359.673C856.951 357.695 856.145 355.822 854.982 354.173L825.572 312.472C823.484 309.51 820.363 307.436 816.824 306.658C813.285 305.88 809.582 306.454 806.444 308.266ZM820.624 367.143C814.117 370.9 805.849 368.776 802.171 362.407C799.335 357.495 800.624 343.529 801.354 337.397C801.397 337.047 801.52 336.712 801.714 336.418C801.909 336.125 802.169 335.88 802.474 335.705C802.779 335.529 803.121 335.427 803.473 335.406C803.825 335.385 804.176 335.447 804.5 335.586C810.181 338.016 822.915 343.886 825.751 348.798C829.426 355.164 827.131 363.386 820.624 367.143ZM827.194 279.012L813.77 275.414C810.051 274.418 806.088 274.94 802.754 276.865L789.639 284.437C788.676 282.769 787.091 281.552 785.231 281.054C783.371 280.556 781.389 280.817 779.722 281.779L767.148 289.039C765.48 290.002 764.263 291.588 763.765 293.447C763.267 295.307 763.527 297.289 764.49 298.956L775.38 317.818L800.529 303.298L796.899 297.011L810.014 289.439L823.436 293.036C823.897 293.159 824.377 293.191 824.85 293.129C825.322 293.066 825.778 292.912 826.191 292.673C826.604 292.435 826.966 292.117 827.256 291.739C827.546 291.361 827.759 290.929 827.882 290.469L829.761 283.458C829.884 282.998 829.916 282.518 829.854 282.045C829.791 281.572 829.637 281.117 829.398 280.704C829.16 280.291 828.843 279.929 828.464 279.639C828.086 279.348 827.654 279.136 827.194 279.012Z" fill="white" fill-opacity="0.1"/>
</g>
<g clip-path="url(#clip9_812_1566)">
<path d="M32.444 408.266L2.72496 425.425C-0.413221 427.236 -2.76059 430.156 -3.85603 433.61C-4.95147 437.064 -4.71582 440.803 -3.19536 444.092L18.214 490.412C19.0605 492.243 20.2793 493.878 21.7926 495.212C23.306 496.546 25.0807 497.55 27.0037 498.16C28.9266 498.77 30.9556 498.972 32.9611 498.755C34.9667 498.537 36.9049 497.904 38.6521 496.895L76.3756 475.115C78.1229 474.107 79.6408 472.745 80.8325 471.117C82.0242 469.489 82.8635 467.63 83.2969 465.66C83.7304 463.689 83.7484 461.65 83.3499 459.673C82.9514 457.695 82.145 455.822 80.9823 454.173L51.5725 412.472C49.484 409.51 46.3635 407.436 42.824 406.658C39.2846 405.88 35.5821 406.454 32.444 408.266ZM46.624 467.143C40.1167 470.9 31.8487 468.776 28.1711 462.407C25.3352 457.495 26.6243 443.529 27.354 437.397C27.3965 437.047 27.5199 436.712 27.7143 436.418C27.9088 436.125 28.1689 435.88 28.4741 435.705C28.7794 435.529 29.1213 435.427 29.4729 435.406C29.8246 435.385 30.1761 435.447 30.4999 435.586C36.1812 438.016 48.9146 443.886 51.7505 448.798C55.4258 455.164 53.1313 463.386 46.624 467.143ZM53.1938 379.012L39.7703 375.414C36.0511 374.418 32.0885 374.94 28.754 376.865L15.6392 384.437C14.6765 382.769 13.0908 381.552 11.2309 381.054C9.37111 380.556 7.38948 380.817 5.722 381.779L-6.8525 389.039C-8.51998 390.002 -9.73672 391.588 -10.2351 393.447C-10.7334 395.307 -10.4725 397.289 -9.5098 398.956L1.38003 417.818L26.529 403.298L22.8991 397.011L36.0139 389.439L49.4362 393.036C49.8967 393.159 50.377 393.191 50.8497 393.129C51.3224 393.066 51.7782 392.912 52.1911 392.673C52.6039 392.435 52.9658 392.117 53.256 391.739C53.5462 391.361 53.7591 390.929 53.8824 390.469L55.7608 383.458C55.8843 382.998 55.9158 382.518 55.8536 382.045C55.7914 381.572 55.6367 381.117 55.3983 380.704C55.1599 380.291 54.8425 379.929 54.4643 379.639C54.086 379.348 53.6543 379.136 53.1938 379.012Z" fill="white" fill-opacity="0.1"/>
</g>
<path d="M310.384 603.627C298.387 637.48 296.607 661.764 305.114 676.5C317.875 698.603 342.993 703.157 361.634 692.395C380.275 681.632 388.89 657.603 376.128 635.5C367.621 620.764 345.7 610.163 310.384 603.627ZM322.626 667.573C324.268 666.625 326.266 667.01 327.499 668.429C335.007 677.231 345.255 675.813 351.009 671.839C352.866 670.649 355.335 671.235 356.437 673.144C357.462 674.919 356.887 677.204 355.163 678.318C346.043 684.353 331.865 685.318 321.571 673.331C321.219 672.899 320.965 672.397 320.826 671.858C320.688 671.319 320.668 670.756 320.768 670.208C320.869 669.661 321.087 669.142 321.407 668.687C321.728 668.232 322.144 667.852 322.626 667.573Z" fill="white" fill-opacity="0.1"/>
<path d="M695.384 40.627C683.387 74.4797 681.607 98.7644 690.114 113.5C702.875 135.603 727.993 140.157 746.634 129.395C765.275 118.632 773.89 94.603 761.128 72.4998C752.621 57.7644 730.7 47.1635 695.384 40.627ZM707.626 104.573C709.268 103.625 711.266 104.01 712.499 105.429C720.007 114.231 730.255 112.813 736.009 108.839C737.866 107.649 740.335 108.235 741.437 110.144C742.462 111.919 741.887 114.204 740.163 115.318C731.043 121.353 716.865 122.318 706.571 110.331C706.219 109.899 705.965 109.397 705.826 108.858C705.688 108.319 705.668 107.756 705.768 107.208C705.869 106.661 706.087 106.142 706.407 105.687C706.728 105.232 707.144 104.852 707.626 104.573Z" fill="white" fill-opacity="0.1"/>
<defs>
<linearGradient id="paint0_linear_812_1566" x1="0" y1="361" x2="1440" y2="361" gradientUnits="userSpaceOnUse">
<stop stop-color="#FBD74D"/>
<stop offset="1" stop-color="#A88D00"/>
</linearGradient>
<clipPath id="clip0_812_1566">
<rect width="102" height="102" fill="white" transform="translate(560 512.481) rotate(-30)"/>
</clipPath>
<clipPath id="clip1_812_1566">
<rect width="102" height="102" fill="white" transform="translate(-37 627) rotate(-30)"/>
</clipPath>
<clipPath id="clip2_812_1566">
<rect width="102" height="102" fill="white" transform="translate(-37 51) rotate(-30)"/>
</clipPath>
<clipPath id="clip3_812_1566">
<rect width="102" height="102" fill="white" transform="translate(406 190) rotate(-30)"/>
</clipPath>
<clipPath id="clip4_812_1566">
<rect width="102" height="102" fill="white" transform="translate(949 96) rotate(-30)"/>
</clipPath>
<clipPath id="clip5_812_1566">
<rect width="102" height="102" fill="white" transform="translate(1339 424) rotate(-30)"/>
</clipPath>
<clipPath id="clip6_812_1566">
<rect width="87.1186" height="116.158" fill="white" transform="translate(1316 44.5596) rotate(-30)"/>
</clipPath>
<clipPath id="clip7_812_1566">
<rect width="87.1186" height="116.158" fill="white" transform="translate(1002 631.56) rotate(-30)"/>
</clipPath>
<clipPath id="clip8_812_1566">
<rect width="87.1186" height="116.158" fill="white" transform="translate(742 303.56) rotate(-30)"/>
</clipPath>
<clipPath id="clip9_812_1566">
<rect width="87.1186" height="116.158" fill="white" transform="translate(-32 403.56) rotate(-30)"/>
</clipPath>
</defs>
</svg>
