<svg width="211" height="225" viewBox="0 0 211 225" fill="none" xmlns="http://www.w3.org/2000/svg">
<g filter="url(#filter0_d_811_1013)">
<rect x="8" y="8.24902" width="194.792" height="209" rx="15.3396" fill="white" fill-opacity="0.1" shape-rendering="crispEdges"/>
</g>
<rect x="18.084" y="17.8743" width="174.625" height="187.458" rx="13.7195" fill="white"/>
<g filter="url(#filter1_d_811_1013)">
<rect x="35.0938" y="117.819" width="140.711" height="46.7509" rx="4.58342" fill="#FF9500"/>
</g>
<path d="M50.1052 129.956C50.1052 129.981 50.0954 130.003 50.0758 130.022C50.0612 130.037 50.0416 130.044 50.0172 130.044L47.5164 130.044C47.492 130.044 47.4798 130.056 47.4798 130.081L47.4798 131.452C47.4798 131.477 47.492 131.489 47.5164 131.489L49.1958 131.489C49.2203 131.489 49.2398 131.499 49.2545 131.518C49.274 131.533 49.2838 131.552 49.2838 131.577L49.2838 132.134C49.2838 132.159 49.274 132.181 49.2545 132.2C49.2398 132.215 49.2203 132.222 49.1958 132.222L47.5164 132.222C47.492 132.222 47.4798 132.234 47.4798 132.259L47.4798 133.674C47.4798 133.699 47.492 133.711 47.5164 133.711L50.0172 133.711C50.0416 133.711 50.0612 133.721 50.0758 133.74C50.0954 133.755 50.1052 133.774 50.1052 133.799L50.1052 134.356C50.1052 134.381 50.0954 134.403 50.0758 134.422C50.0612 134.437 50.0416 134.444 50.0172 134.444L46.7171 134.444C46.6926 134.444 46.6706 134.437 46.6511 134.422C46.6364 134.403 46.6291 134.381 46.6291 134.356L46.6291 129.399C46.6291 129.374 46.6364 129.355 46.6511 129.34C46.6706 129.321 46.6926 129.311 46.7171 129.311L50.0172 129.311C50.0416 129.311 50.0612 129.321 50.0758 129.34C50.0954 129.355 50.1052 129.374 50.1052 129.399L50.1052 129.956ZM51.2055 134.444C51.1811 134.444 51.1591 134.437 51.1395 134.422C51.1249 134.403 51.1175 134.381 51.1175 134.356L51.1175 129.399C51.1175 129.374 51.1249 129.355 51.1395 129.34C51.1591 129.321 51.1811 129.311 51.2055 129.311L51.8802 129.311C51.9046 129.311 51.9242 129.321 51.9389 129.34C51.9584 129.355 51.9682 129.374 51.9682 129.399L51.9682 134.356C51.9682 134.381 51.9584 134.403 51.9389 134.422C51.9242 134.437 51.9046 134.444 51.8802 134.444L51.2055 134.444ZM56.2767 131.665C56.3647 131.914 56.4087 132.22 56.4087 132.582C56.4087 132.929 56.3671 133.227 56.284 133.476C56.1764 133.799 56.0029 134.051 55.7633 134.232C55.5287 134.412 55.2304 134.503 54.8686 134.503C54.5215 134.503 54.2429 134.378 54.0326 134.129C54.0229 134.119 54.0131 134.117 54.0033 134.122C53.9935 134.126 53.9886 134.136 53.9886 134.151L53.9886 135.742C53.9886 135.767 53.9789 135.786 53.9593 135.801C53.9446 135.82 53.9251 135.83 53.9006 135.83L53.2259 135.83C53.2015 135.83 53.1795 135.82 53.1599 135.801C53.1453 135.786 53.1379 135.767 53.1379 135.742L53.1379 130.785C53.1379 130.76 53.1453 130.741 53.1599 130.726C53.1795 130.707 53.2015 130.697 53.2259 130.697L53.9006 130.697C53.9251 130.697 53.9446 130.707 53.9593 130.726C53.9789 130.741 53.9886 130.76 53.9886 130.785L53.9886 131.005C53.9886 131.019 53.9935 131.029 54.0033 131.034C54.0131 131.039 54.0229 131.034 54.0326 131.019C54.2477 130.765 54.5289 130.638 54.876 130.638C55.2231 130.638 55.5164 130.729 55.756 130.909C55.9956 131.09 56.1691 131.342 56.2767 131.665ZM55.3233 133.462C55.47 133.237 55.5433 132.938 55.5433 132.567C55.5433 132.21 55.4847 131.929 55.3673 131.723C55.2304 131.484 55.0226 131.364 54.744 131.364C54.4897 131.364 54.2991 131.481 54.172 131.716C54.0595 131.907 54.0033 132.19 54.0033 132.567C54.0033 132.953 54.0644 133.246 54.1866 133.447C54.3137 133.662 54.4971 133.77 54.7366 133.77C54.9958 133.77 55.1913 133.667 55.3233 133.462ZM58.8927 130.638C59.2007 130.638 59.4721 130.692 59.7067 130.799C59.9414 130.907 60.1223 131.056 60.2494 131.247C60.3765 131.433 60.4401 131.645 60.4401 131.885L60.4401 134.356C60.4401 134.381 60.4303 134.403 60.4107 134.422C60.3961 134.437 60.3765 134.444 60.3521 134.444L59.6774 134.444C59.653 134.444 59.6309 134.437 59.6114 134.422C59.5967 134.403 59.5894 134.381 59.5894 134.356L59.5894 134.122C59.5894 134.107 59.5845 134.1 59.5747 134.1C59.5649 134.095 59.5552 134.097 59.5454 134.107C59.3058 134.371 58.9587 134.503 58.504 134.503C58.1374 134.503 57.8343 134.41 57.5947 134.224C57.36 134.038 57.2427 133.762 57.2427 133.396C57.2427 133.014 57.3747 132.718 57.6387 132.508C57.9076 132.293 58.284 132.186 58.768 132.186L59.5527 132.186C59.5772 132.186 59.5894 132.173 59.5894 132.149L59.5894 131.973C59.5894 131.782 59.5332 131.635 59.4207 131.533C59.3083 131.425 59.1396 131.371 58.9147 131.371C58.7289 131.371 58.5774 131.406 58.46 131.474C58.3476 131.538 58.2767 131.628 58.2474 131.745C58.2327 131.804 58.1985 131.829 58.1447 131.819L57.4334 131.731C57.4089 131.726 57.3869 131.719 57.3674 131.709C57.3527 131.694 57.3478 131.677 57.3527 131.657C57.3918 131.359 57.5507 131.115 57.8294 130.924C58.1129 130.733 58.4674 130.638 58.8927 130.638ZM58.7167 133.828C58.9563 133.828 59.1616 133.765 59.3327 133.638C59.5038 133.51 59.5894 133.349 59.5894 133.154L59.5894 132.809C59.5894 132.784 59.5772 132.772 59.5527 132.772L58.9367 132.772C58.6776 132.772 58.4723 132.821 58.3207 132.919C58.174 133.017 58.1007 133.156 58.1007 133.337C58.1007 133.493 58.1569 133.616 58.2694 133.704C58.3867 133.787 58.5358 133.828 58.7167 133.828ZM62.9167 134.488C62.6087 134.488 62.3373 134.444 62.1027 134.356C61.8729 134.263 61.6944 134.139 61.5673 133.982C61.4402 133.821 61.3766 133.642 61.3766 133.447L61.3766 133.381C61.3766 133.356 61.384 133.337 61.3986 133.322C61.4182 133.303 61.4402 133.293 61.4646 133.293L62.11 133.293C62.1344 133.293 62.154 133.303 62.1687 133.322C62.1882 133.337 62.198 133.356 62.198 133.381L62.198 133.396C62.198 133.518 62.264 133.625 62.396 133.718C62.5329 133.806 62.704 133.85 62.9093 133.85C63.1049 133.85 63.2638 133.811 63.386 133.733C63.5082 133.65 63.5693 133.547 63.5693 133.425C63.5693 133.312 63.518 133.229 63.4153 133.176C63.3176 133.117 63.1562 133.056 62.9313 132.992L62.6527 132.904C62.4033 132.831 62.1931 132.753 62.022 132.67C61.8509 132.586 61.7066 132.474 61.5893 132.332C61.472 132.186 61.4133 132 61.4133 131.775C61.4133 131.433 61.5478 131.161 61.8166 130.961C62.0855 130.755 62.44 130.653 62.88 130.653C63.1782 130.653 63.4398 130.702 63.6647 130.799C63.8896 130.892 64.0631 131.024 64.1854 131.195C64.3076 131.362 64.3687 131.552 64.3687 131.767C64.3687 131.792 64.3589 131.814 64.3394 131.833C64.3247 131.848 64.3051 131.855 64.2807 131.855L63.6573 131.855C63.6329 131.855 63.6109 131.848 63.5913 131.833C63.5767 131.814 63.5693 131.792 63.5693 131.767C63.5693 131.64 63.5058 131.535 63.3787 131.452C63.2565 131.364 63.0878 131.32 62.8727 131.32C62.682 131.32 62.5255 131.357 62.4033 131.43C62.286 131.499 62.2273 131.596 62.2273 131.723C62.2273 131.841 62.2835 131.931 62.396 131.995C62.5133 132.054 62.7064 132.12 62.9753 132.193L63.1367 132.237C63.3958 132.315 63.6133 132.396 63.7894 132.479C63.9654 132.557 64.1145 132.67 64.2367 132.816C64.3589 132.958 64.42 133.144 64.42 133.374C64.42 133.721 64.2831 133.994 64.0094 134.195C63.7356 134.39 63.3713 134.488 62.9167 134.488ZM68.5298 132.149C68.5494 132.271 68.5591 132.408 68.5591 132.56L68.5518 132.787C68.5518 132.846 68.5225 132.875 68.4638 132.875L66.1684 132.875C66.144 132.875 66.1318 132.887 66.1318 132.912C66.1464 133.073 66.1684 133.183 66.1978 133.242C66.3151 133.594 66.6011 133.772 67.0558 133.777C67.3882 133.777 67.6522 133.64 67.8478 133.366C67.8674 133.337 67.8918 133.322 67.9211 133.322C67.9407 133.322 67.9578 133.33 67.9725 133.344L68.4271 133.718C68.4711 133.752 68.4785 133.792 68.4491 133.836C68.2976 134.051 68.0947 134.217 67.8405 134.334C67.5911 134.452 67.3125 134.51 67.0044 134.51C66.6231 134.51 66.298 134.425 66.0291 134.254C65.7651 134.082 65.572 133.843 65.4498 133.535C65.3373 133.271 65.2811 132.904 65.2811 132.435C65.2811 132.151 65.3104 131.922 65.3691 131.745C65.4669 131.403 65.6502 131.134 65.9191 130.939C66.1929 130.738 66.5204 130.638 66.9018 130.638C67.8649 130.638 68.4076 131.142 68.5298 132.149ZM66.9018 131.371C66.7209 131.371 66.5693 131.418 66.4471 131.511C66.3298 131.599 66.2467 131.723 66.1978 131.885C66.1684 131.968 66.1489 132.076 66.1391 132.208C66.1293 132.232 66.1391 132.244 66.1684 132.244L67.6571 132.244C67.6816 132.244 67.6938 132.232 67.6938 132.208C67.684 132.085 67.6693 131.992 67.6498 131.929C67.6058 131.753 67.5178 131.616 67.3858 131.518C67.2587 131.42 67.0973 131.371 66.9018 131.371ZM71.8905 129.399C71.8905 129.374 71.8978 129.355 71.9125 129.34C71.932 129.321 71.954 129.311 71.9785 129.311L72.6532 129.311C72.6776 129.311 72.6972 129.321 72.7118 129.34C72.7314 129.355 72.7412 129.374 72.7412 129.399L72.7412 134.356C72.7412 134.381 72.7314 134.403 72.7118 134.422C72.6972 134.437 72.6776 134.444 72.6532 134.444L71.9785 134.444C71.954 134.444 71.932 134.437 71.9125 134.422C71.8978 134.403 71.8905 134.381 71.8905 134.356L71.8905 134.136C71.8905 134.122 71.8856 134.112 71.8758 134.107C71.866 134.102 71.8563 134.107 71.8465 134.122C71.6314 134.376 71.3503 134.503 71.0031 134.503C70.656 134.503 70.3627 134.412 70.1231 134.232C69.8836 134.051 69.71 133.799 69.6024 133.476C69.5144 133.202 69.4704 132.897 69.4704 132.56C69.4704 132.212 69.512 131.914 69.5951 131.665C69.7027 131.342 69.8762 131.09 70.1158 130.909C70.3553 130.729 70.656 130.638 71.0178 130.638C71.3551 130.638 71.6314 130.76 71.8465 131.005C71.8563 131.015 71.866 131.019 71.8758 131.019C71.8856 131.015 71.8905 131.005 71.8905 130.99L71.8905 129.399ZM71.7145 133.418C71.8269 133.217 71.8832 132.934 71.8832 132.567C71.8832 132.186 71.822 131.895 71.6998 131.694C71.5678 131.479 71.382 131.371 71.1425 131.371C70.8931 131.371 70.6976 131.474 70.5558 131.679C70.4091 131.895 70.3358 132.193 70.3358 132.574C70.3358 132.916 70.3945 133.198 70.5118 133.418C70.6487 133.652 70.8565 133.77 71.1351 133.77C71.3845 133.77 71.5776 133.652 71.7145 133.418ZM79.0427 129.311C79.0672 129.311 79.0867 129.321 79.1014 129.34C79.121 129.355 79.1307 129.374 79.1307 129.399L79.1307 129.963C79.1307 129.988 79.121 130.01 79.1014 130.029C79.0867 130.044 79.0672 130.051 79.0427 130.051L77.6934 130.051C77.6689 130.051 77.6567 130.064 77.6567 130.088L77.6567 134.356C77.6567 134.381 77.6469 134.403 77.6274 134.422C77.6127 134.437 77.5932 134.444 77.5687 134.444L76.894 134.444C76.8696 134.444 76.8476 134.437 76.828 134.422C76.8134 134.403 76.806 134.381 76.806 134.356L76.806 130.088C76.806 130.064 76.7938 130.051 76.7694 130.051L75.4713 130.051C75.4469 130.051 75.4249 130.044 75.4053 130.029C75.3907 130.01 75.3833 129.988 75.3833 129.963L75.3833 129.399C75.3833 129.374 75.3907 129.355 75.4053 129.34C75.4249 129.321 75.4469 129.311 75.4713 129.311L79.0427 129.311ZM80.4842 130.183C80.3327 130.183 80.208 130.135 80.1102 130.037C80.0124 129.939 79.9635 129.814 79.9635 129.663C79.9635 129.511 80.0124 129.387 80.1102 129.289C80.208 129.191 80.3327 129.142 80.4842 129.142C80.6358 129.142 80.7604 129.191 80.8582 129.289C80.956 129.387 81.0049 129.511 81.0049 129.663C81.0049 129.814 80.956 129.939 80.8582 130.037C80.7604 130.135 80.6358 130.183 80.4842 130.183ZM80.1322 134.444C80.1078 134.444 80.0858 134.437 80.0662 134.422C80.0515 134.403 80.0442 134.381 80.0442 134.356L80.0442 130.777C80.0442 130.753 80.0515 130.733 80.0662 130.719C80.0858 130.699 80.1078 130.689 80.1322 130.689L80.8069 130.689C80.8313 130.689 80.8509 130.699 80.8656 130.719C80.8851 130.733 80.8949 130.753 80.8949 130.777L80.8949 134.356C80.8949 134.381 80.8851 134.403 80.8656 134.422C80.8509 134.437 80.8313 134.444 80.8069 134.444L80.1322 134.444ZM86.11 130.638C86.4864 130.638 86.7798 130.753 86.99 130.983C87.2051 131.208 87.3127 131.523 87.3127 131.929L87.3127 134.356C87.3127 134.381 87.3029 134.403 87.2833 134.422C87.2687 134.437 87.2491 134.444 87.2247 134.444L86.5573 134.444C86.5329 134.444 86.5109 134.437 86.4913 134.422C86.4766 134.403 86.4693 134.381 86.4693 134.356L86.4693 132.105C86.4693 131.88 86.4082 131.701 86.286 131.569C86.1686 131.437 86.0097 131.371 85.8093 131.371C85.6088 131.371 85.4451 131.437 85.318 131.569C85.1908 131.701 85.1273 131.878 85.1273 132.098L85.1273 134.356C85.1273 134.381 85.1175 134.403 85.0979 134.422C85.0833 134.437 85.0637 134.444 85.0393 134.444L84.3719 134.444C84.3475 134.444 84.3255 134.437 84.3059 134.422C84.2913 134.403 84.2839 134.381 84.2839 134.356L84.2839 132.105C84.2839 131.88 84.2228 131.701 84.1006 131.569C83.9784 131.437 83.817 131.371 83.6166 131.371C83.4308 131.371 83.2768 131.425 83.1546 131.533C83.0372 131.64 82.9688 131.787 82.9492 131.973L82.9492 134.356C82.9492 134.381 82.9395 134.403 82.9199 134.422C82.9052 134.437 82.8857 134.444 82.8612 134.444L82.1866 134.444C82.1621 134.444 82.1401 134.437 82.1206 134.422C82.1059 134.403 82.0986 134.381 82.0986 134.356L82.0986 130.785C82.0986 130.76 82.1059 130.741 82.1206 130.726C82.1401 130.707 82.1621 130.697 82.1866 130.697L82.8612 130.697C82.8857 130.697 82.9052 130.707 82.9199 130.726C82.9395 130.741 82.9492 130.76 82.9492 130.785L82.9492 131.027C82.9492 131.041 82.9541 131.051 82.9639 131.056C82.9737 131.061 82.9835 131.056 82.9932 131.041C83.1008 130.905 83.2328 130.804 83.3892 130.741C83.5506 130.672 83.729 130.638 83.9246 130.638C84.1642 130.638 84.3744 130.687 84.5553 130.785C84.7362 130.883 84.8755 131.024 84.9733 131.21C84.9879 131.23 85.0051 131.23 85.0246 131.21C85.1322 131.015 85.2813 130.87 85.472 130.777C85.6626 130.685 85.8753 130.638 86.11 130.638ZM91.54 132.149C91.5596 132.271 91.5693 132.408 91.5693 132.56L91.562 132.787C91.562 132.846 91.5327 132.875 91.474 132.875L89.1786 132.875C89.1542 132.875 89.142 132.887 89.142 132.912C89.1566 133.073 89.1786 133.183 89.208 133.242C89.3253 133.594 89.6113 133.772 90.066 133.777C90.3984 133.777 90.6624 133.64 90.858 133.366C90.8775 133.337 90.902 133.322 90.9313 133.322C90.9509 133.322 90.968 133.33 90.9827 133.344L91.4373 133.718C91.4813 133.752 91.4887 133.792 91.4593 133.836C91.3078 134.051 91.1049 134.217 90.8506 134.334C90.6013 134.452 90.3226 134.51 90.0146 134.51C89.6333 134.51 89.3082 134.425 89.0393 134.254C88.7753 134.082 88.5822 133.843 88.4599 133.535C88.3475 133.271 88.2913 132.904 88.2913 132.435C88.2913 132.151 88.3206 131.922 88.3793 131.745C88.477 131.403 88.6604 131.134 88.9293 130.939C89.2031 130.738 89.5306 130.638 89.912 130.638C90.8751 130.638 91.4178 131.142 91.54 132.149ZM89.912 131.371C89.7311 131.371 89.5795 131.418 89.4573 131.511C89.34 131.599 89.2568 131.723 89.208 131.885C89.1786 131.968 89.1591 132.076 89.1493 132.208C89.1395 132.232 89.1493 132.244 89.1786 132.244L90.6673 132.244C90.6918 132.244 90.704 132.232 90.704 132.208C90.6942 132.085 90.6795 131.992 90.66 131.929C90.616 131.753 90.528 131.616 90.396 131.518C90.2689 131.42 90.1075 131.371 89.912 131.371Z" fill="white"/>
<path d="M53.6014 148.25C53.6472 148.25 53.6839 148.269 53.7114 148.305C53.7481 148.333 53.7664 148.37 53.7664 148.415L53.7664 149.804C53.7664 149.85 53.7481 149.891 53.7114 149.928C53.6839 149.955 53.6472 149.969 53.6014 149.969L53.0101 149.969C52.9643 149.969 52.9414 149.992 52.9414 150.038L52.9414 152.279C52.9414 152.325 52.923 152.366 52.8864 152.403C52.8589 152.43 52.8222 152.444 52.7764 152.444L51.1676 152.444C51.1218 152.444 51.0805 152.43 51.0438 152.403C51.0163 152.366 51.0026 152.325 51.0026 152.279L51.0026 150.038C51.0026 149.992 50.9797 149.969 50.9338 149.969L46.7125 149.969C46.6667 149.969 46.6254 149.955 46.5888 149.928C46.5613 149.891 46.5475 149.85 46.5475 149.804L46.5475 148.704C46.5475 148.649 46.5613 148.58 46.5888 148.498L49.0638 142.943C49.1005 142.86 49.1646 142.819 49.2563 142.819L50.9751 142.819C51.0393 142.819 51.0805 142.837 51.0988 142.874C51.1263 142.902 51.1263 142.947 51.0988 143.012L48.8025 148.168C48.7934 148.186 48.7934 148.205 48.8025 148.223C48.8117 148.241 48.8255 148.25 48.8438 148.25L50.9338 148.25C50.9797 148.25 51.0026 148.227 51.0026 148.182L51.0026 146.477C51.0026 146.431 51.0163 146.394 51.0438 146.367C51.0805 146.33 51.1218 146.312 51.1676 146.312L52.7764 146.312C52.8222 146.312 52.8589 146.33 52.8864 146.367C52.923 146.394 52.9414 146.431 52.9414 146.477L52.9414 148.182C52.9414 148.227 52.9643 148.25 53.0101 148.25L53.6014 148.25ZM63.584 142.984C63.584 142.938 63.5978 142.902 63.6253 142.874C63.6619 142.837 63.7032 142.819 63.749 142.819L65.3578 142.819C65.4036 142.819 65.4403 142.837 65.4678 142.874C65.5045 142.902 65.5228 142.938 65.5228 142.984L65.5228 152.279C65.5228 152.325 65.5045 152.366 65.4678 152.403C65.4403 152.43 65.4036 152.444 65.3578 152.444L63.749 152.444C63.7032 152.444 63.6619 152.43 63.6253 152.403C63.5978 152.366 63.584 152.325 63.584 152.279L63.584 148.484C63.584 148.438 63.5611 148.415 63.5153 148.415L60.4765 148.415C60.4306 148.415 60.4077 148.438 60.4077 148.484L60.4077 152.279C60.4077 152.325 60.3894 152.366 60.3527 152.403C60.3252 152.43 60.2886 152.444 60.2427 152.444L58.6339 152.444C58.5881 152.444 58.5469 152.43 58.5102 152.403C58.4827 152.366 58.4689 152.325 58.4689 152.279L58.4689 142.984C58.4689 142.938 58.4827 142.902 58.5102 142.874C58.5469 142.837 58.5881 142.819 58.6339 142.819L60.2427 142.819C60.2886 142.819 60.3252 142.837 60.3527 142.874C60.3894 142.902 60.4077 142.938 60.4077 142.984L60.4077 146.683C60.4077 146.729 60.4306 146.752 60.4765 146.752L63.5153 146.752C63.5611 146.752 63.584 146.729 63.584 146.683L63.584 142.984ZM70.3299 152.554C69.5598 152.554 68.8998 152.353 68.3498 151.949C67.7998 151.546 67.424 150.996 67.2223 150.299C67.094 149.868 67.0298 149.401 67.0298 148.897C67.0298 148.356 67.094 147.87 67.2223 147.439C67.4331 146.761 67.8136 146.229 68.3636 145.844C68.9136 145.459 69.5736 145.267 70.3436 145.267C71.0953 145.267 71.737 145.459 72.2686 145.844C72.8003 146.22 73.1762 146.747 73.3962 147.425C73.5428 147.884 73.6162 148.365 73.6162 148.869C73.6162 149.364 73.552 149.827 73.4237 150.258C73.222 150.973 72.8461 151.537 72.2961 151.949C71.7553 152.353 71.0999 152.554 70.3299 152.554ZM70.3299 150.89C70.6324 150.89 70.889 150.799 71.0999 150.615C71.3107 150.432 71.462 150.18 71.5536 149.859C71.627 149.566 71.6636 149.245 71.6636 148.897C71.6636 148.512 71.627 148.186 71.5536 147.92C71.4528 147.609 71.297 147.366 71.0861 147.192C70.8753 147.017 70.6186 146.93 70.3161 146.93C70.0044 146.93 69.7432 147.017 69.5323 147.192C69.3307 147.366 69.184 147.609 69.0923 147.92C69.019 148.14 68.9823 148.466 68.9823 148.897C68.9823 149.309 69.0144 149.63 69.0786 149.859C69.1702 150.18 69.3215 150.432 69.5323 150.615C69.7523 150.799 70.0182 150.89 70.3299 150.89ZM79.2167 145.542C79.2167 145.496 79.2305 145.459 79.258 145.432C79.2947 145.395 79.3359 145.377 79.3817 145.377L80.9905 145.377C81.0364 145.377 81.073 145.395 81.1005 145.432C81.1372 145.459 81.1555 145.496 81.1555 145.542L81.1555 152.279C81.1555 152.325 81.1372 152.366 81.1005 152.403C81.073 152.43 81.0364 152.444 80.9905 152.444L79.3817 152.444C79.3359 152.444 79.2947 152.43 79.258 152.403C79.2305 152.366 79.2167 152.325 79.2167 152.279L79.2167 151.812C79.2167 151.784 79.2076 151.77 79.1892 151.77C79.1709 151.761 79.1526 151.77 79.1342 151.798C78.7676 152.293 78.1992 152.54 77.4292 152.54C76.7325 152.54 76.1596 152.33 75.7104 151.908C75.2613 151.486 75.0367 150.895 75.0367 150.134L75.0367 145.542C75.0367 145.496 75.0504 145.459 75.0779 145.432C75.1146 145.395 75.1558 145.377 75.2017 145.377L76.7967 145.377C76.8425 145.377 76.8792 145.395 76.9067 145.432C76.9434 145.459 76.9617 145.496 76.9617 145.542L76.9617 149.653C76.9617 150.02 77.058 150.318 77.2505 150.547C77.4521 150.776 77.7271 150.89 78.0755 150.89C78.3871 150.89 78.6438 150.799 78.8455 150.615C79.0472 150.423 79.1709 150.175 79.2167 149.873L79.2167 145.542ZM86.3337 145.28C86.6637 145.28 86.925 145.345 87.1175 145.473C87.1908 145.51 87.2183 145.578 87.2 145.679L86.9112 147.247C86.9021 147.357 86.8379 147.389 86.7187 147.343C86.5812 147.297 86.4208 147.274 86.2375 147.274C86.1641 147.274 86.0633 147.283 85.935 147.302C85.6049 147.329 85.3254 147.453 85.0962 147.673C84.867 147.884 84.7524 148.168 84.7524 148.525L84.7524 152.279C84.7524 152.325 84.7341 152.366 84.6974 152.403C84.6699 152.43 84.6333 152.444 84.5874 152.444L82.9786 152.444C82.9328 152.444 82.8916 152.43 82.8549 152.403C82.8274 152.366 82.8136 152.325 82.8136 152.279L82.8136 145.542C82.8136 145.496 82.8274 145.459 82.8549 145.432C82.8916 145.395 82.9328 145.377 82.9786 145.377L84.5874 145.377C84.6333 145.377 84.6699 145.395 84.6974 145.432C84.7341 145.459 84.7524 145.496 84.7524 145.542L84.7524 146.064C84.7524 146.092 84.7616 146.11 84.7799 146.119C84.7983 146.128 84.812 146.124 84.8212 146.105C85.197 145.555 85.7012 145.28 86.3337 145.28ZM91.018 152.54C90.4038 152.54 89.8675 152.453 89.4092 152.279C88.9508 152.105 88.5933 151.862 88.3367 151.55C88.0892 151.239 87.9654 150.886 87.9654 150.492L87.9654 150.354C87.9654 150.308 87.9792 150.272 88.0067 150.244C88.0433 150.208 88.0846 150.189 88.1304 150.189L89.6567 150.189C89.7025 150.189 89.7392 150.208 89.7667 150.244C89.8034 150.272 89.8217 150.308 89.8217 150.354L89.8217 150.368C89.8217 150.57 89.9317 150.744 90.1517 150.89C90.3809 151.028 90.665 151.097 91.0042 151.097C91.3159 151.097 91.568 151.037 91.7605 150.918C91.953 150.79 92.0492 150.634 92.0492 150.45C92.0492 150.285 91.9667 150.162 91.8017 150.079C91.6367 149.997 91.3663 149.91 90.9905 149.818C90.5596 149.708 90.2204 149.602 89.9729 149.502C89.3863 149.3 88.9188 149.052 88.5704 148.759C88.2221 148.466 88.0479 148.044 88.0479 147.494C88.0479 146.816 88.3092 146.28 88.8317 145.885C89.3634 145.482 90.0646 145.28 90.9355 145.28C91.5221 145.28 92.0355 145.377 92.4755 145.569C92.9155 145.752 93.2547 146.014 93.493 146.353C93.7405 146.692 93.8643 147.077 93.8643 147.508C93.8643 147.554 93.8459 147.595 93.8093 147.632C93.7818 147.659 93.7451 147.673 93.6993 147.673L92.228 147.673C92.1822 147.673 92.1409 147.659 92.1042 147.632C92.0767 147.595 92.063 147.554 92.063 147.508C92.063 147.306 91.9576 147.137 91.7467 146.999C91.5451 146.862 91.2746 146.793 90.9355 146.793C90.633 146.793 90.3855 146.848 90.1929 146.958C90.0004 147.068 89.9042 147.219 89.9042 147.412C89.9042 147.595 89.9959 147.732 90.1792 147.824C90.3717 147.916 90.688 148.012 91.128 148.113C91.2288 148.14 91.3434 148.172 91.4717 148.209C91.6001 148.237 91.7376 148.273 91.8842 148.319C92.5351 148.512 93.0484 148.759 93.4243 149.062C93.8001 149.364 93.988 149.804 93.988 150.382C93.988 151.06 93.7176 151.592 93.1768 151.977C92.6451 152.353 91.9255 152.54 91.018 152.54ZM97.0766 147.879C96.7649 147.879 96.5037 147.778 96.2928 147.577C96.0912 147.366 95.9903 147.105 95.9903 146.793C95.9903 146.472 96.0912 146.211 96.2928 146.009C96.4945 145.807 96.7558 145.707 97.0766 145.707C97.3974 145.707 97.6587 145.807 97.8604 146.009C98.062 146.211 98.1629 146.472 98.1629 146.793C98.1629 147.105 98.0574 147.366 97.8466 147.577C97.6449 147.778 97.3883 147.879 97.0766 147.879ZM97.0766 152.375C96.7649 152.375 96.5037 152.275 96.2928 152.073C96.0912 151.862 95.9903 151.601 95.9903 151.289C95.9903 150.968 96.0912 150.707 96.2928 150.505C96.4945 150.304 96.7558 150.203 97.0766 150.203C97.3974 150.203 97.6587 150.304 97.8604 150.505C98.062 150.707 98.1629 150.968 98.1629 151.289C98.1629 151.601 98.0574 151.862 97.8466 152.073C97.6449 152.275 97.3883 152.375 97.0766 152.375ZM109.394 147.852C109.577 148.273 109.669 148.759 109.669 149.309C109.669 149.804 109.586 150.263 109.421 150.684C109.201 151.271 108.83 151.729 108.308 152.059C107.794 152.389 107.185 152.554 106.479 152.554C105.782 152.554 105.168 152.38 104.636 152.032C104.114 151.683 103.738 151.211 103.509 150.615C103.38 150.258 103.307 149.873 103.289 149.46C103.289 149.35 103.344 149.295 103.454 149.295L105.076 149.295C105.186 149.295 105.241 149.35 105.241 149.46C105.278 149.763 105.328 149.988 105.393 150.134C105.475 150.373 105.608 150.56 105.791 150.698C105.984 150.826 106.208 150.89 106.465 150.89C106.978 150.89 107.331 150.666 107.524 150.217C107.652 149.942 107.716 149.621 107.716 149.254C107.716 148.823 107.648 148.47 107.51 148.195C107.299 147.765 106.946 147.549 106.451 147.549C106.35 147.549 106.245 147.581 106.135 147.645C106.025 147.7 105.892 147.783 105.736 147.893C105.7 147.92 105.663 147.934 105.626 147.934C105.571 147.934 105.53 147.907 105.503 147.852L104.691 146.71C104.673 146.683 104.664 146.651 104.664 146.614C104.664 146.559 104.682 146.513 104.719 146.477L106.905 144.565C106.923 144.547 106.928 144.529 106.919 144.51C106.919 144.492 106.905 144.483 106.878 144.483L103.646 144.483C103.6 144.483 103.559 144.469 103.523 144.442C103.495 144.405 103.481 144.364 103.481 144.318L103.481 142.984C103.481 142.938 103.495 142.902 103.523 142.874C103.559 142.837 103.6 142.819 103.646 142.819L109.38 142.819C109.426 142.819 109.463 142.837 109.49 142.874C109.527 142.902 109.545 142.938 109.545 142.984L109.545 144.497C109.545 144.57 109.513 144.639 109.449 144.703L107.648 146.353C107.629 146.371 107.62 146.39 107.62 146.408C107.629 146.426 107.652 146.435 107.689 146.435C108.486 146.591 109.055 147.063 109.394 147.852ZM117.241 148.058C117.379 148.507 117.447 148.942 117.447 149.364C117.447 149.832 117.374 150.253 117.227 150.629C117.017 151.216 116.645 151.683 116.114 152.032C115.582 152.371 114.959 152.54 114.244 152.54C113.547 152.54 112.933 152.375 112.401 152.045C111.879 151.706 111.507 151.248 111.287 150.67C111.196 150.432 111.127 150.18 111.081 149.914L111.081 149.887C111.081 149.786 111.136 149.735 111.246 149.735L112.91 149.735C113.002 149.735 113.061 149.786 113.089 149.887C113.098 149.942 113.112 149.988 113.13 150.024C113.148 150.061 113.162 150.093 113.171 150.12C113.263 150.359 113.4 150.542 113.584 150.67C113.767 150.799 113.982 150.863 114.23 150.863C114.487 150.863 114.711 150.794 114.904 150.657C115.096 150.519 115.238 150.327 115.33 150.079C115.422 149.896 115.467 149.657 115.467 149.364C115.467 149.098 115.426 148.86 115.344 148.649C115.28 148.411 115.151 148.227 114.959 148.099C114.766 147.971 114.542 147.907 114.285 147.907C114.028 147.907 113.79 147.966 113.57 148.085C113.35 148.205 113.203 148.36 113.13 148.553C113.102 148.645 113.043 148.69 112.951 148.69L111.26 148.69C111.214 148.69 111.173 148.677 111.136 148.649C111.109 148.612 111.095 148.571 111.095 148.525L111.095 142.984C111.095 142.938 111.109 142.902 111.136 142.874C111.173 142.837 111.214 142.819 111.26 142.819L116.939 142.819C116.985 142.819 117.021 142.837 117.049 142.874C117.085 142.902 117.104 142.938 117.104 142.984L117.104 144.318C117.104 144.364 117.085 144.405 117.049 144.442C117.021 144.469 116.985 144.483 116.939 144.483L113.102 144.483C113.057 144.483 113.034 144.506 113.034 144.552L113.02 146.587C113.02 146.651 113.047 146.665 113.102 146.628C113.515 146.362 113.992 146.229 114.532 146.229C115.174 146.229 115.733 146.394 116.21 146.724C116.696 147.045 117.04 147.49 117.241 148.058ZM129.666 145.267C130.381 145.267 130.94 145.482 131.343 145.913C131.747 146.344 131.948 146.949 131.948 147.728L131.948 152.279C131.948 152.325 131.93 152.366 131.893 152.403C131.866 152.43 131.829 152.444 131.783 152.444L130.175 152.444C130.129 152.444 130.088 152.43 130.051 152.403C130.023 152.366 130.01 152.325 130.01 152.279L130.01 148.154C130.01 147.778 129.913 147.48 129.721 147.26C129.528 147.04 129.272 146.93 128.951 146.93C128.63 146.93 128.369 147.04 128.167 147.26C127.965 147.48 127.865 147.774 127.865 148.14L127.865 152.279C127.865 152.325 127.846 152.366 127.81 152.403C127.782 152.43 127.745 152.444 127.7 152.444L126.105 152.444C126.059 152.444 126.017 152.43 125.981 152.403C125.953 152.366 125.94 152.325 125.94 152.279L125.94 148.154C125.94 147.787 125.839 147.494 125.637 147.274C125.435 147.045 125.174 146.93 124.853 146.93C124.56 146.93 124.312 147.017 124.111 147.192C123.918 147.366 123.804 147.609 123.767 147.92L123.767 152.279C123.767 152.325 123.749 152.366 123.712 152.403C123.684 152.43 123.648 152.444 123.602 152.444L121.993 152.444C121.947 152.444 121.906 152.43 121.869 152.403C121.842 152.366 121.828 152.325 121.828 152.279L121.828 145.542C121.828 145.496 121.842 145.459 121.869 145.432C121.906 145.395 121.947 145.377 121.993 145.377L123.602 145.377C123.648 145.377 123.684 145.395 123.712 145.432C123.749 145.459 123.767 145.496 123.767 145.542L123.767 146.078C123.767 146.105 123.776 146.124 123.794 146.133C123.813 146.142 123.831 146.133 123.849 146.105C124.225 145.546 124.807 145.267 125.596 145.267C126.054 145.267 126.453 145.363 126.792 145.555C127.14 145.748 127.406 146.023 127.59 146.38C127.617 146.435 127.649 146.435 127.686 146.38C127.887 146.005 128.158 145.725 128.497 145.542C128.845 145.358 129.235 145.267 129.666 145.267ZM134.583 144.579C134.272 144.579 134.01 144.478 133.8 144.277C133.598 144.066 133.497 143.804 133.497 143.493C133.497 143.172 133.598 142.911 133.8 142.709C134.001 142.507 134.262 142.407 134.583 142.407C134.904 142.407 135.165 142.507 135.367 142.709C135.569 142.911 135.67 143.172 135.67 143.493C135.67 143.804 135.564 144.066 135.353 144.277C135.152 144.478 134.895 144.579 134.583 144.579ZM133.758 152.444C133.712 152.444 133.671 152.43 133.635 152.403C133.607 152.366 133.593 152.325 133.593 152.279L133.593 145.528C133.593 145.482 133.607 145.445 133.635 145.418C133.671 145.381 133.712 145.363 133.758 145.363L135.367 145.363C135.413 145.363 135.45 145.381 135.477 145.418C135.514 145.445 135.532 145.482 135.532 145.528L135.532 152.279C135.532 152.325 135.514 152.366 135.477 152.403C135.45 152.43 135.413 152.444 135.367 152.444L133.758 152.444ZM140.957 145.267C141.691 145.267 142.282 145.491 142.731 145.94C143.18 146.39 143.405 146.999 143.405 147.769L143.405 152.279C143.405 152.325 143.386 152.366 143.35 152.403C143.322 152.43 143.286 152.444 143.24 152.444L141.631 152.444C141.585 152.444 141.544 152.43 141.507 152.403C141.48 152.366 141.466 152.325 141.466 152.279L141.466 148.168C141.466 147.801 141.361 147.503 141.15 147.274C140.948 147.045 140.678 146.93 140.338 146.93C139.999 146.93 139.724 147.045 139.513 147.274C139.312 147.503 139.211 147.801 139.211 148.168L139.211 152.279C139.211 152.325 139.193 152.366 139.156 152.403C139.128 152.43 139.092 152.444 139.046 152.444L137.437 152.444C137.391 152.444 137.35 152.43 137.313 152.403C137.286 152.366 137.272 152.325 137.272 152.279L137.272 145.542C137.272 145.496 137.286 145.459 137.313 145.432C137.35 145.395 137.391 145.377 137.437 145.377L139.046 145.377C139.092 145.377 139.128 145.395 139.156 145.432C139.193 145.459 139.211 145.496 139.211 145.542L139.211 146.023C139.211 146.05 139.22 146.069 139.238 146.078C139.257 146.087 139.271 146.082 139.28 146.064C139.656 145.532 140.215 145.267 140.957 145.267ZM147.84 152.54C147.226 152.54 146.689 152.453 146.231 152.279C145.773 152.105 145.415 151.862 145.158 151.55C144.911 151.239 144.787 150.886 144.787 150.492L144.787 150.354C144.787 150.308 144.801 150.272 144.828 150.244C144.865 150.208 144.906 150.189 144.952 150.189L146.479 150.189C146.524 150.189 146.561 150.208 146.589 150.244C146.625 150.272 146.644 150.308 146.644 150.354L146.644 150.368C146.644 150.57 146.754 150.744 146.974 150.89C147.203 151.028 147.487 151.097 147.826 151.097C148.138 151.097 148.39 151.037 148.582 150.918C148.775 150.79 148.871 150.634 148.871 150.45C148.871 150.285 148.789 150.162 148.624 150.079C148.459 149.997 148.188 149.91 147.812 149.818C147.381 149.708 147.042 149.602 146.795 149.502C146.208 149.3 145.741 149.052 145.392 148.759C145.044 148.466 144.87 148.044 144.87 147.494C144.87 146.816 145.131 146.28 145.654 145.885C146.185 145.482 146.886 145.28 147.757 145.28C148.344 145.28 148.857 145.377 149.297 145.569C149.737 145.752 150.076 146.014 150.315 146.353C150.562 146.692 150.686 147.077 150.686 147.508C150.686 147.554 150.668 147.595 150.631 147.632C150.604 147.659 150.567 147.673 150.521 147.673L149.05 147.673C149.004 147.673 148.963 147.659 148.926 147.632C148.899 147.595 148.885 147.554 148.885 147.508C148.885 147.306 148.779 147.137 148.569 146.999C148.367 146.862 148.096 146.793 147.757 146.793C147.455 146.793 147.207 146.848 147.015 146.958C146.822 147.068 146.726 147.219 146.726 147.412C146.726 147.595 146.818 147.732 147.001 147.824C147.194 147.916 147.51 148.012 147.95 148.113C148.051 148.14 148.165 148.172 148.294 148.209C148.422 148.237 148.559 148.273 148.706 148.319C149.357 148.512 149.87 148.759 150.246 149.062C150.622 149.364 150.81 149.804 150.81 150.382C150.81 151.06 150.539 151.592 149.999 151.977C149.467 152.353 148.747 152.54 147.84 152.54Z" fill="white"/>
<g filter="url(#filter2_d_811_1013)">
<rect x="32.9688" y="33.8585" width="140.711" height="47.2092" rx="4.58342" fill="#0A74C6"/>
</g>
<path d="M46.1615 50.0839C45.7801 50.0839 45.4477 50.0228 45.1641 49.9006C44.8805 49.7784 44.6605 49.6073 44.5041 49.3873C44.3525 49.1673 44.2768 48.9081 44.2768 48.6099L44.2768 48.4266C44.2768 48.4021 44.2841 48.3826 44.2988 48.3679C44.3183 48.3483 44.3403 48.3386 44.3648 48.3386L45.0174 48.3386C45.0419 48.3386 45.0614 48.3483 45.0761 48.3679C45.0957 48.3826 45.1054 48.4021 45.1054 48.4266L45.1054 48.5659C45.1054 48.7908 45.2057 48.979 45.4061 49.1306C45.6066 49.2773 45.8803 49.3506 46.2275 49.3506C46.5257 49.3506 46.7506 49.287 46.9021 49.1599C47.0537 49.0328 47.1295 48.869 47.1295 48.6686C47.1295 48.5317 47.0879 48.4168 47.0048 48.3239C46.9217 48.2261 46.8019 48.1381 46.6455 48.0599C46.4939 47.9817 46.2641 47.8839 45.9561 47.7666C45.609 47.6394 45.3279 47.5197 45.1128 47.4072C44.8977 47.2948 44.7168 47.1432 44.5701 46.9525C44.4283 46.757 44.3574 46.515 44.3574 46.2265C44.3574 45.7963 44.5139 45.4565 44.8268 45.2072C45.1397 44.9578 45.5577 44.8332 46.0808 44.8332C46.4475 44.8332 46.7701 44.8967 47.0488 45.0238C47.3324 45.151 47.5524 45.3294 47.7088 45.5592C47.8653 45.7841 47.9435 46.0456 47.9435 46.3439L47.9435 46.4685C47.9435 46.493 47.9337 46.515 47.9142 46.5345C47.8995 46.5492 47.8799 46.5565 47.8555 46.5565L47.1955 46.5565C47.171 46.5565 47.149 46.5492 47.1295 46.5345C47.1148 46.515 47.1075 46.493 47.1075 46.4685L47.1075 46.3879C47.1075 46.1581 47.0121 45.965 46.8215 45.8085C46.6357 45.6472 46.3766 45.5665 46.0441 45.5665C45.7752 45.5665 45.565 45.6227 45.4134 45.7352C45.2668 45.8476 45.1934 46.0065 45.1934 46.2119C45.1934 46.3585 45.2326 46.4783 45.3108 46.5712C45.389 46.6641 45.5063 46.7497 45.6628 46.8279C45.8192 46.9012 46.0612 46.9965 46.3888 47.1139C46.7359 47.2459 47.0121 47.3657 47.2175 47.4732C47.4277 47.5808 47.6062 47.7323 47.7528 47.9279C47.9044 48.1186 47.9802 48.3581 47.9802 48.6466C47.9802 49.0866 47.8164 49.4361 47.4888 49.6953C47.1661 49.9544 46.7237 50.0839 46.1615 50.0839ZM50.9727 46.8792C50.9727 46.9037 50.9629 46.9257 50.9434 46.9452C50.9287 46.9599 50.9092 46.9672 50.8847 46.9672L50.1367 46.9672C50.1123 46.9672 50.1 46.9794 50.1 47.0039L50.1 48.7712C50.1 48.957 50.1392 49.0915 50.2174 49.1746C50.3005 49.2577 50.4301 49.2993 50.6061 49.2993L50.8261 49.2993C50.8505 49.2993 50.8701 49.309 50.8847 49.3286C50.9043 49.3433 50.9141 49.3628 50.9141 49.3873L50.9141 49.9373C50.9141 49.991 50.8847 50.0228 50.8261 50.0326L50.4447 50.0399C50.0585 50.0399 49.77 49.9739 49.5794 49.8419C49.3887 49.7099 49.2909 49.4606 49.286 49.0939L49.286 47.0039C49.286 46.9794 49.2738 46.9672 49.2494 46.9672L48.8314 46.9672C48.8069 46.9672 48.7849 46.9599 48.7654 46.9452C48.7507 46.9257 48.7434 46.9037 48.7434 46.8792L48.7434 46.3659C48.7434 46.3414 48.7507 46.3219 48.7654 46.3072C48.7849 46.2876 48.8069 46.2779 48.8314 46.2779L49.2494 46.2779C49.2738 46.2779 49.286 46.2656 49.286 46.2412L49.286 45.3832C49.286 45.3587 49.2934 45.3392 49.308 45.3245C49.3276 45.305 49.3496 45.2952 49.374 45.2952L50.012 45.2952C50.0365 45.2952 50.056 45.305 50.0707 45.3245C50.0903 45.3392 50.1 45.3587 50.1 45.3832L50.1 46.2412C50.1 46.2656 50.1123 46.2779 50.1367 46.2779L50.8847 46.2779C50.9092 46.2779 50.9287 46.2876 50.9434 46.3072C50.9629 46.3219 50.9727 46.3414 50.9727 46.3659L50.9727 46.8792ZM53.3874 46.2192C53.6954 46.2192 53.9668 46.273 54.2015 46.3805C54.4361 46.4881 54.617 46.6372 54.7441 46.8279C54.8712 47.0137 54.9348 47.2263 54.9348 47.4659L54.9348 49.9373C54.9348 49.9617 54.925 49.9837 54.9055 50.0033C54.8908 50.0179 54.8712 50.0253 54.8468 50.0253L54.1721 50.0253C54.1477 50.0253 54.1257 50.0179 54.1061 50.0033C54.0915 49.9837 54.0841 49.9617 54.0841 49.9373L54.0841 49.7026C54.0841 49.6879 54.0792 49.6806 54.0695 49.6806C54.0597 49.6757 54.0499 49.6782 54.0401 49.6879C53.8006 49.9519 53.4534 50.0839 52.9988 50.0839C52.6321 50.0839 52.329 49.991 52.0894 49.8053C51.8547 49.6195 51.7374 49.3433 51.7374 48.9766C51.7374 48.5952 51.8694 48.2995 52.1334 48.0892C52.4023 47.8741 52.7788 47.7666 53.2628 47.7666L54.0475 47.7666C54.0719 47.7666 54.0841 47.7543 54.0841 47.7299L54.0841 47.5539C54.0841 47.3632 54.0279 47.2166 53.9155 47.1139C53.803 47.0063 53.6343 46.9525 53.4094 46.9525C53.2237 46.9525 53.0721 46.9868 52.9548 47.0552C52.8423 47.1188 52.7714 47.2092 52.7421 47.3266C52.7274 47.3852 52.6932 47.4097 52.6394 47.3999L51.9281 47.3119C51.9036 47.307 51.8816 47.2997 51.8621 47.2899C51.8474 47.2752 51.8425 47.2581 51.8474 47.2386C51.8865 46.9403 52.0454 46.6959 52.3241 46.5052C52.6077 46.3145 52.9621 46.2192 53.3874 46.2192ZM53.2114 49.4093C53.451 49.4093 53.6563 49.3457 53.8275 49.2186C53.9986 49.0915 54.0841 48.9301 54.0841 48.7346L54.0841 48.3899C54.0841 48.3655 54.0719 48.3532 54.0475 48.3532L53.4314 48.3532C53.1723 48.3532 52.967 48.4021 52.8154 48.4999C52.6688 48.5977 52.5954 48.737 52.5954 48.9179C52.5954 49.0744 52.6517 49.1966 52.7641 49.2846C52.8814 49.3677 53.0305 49.4093 53.2114 49.4093ZM57.7634 46.2339C57.9199 46.2339 58.0567 46.2656 58.1741 46.3292C58.2132 46.3488 58.2279 46.3854 58.2181 46.4392L58.0934 47.0992C58.0885 47.1579 58.0543 47.175 57.9907 47.1505C57.9174 47.1261 57.8319 47.1139 57.7341 47.1139C57.6705 47.1139 57.6216 47.1163 57.5874 47.1212C57.3821 47.131 57.2109 47.2043 57.0741 47.3412C56.9372 47.4732 56.8687 47.6468 56.8687 47.8619L56.8687 49.9373C56.8687 49.9617 56.8589 49.9837 56.8394 50.0033C56.8247 50.0179 56.8052 50.0253 56.7807 50.0253L56.106 50.0253C56.0816 50.0253 56.0596 50.0179 56.04 50.0033C56.0254 49.9837 56.018 49.9617 56.018 49.9373L56.018 46.3659C56.018 46.3414 56.0254 46.3219 56.04 46.3072C56.0596 46.2876 56.0816 46.2779 56.106 46.2779L56.7807 46.2779C56.8052 46.2779 56.8247 46.2876 56.8394 46.3072C56.8589 46.3219 56.8687 46.3414 56.8687 46.3659L56.8687 46.6959C56.8687 46.7154 56.8712 46.7277 56.8761 46.7325C56.8858 46.7325 56.8956 46.7252 56.9054 46.7105C57.1107 46.3928 57.3967 46.2339 57.7634 46.2339ZM61.0562 46.8792C61.0562 46.9037 61.0465 46.9257 61.0269 46.9452C61.0122 46.9599 60.9927 46.9672 60.9682 46.9672L60.2202 46.9672C60.1958 46.9672 60.1836 46.9794 60.1836 47.0039L60.1836 48.7712C60.1836 48.957 60.2227 49.0915 60.3009 49.1746C60.384 49.2577 60.5136 49.2993 60.6896 49.2993L60.9096 49.2993C60.934 49.2993 60.9536 49.309 60.9682 49.3286C60.9878 49.3433 60.9976 49.3628 60.9976 49.3873L60.9976 49.9373C60.9976 49.991 60.9682 50.0228 60.9096 50.0326L60.5282 50.0399C60.142 50.0399 59.8536 49.9739 59.6629 49.8419C59.4722 49.7099 59.3744 49.4606 59.3695 49.0939L59.3695 47.0039C59.3695 46.9794 59.3573 46.9672 59.3329 46.9672L58.9149 46.9672C58.8904 46.9672 58.8684 46.9599 58.8489 46.9452C58.8342 46.9257 58.8269 46.9037 58.8269 46.8792L58.8269 46.3659C58.8269 46.3414 58.8342 46.3219 58.8489 46.3072C58.8684 46.2876 58.8904 46.2779 58.9149 46.2779L59.3329 46.2779C59.3573 46.2779 59.3695 46.2656 59.3695 46.2412L59.3695 45.3832C59.3695 45.3587 59.3769 45.3392 59.3915 45.3245C59.4111 45.305 59.4331 45.2952 59.4576 45.2952L60.0956 45.2952C60.12 45.2952 60.1396 45.305 60.1542 45.3245C60.1738 45.3392 60.1836 45.3587 60.1836 45.3832L60.1836 46.2412C60.1836 46.2656 60.1958 46.2779 60.2202 46.2779L60.9682 46.2779C60.9927 46.2779 61.0122 46.2876 61.0269 46.3072C61.0465 46.3219 61.0562 46.3414 61.0562 46.3659L61.0562 46.8792ZM67.1923 44.8918C67.2167 44.8918 67.2363 44.9016 67.251 44.9212C67.2705 44.9358 67.2803 44.9554 67.2803 44.9798L67.2803 45.5445C67.2803 45.569 67.2705 45.591 67.251 45.6105C67.2363 45.6252 67.2167 45.6325 67.1923 45.6325L65.8429 45.6325C65.8185 45.6325 65.8063 45.6447 65.8063 45.6692L65.8063 49.9373C65.8063 49.9617 65.7965 49.9837 65.7769 50.0033C65.7623 50.0179 65.7427 50.0253 65.7183 50.0253L65.0436 50.0253C65.0191 50.0253 64.9971 50.0179 64.9776 50.0033C64.9629 49.9837 64.9556 49.9617 64.9556 49.9373L64.9556 45.6692C64.9556 45.6447 64.9434 45.6325 64.9189 45.6325L63.6209 45.6325C63.5965 45.6325 63.5745 45.6252 63.5549 45.6105C63.5402 45.591 63.5329 45.569 63.5329 45.5445L63.5329 44.9798C63.5329 44.9554 63.5402 44.9358 63.5549 44.9212C63.5745 44.9016 63.5965 44.8918 63.6209 44.8918L67.1923 44.8918ZM68.6338 45.7645C68.4822 45.7645 68.3576 45.7156 68.2598 45.6179C68.162 45.5201 68.1131 45.3954 68.1131 45.2438C68.1131 45.0923 68.162 44.9676 68.2598 44.8698C68.3576 44.7721 68.4822 44.7232 68.6338 44.7232C68.7853 44.7232 68.91 44.7721 69.0078 44.8698C69.1056 44.9676 69.1545 45.0923 69.1545 45.2438C69.1545 45.3954 69.1056 45.5201 69.0078 45.6179C68.91 45.7156 68.7853 45.7645 68.6338 45.7645ZM68.2818 50.0253C68.2573 50.0253 68.2353 50.0179 68.2158 50.0033C68.2011 49.9837 68.1938 49.9617 68.1938 49.9373L68.1938 46.3585C68.1938 46.3341 68.2011 46.3145 68.2158 46.2999C68.2353 46.2803 68.2573 46.2705 68.2818 46.2705L68.9565 46.2705C68.9809 46.2705 69.0005 46.2803 69.0151 46.2999C69.0347 46.3145 69.0445 46.3341 69.0445 46.3585L69.0445 49.9373C69.0445 49.9617 69.0347 49.9837 69.0151 50.0033C69.0005 50.0179 68.9809 50.0253 68.9565 50.0253L68.2818 50.0253ZM74.2595 46.2192C74.636 46.2192 74.9293 46.3341 75.1395 46.5639C75.3547 46.7888 75.4622 47.1041 75.4622 47.5099L75.4622 49.9373C75.4622 49.9617 75.4524 49.9837 75.4329 50.0033C75.4182 50.0179 75.3987 50.0253 75.3742 50.0253L74.7069 50.0253C74.6824 50.0253 74.6604 50.0179 74.6409 50.0033C74.6262 49.9837 74.6189 49.9617 74.6189 49.9373L74.6189 47.6859C74.6189 47.461 74.5578 47.2826 74.4355 47.1505C74.3182 47.0185 74.1593 46.9525 73.9589 46.9525C73.7584 46.9525 73.5946 47.0185 73.4675 47.1505C73.3404 47.2826 73.2768 47.4586 73.2768 47.6786L73.2768 49.9373C73.2768 49.9617 73.2671 49.9837 73.2475 50.0033C73.2328 50.0179 73.2133 50.0253 73.1888 50.0253L72.5215 50.0253C72.497 50.0253 72.475 50.0179 72.4555 50.0033C72.4408 49.9837 72.4335 49.9617 72.4335 49.9373L72.4335 47.6859C72.4335 47.461 72.3724 47.2826 72.2502 47.1505C72.1279 47.0185 71.9666 46.9525 71.7661 46.9525C71.5804 46.9525 71.4264 47.0063 71.3041 47.1139C71.1868 47.2214 71.1184 47.3681 71.0988 47.5539L71.0988 49.9373C71.0988 49.9617 71.089 49.9837 71.0695 50.0033C71.0548 50.0179 71.0352 50.0253 71.0108 50.0253L70.3361 50.0253C70.3117 50.0253 70.2897 50.0179 70.2701 50.0033C70.2555 49.9837 70.2481 49.9617 70.2481 49.9373L70.2481 46.3659C70.2481 46.3414 70.2555 46.3219 70.2701 46.3072C70.2897 46.2876 70.3117 46.2779 70.3361 46.2779L71.0108 46.2779C71.0352 46.2779 71.0548 46.2876 71.0695 46.3072C71.089 46.3219 71.0988 46.3414 71.0988 46.3659L71.0988 46.6079C71.0988 46.6225 71.1037 46.6323 71.1135 46.6372C71.1232 46.6421 71.133 46.6372 71.1428 46.6225C71.2504 46.4856 71.3824 46.3854 71.5388 46.3219C71.7001 46.2534 71.8786 46.2192 72.0742 46.2192C72.3137 46.2192 72.5239 46.2681 72.7048 46.3659C72.8857 46.4636 73.0251 46.6054 73.1228 46.7912C73.1375 46.8108 73.1546 46.8108 73.1742 46.7912C73.2817 46.5956 73.4308 46.4514 73.6215 46.3585C73.8122 46.2656 74.0249 46.2192 74.2595 46.2192ZM79.6896 47.7299C79.7091 47.8521 79.7189 47.989 79.7189 48.1406L79.7116 48.3679C79.7116 48.4266 79.6822 48.4559 79.6236 48.4559L77.3282 48.4559C77.3037 48.4559 77.2915 48.4681 77.2915 48.4926C77.3062 48.6539 77.3282 48.7639 77.3575 48.8226C77.4749 49.1746 77.7609 49.353 78.2155 49.3579C78.548 49.3579 78.812 49.221 79.0075 48.9472C79.0271 48.9179 79.0515 48.9032 79.0809 48.9032C79.1004 48.9032 79.1175 48.9106 79.1322 48.9252L79.5869 49.2993C79.6309 49.3335 79.6382 49.3726 79.6089 49.4166C79.4573 49.6317 79.2544 49.7979 79.0002 49.9153C78.7509 50.0326 78.4722 50.0913 78.1642 50.0913C77.7829 50.0913 77.4577 50.0057 77.1888 49.8346C76.9248 49.6635 76.7317 49.4239 76.6095 49.1159C76.4971 48.8519 76.4408 48.4852 76.4408 48.0159C76.4408 47.7323 76.4702 47.5026 76.5288 47.3266C76.6266 46.9843 76.8099 46.7154 77.0788 46.5199C77.3526 46.3194 77.6802 46.2192 78.0615 46.2192C79.0247 46.2192 79.5673 46.7228 79.6896 47.7299ZM78.0615 46.9525C77.8806 46.9525 77.7291 46.999 77.6069 47.0919C77.4895 47.1799 77.4064 47.3046 77.3575 47.4659C77.3282 47.549 77.3086 47.6566 77.2988 47.7886C77.2891 47.813 77.2988 47.8252 77.3282 47.8252L78.8169 47.8252C78.8413 47.8252 78.8535 47.813 78.8535 47.7886C78.8438 47.6663 78.8291 47.5734 78.8095 47.5099C78.7655 47.3339 78.6775 47.197 78.5455 47.0992C78.4184 47.0014 78.2571 46.9525 78.0615 46.9525Z" fill="white"/>
<path d="M50.4451 60.6049C50.601 60.9807 50.6789 61.4299 50.6789 61.9524L50.6789 66.0912C50.6789 66.5862 50.5505 67.0262 50.2939 67.4112C50.0372 67.7871 49.6751 68.0804 49.2076 68.2913C48.7401 68.4929 48.2038 68.5938 47.5988 68.5938C47.003 68.5938 46.4759 68.4929 46.0175 68.2913C45.5592 68.0804 45.2017 67.7917 44.945 67.425C44.6883 67.0492 44.56 66.6183 44.56 66.1325L44.56 65.7475C44.56 65.7016 44.5738 65.665 44.6013 65.6375C44.6379 65.6008 44.6792 65.5825 44.725 65.5825L46.3338 65.5825C46.3796 65.5825 46.4163 65.6008 46.4438 65.6375C46.4805 65.665 46.4988 65.7016 46.4988 65.7475L46.4988 65.8712C46.4988 66.1737 46.5996 66.4258 46.8013 66.6275C47.0121 66.8292 47.278 66.93 47.5988 66.93C47.938 66.93 48.213 66.8292 48.4238 66.6275C48.6347 66.4166 48.7401 66.1508 48.7401 65.83L48.7401 64.5512C48.7401 64.5237 48.7309 64.5054 48.7126 64.4962C48.6943 64.487 48.6759 64.4916 48.6576 64.5099C48.2817 64.8308 47.7867 64.9912 47.1726 64.9912C46.6225 64.9912 46.1275 64.8674 45.6875 64.6199C45.2567 64.3633 44.9175 63.9966 44.67 63.5199C44.4408 63.0891 44.3263 62.562 44.3263 61.9386C44.3263 61.3978 44.4179 60.9211 44.6013 60.5086C44.8304 59.9678 45.1971 59.5415 45.7013 59.2298C46.2146 58.9182 46.8151 58.7623 47.5026 58.7623C48.1992 58.7623 48.8043 58.9273 49.3176 59.2573C49.8401 59.5782 50.2159 60.0274 50.4451 60.6049ZM47.5026 63.3687C47.9792 63.3687 48.323 63.1808 48.5338 62.8049C48.6713 62.5666 48.7401 62.2595 48.7401 61.8836C48.7401 61.5811 48.6805 61.3016 48.5613 61.0449C48.3597 60.6415 48.0113 60.4399 47.5163 60.4399C47.0396 60.4399 46.6913 60.6415 46.4713 61.0449C46.3338 61.3016 46.265 61.5903 46.265 61.9111C46.265 62.2595 46.343 62.562 46.4988 62.8187C46.728 63.1853 47.0626 63.3687 47.5026 63.3687ZM53.964 63.9187C53.6524 63.9187 53.3911 63.8178 53.1803 63.6162C52.9786 63.4053 52.8778 63.1441 52.8778 62.8324C52.8778 62.5116 52.9786 62.2503 53.1803 62.0486C53.3819 61.847 53.6432 61.7461 53.964 61.7461C54.2849 61.7461 54.5461 61.847 54.7478 62.0486C54.9495 62.2503 55.0503 62.5116 55.0503 62.8324C55.0503 63.1441 54.9449 63.4053 54.734 63.6162C54.5324 63.8178 54.2757 63.9187 53.964 63.9187ZM53.964 68.415C53.6524 68.415 53.3911 68.3142 53.1803 68.1125C52.9786 67.9017 52.8778 67.6404 52.8778 67.3287C52.8778 67.0079 52.9786 66.7466 53.1803 66.545C53.3819 66.3433 53.6432 66.2425 53.964 66.2425C54.2849 66.2425 54.5461 66.3433 54.7478 66.545C54.9495 66.7466 55.0503 67.0079 55.0503 67.3287C55.0503 67.6404 54.9449 67.9017 54.734 68.1125C54.5324 68.3142 54.2757 68.415 53.964 68.415ZM60.6456 68.635C59.6373 68.635 58.8398 68.3554 58.2531 67.7963C57.6664 67.2279 57.3731 66.4579 57.3731 65.4862L57.3731 61.8561C57.3731 60.9028 57.6664 60.1465 58.2531 59.5874C58.8398 59.0282 59.6373 58.7486 60.6456 58.7486C61.654 58.7486 62.4515 59.0282 63.0382 59.5874C63.634 60.1465 63.9319 60.9028 63.9319 61.8561L63.9319 65.4862C63.9319 66.4579 63.634 67.2279 63.0382 67.7963C62.4515 68.3554 61.654 68.635 60.6456 68.635ZM60.6456 66.9712C61.0581 66.9712 61.3835 66.8475 61.6219 66.6C61.8694 66.3433 61.9931 66.0041 61.9931 65.5825L61.9931 61.8011C61.9931 61.3795 61.8694 61.0449 61.6219 60.7974C61.3835 60.5407 61.0581 60.4124 60.6456 60.4124C60.2423 60.4124 59.9169 60.5407 59.6694 60.7974C59.431 61.0449 59.3118 61.3795 59.3118 61.8011L59.3118 65.5825C59.3118 66.0041 59.431 66.3433 59.6694 66.6C59.9169 66.8475 60.2423 66.9712 60.6456 66.9712ZM68.7167 68.635C67.7084 68.635 66.9109 68.3554 66.3242 67.7963C65.7375 67.2279 65.4442 66.4579 65.4442 65.4862L65.4442 61.8561C65.4442 60.9028 65.7375 60.1465 66.3242 59.5874C66.9109 59.0282 67.7084 58.7486 68.7167 58.7486C69.7251 58.7486 70.5226 59.0282 71.1093 59.5874C71.7051 60.1465 72.003 60.9028 72.003 61.8561L72.003 65.4862C72.003 66.4579 71.7051 67.2279 71.1093 67.7963C70.5226 68.3554 69.7251 68.635 68.7167 68.635ZM68.7167 66.9712C69.1292 66.9712 69.4547 66.8475 69.693 66.6C69.9405 66.3433 70.0643 66.0041 70.0643 65.5825L70.0643 61.8011C70.0643 61.3795 69.9405 61.0449 69.693 60.7974C69.4547 60.5407 69.1292 60.4124 68.7167 60.4124C68.3134 60.4124 67.988 60.5407 67.7405 60.7974C67.5021 61.0449 67.383 61.3795 67.383 61.8011L67.383 65.5825C67.383 66.0041 67.5021 66.3433 67.7405 66.6C67.988 66.8475 68.3134 66.9712 68.7167 66.9712ZM79.3985 61.3061C79.9943 61.3061 80.526 61.4116 80.9935 61.6224C81.461 61.8241 81.8231 62.1036 82.0798 62.4612C82.3456 62.8187 82.4785 63.2174 82.4785 63.6574L82.4785 68.3188C82.4785 68.3646 82.4602 68.4058 82.4235 68.4425C82.396 68.47 82.3594 68.4838 82.3135 68.4838L80.7048 68.4838C80.6589 68.4838 80.6177 68.47 80.581 68.4425C80.5535 68.4058 80.5398 68.3646 80.5398 68.3188L80.5398 67.865C80.5398 67.8375 80.5306 67.8192 80.5123 67.81C80.4939 67.8008 80.4756 67.81 80.4573 67.8375C80.0723 68.3417 79.4535 68.5938 78.601 68.5938C77.886 68.5938 77.3084 68.4196 76.8684 68.0713C76.4284 67.7229 76.2084 67.2096 76.2084 66.5312C76.2084 65.8254 76.4559 65.28 76.9509 64.8949C77.446 64.5008 78.1518 64.3037 79.0685 64.3037L80.471 64.3037C80.5168 64.3037 80.5398 64.2808 80.5398 64.2349L80.5398 63.9324C80.5398 63.6299 80.4481 63.3962 80.2648 63.2312C80.0814 63.057 79.8064 62.9699 79.4397 62.9699C79.1556 62.9699 78.9172 63.0203 78.7247 63.1212C78.5414 63.222 78.4222 63.3641 78.3672 63.5474C78.3397 63.6483 78.2801 63.6941 78.1885 63.6849L76.5247 63.4649C76.4147 63.4466 76.3643 63.4053 76.3734 63.3412C76.4101 62.9562 76.5614 62.6078 76.8272 62.2962C77.1022 61.9845 77.4597 61.7416 77.8997 61.5674C78.3489 61.3932 78.8485 61.3061 79.3985 61.3061ZM79.1235 67.15C79.5177 67.15 79.8522 67.0446 80.1273 66.8337C80.4023 66.6229 80.5398 66.3525 80.5398 66.0225L80.5398 65.5275C80.5398 65.4816 80.5168 65.4587 80.471 65.4587L79.481 65.4587C79.0685 65.4587 78.7431 65.5366 78.5047 65.6925C78.2756 65.8483 78.161 66.0683 78.161 66.3525C78.161 66.6 78.2481 66.7971 78.4222 66.9437C78.5964 67.0812 78.8301 67.15 79.1235 67.15ZM91.911 61.3061C92.626 61.3061 93.1852 61.5216 93.5886 61.9524C93.9919 62.3832 94.1936 62.9882 94.1936 63.7674L94.1936 68.3188C94.1936 68.3646 94.1752 68.4058 94.1386 68.4425C94.1111 68.47 94.0744 68.4838 94.0286 68.4838L92.4198 68.4838C92.374 68.4838 92.3327 68.47 92.296 68.4425C92.2685 68.4058 92.2548 68.3646 92.2548 68.3188L92.2548 64.1937C92.2548 63.8178 92.1585 63.5199 91.966 63.2999C91.7735 63.0799 91.5169 62.9699 91.196 62.9699C90.8752 62.9699 90.6139 63.0799 90.4123 63.2999C90.2106 63.5199 90.1098 63.8133 90.1098 64.1799L90.1098 68.3188C90.1098 68.3646 90.0914 68.4058 90.0548 68.4425C90.0273 68.47 89.9906 68.4838 89.9447 68.4838L88.3497 68.4838C88.3039 68.4838 88.2626 68.47 88.226 68.4425C88.1985 68.4058 88.1847 68.3646 88.1847 68.3188L88.1847 64.1937C88.1847 63.827 88.0839 63.5337 87.8822 63.3137C87.6805 63.0845 87.4193 62.9699 87.0984 62.9699C86.8051 62.9699 86.5576 63.057 86.3559 63.2312C86.1634 63.4053 86.0488 63.6483 86.0122 63.9599L86.0122 68.3188C86.0122 68.3646 85.9938 68.4058 85.9572 68.4425C85.9297 68.47 85.893 68.4838 85.8472 68.4838L84.2384 68.4838C84.1926 68.4838 84.1513 68.47 84.1146 68.4425C84.0871 68.4058 84.0734 68.3646 84.0734 68.3188L84.0734 61.5811C84.0734 61.5353 84.0871 61.4986 84.1146 61.4711C84.1513 61.4345 84.1926 61.4161 84.2384 61.4161L85.8472 61.4161C85.893 61.4161 85.9297 61.4345 85.9572 61.4711C85.9938 61.4986 86.0122 61.5353 86.0122 61.5811L86.0122 62.1174C86.0122 62.1449 86.0213 62.1632 86.0397 62.1724C86.058 62.1816 86.0763 62.1724 86.0947 62.1449C86.4705 61.5857 87.0526 61.3061 87.841 61.3061C88.2993 61.3061 88.6981 61.4024 89.0372 61.5949C89.3856 61.7874 89.6514 62.0624 89.8347 62.4199C89.8622 62.4749 89.8943 62.4749 89.931 62.4199C90.1327 62.0441 90.4031 61.7645 90.7423 61.5811C91.0906 61.3978 91.4802 61.3061 91.911 61.3061Z" fill="white"/>
<path d="M92.0677 97.5242L90.4626 103.27L89.1043 103.27L88.026 99.1787L86.8982 103.27L85.5482 103.278L84.0007 97.5242L85.2354 97.5242L86.2479 101.986L87.4168 97.5242L88.701 97.5242L89.804 101.961L90.8248 97.5242L92.0677 97.5242ZM94.7886 103.344C94.3496 103.344 93.9545 103.248 93.6033 103.056C93.252 102.858 92.9749 102.581 92.7719 102.224C92.5743 101.868 92.4755 101.456 92.4755 100.99C92.4755 100.523 92.577 100.112 92.7801 99.755C92.9886 99.3983 93.2713 99.1239 93.628 98.9318C93.9847 98.7342 94.3825 98.6355 94.8216 98.6355C95.2606 98.6355 95.6584 98.7342 96.0152 98.9318C96.3719 99.1239 96.6517 99.3983 96.8548 99.755C97.0633 100.112 97.1676 100.523 97.1676 100.99C97.1676 101.456 97.0606 101.868 96.8466 102.224C96.638 102.581 96.3527 102.858 95.9905 103.056C95.6338 103.248 95.2331 103.344 94.7886 103.344ZM94.7886 102.34C94.9972 102.34 95.192 102.29 95.3731 102.192C95.5597 102.087 95.7078 101.934 95.8176 101.731C95.9273 101.528 95.9822 101.281 95.9822 100.99C95.9822 100.556 95.867 100.224 95.6365 99.9937C95.4115 99.7577 95.1344 99.6397 94.8051 99.6397C94.4758 99.6397 94.1987 99.7577 93.9737 99.9937C93.7542 100.224 93.6444 100.556 93.6444 100.99C93.6444 101.423 93.7514 101.758 93.9655 101.994C94.185 102.224 94.4594 102.34 94.7886 102.34ZM99.1088 99.4175C99.257 99.176 99.449 98.9867 99.685 98.8495C99.9265 98.7123 100.201 98.6437 100.508 98.6437L100.508 99.8537L100.204 99.8537C99.8414 99.8537 99.567 99.9388 99.3804 100.109C99.1993 100.279 99.1088 100.575 99.1088 100.998L99.1088 103.27L97.9564 103.27L97.9564 98.7095L99.1088 98.7095L99.1088 99.4175ZM103.928 103.27L102.38 101.327L102.38 103.27L101.228 103.27L101.228 97.1784L102.38 97.1784L102.38 100.644L103.911 98.7095L105.41 98.7095L103.401 100.998L105.426 103.27L103.928 103.27ZM110.218 100.891C110.218 101.056 110.207 101.204 110.185 101.335L106.851 101.335C106.878 101.665 106.994 101.923 107.197 102.109C107.4 102.296 107.649 102.389 107.946 102.389C108.374 102.389 108.678 102.205 108.859 101.838L110.102 101.838C109.971 102.277 109.718 102.639 109.345 102.924C108.972 103.204 108.514 103.344 107.97 103.344C107.531 103.344 107.136 103.248 106.785 103.056C106.439 102.858 106.168 102.581 105.97 102.224C105.778 101.868 105.682 101.456 105.682 100.99C105.682 100.518 105.778 100.103 105.97 99.7467C106.162 99.39 106.431 99.1156 106.777 98.9236C107.123 98.7315 107.52 98.6355 107.97 98.6355C108.404 98.6355 108.791 98.7287 109.131 98.9153C109.477 99.1019 109.743 99.3681 109.93 99.7138C110.122 100.054 110.218 100.446 110.218 100.891ZM109.024 100.562C109.019 100.265 108.912 100.029 108.703 99.8537C108.495 99.6726 108.239 99.5821 107.938 99.5821C107.652 99.5821 107.411 99.6699 107.213 99.8455C107.021 100.016 106.903 100.254 106.859 100.562L109.024 100.562ZM110.706 100.973C110.706 100.512 110.797 100.103 110.978 99.7467C111.164 99.39 111.417 99.1156 111.735 98.9236C112.053 98.7315 112.407 98.6355 112.797 98.6355C113.093 98.6355 113.376 98.7013 113.645 98.833C113.914 98.9592 114.128 99.1294 114.287 99.3434L114.287 97.1784L115.456 97.1784L115.456 103.27L114.287 103.27L114.287 102.595C114.144 102.82 113.944 103.001 113.686 103.138C113.428 103.275 113.129 103.344 112.789 103.344C112.404 103.344 112.053 103.245 111.735 103.048C111.417 102.85 111.164 102.573 110.978 102.216C110.797 101.854 110.706 101.44 110.706 100.973ZM114.295 100.99C114.295 100.71 114.24 100.471 114.13 100.274C114.021 100.071 113.872 99.9169 113.686 99.8126C113.499 99.7028 113.299 99.648 113.085 99.648C112.871 99.648 112.673 99.7001 112.492 99.8044C112.311 99.9086 112.163 100.062 112.048 100.265C111.938 100.463 111.883 100.699 111.883 100.973C111.883 101.248 111.938 101.489 112.048 101.698C112.163 101.901 112.311 102.057 112.492 102.167C112.679 102.277 112.876 102.331 113.085 102.331C113.299 102.331 113.499 102.279 113.686 102.175C113.872 102.065 114.021 101.912 114.13 101.714C114.24 101.511 114.295 101.27 114.295 100.99ZM120.52 99.6562L119.722 99.6562L119.722 103.27L118.553 103.27L118.553 99.6562L118.034 99.6562L118.034 98.7095L118.553 98.7095L118.553 98.4791C118.553 97.9193 118.712 97.5077 119.03 97.2443C119.349 96.9809 119.829 96.8574 120.471 96.8739L120.471 97.8452C120.191 97.8397 119.996 97.8864 119.886 97.9852C119.777 98.0839 119.722 98.2623 119.722 98.5202L119.722 98.7095L120.52 98.7095L120.52 99.6562ZM123.236 103.344C122.797 103.344 122.401 103.248 122.05 103.056C121.699 102.858 121.422 102.581 121.219 102.224C121.021 101.868 120.922 101.456 120.922 100.99C120.922 100.523 121.024 100.112 121.227 99.755C121.436 99.3983 121.718 99.1239 122.075 98.9318C122.432 98.7342 122.829 98.6355 123.268 98.6355C123.708 98.6355 124.105 98.7342 124.462 98.9318C124.819 99.1239 125.099 99.3983 125.302 99.755C125.51 100.112 125.615 100.523 125.615 100.99C125.615 101.456 125.508 101.868 125.293 102.224C125.085 102.581 124.8 102.858 124.437 103.056C124.081 103.248 123.68 103.344 123.236 103.344ZM123.236 102.34C123.444 102.34 123.639 102.29 123.82 102.192C124.007 102.087 124.155 101.934 124.265 101.731C124.374 101.528 124.429 101.281 124.429 100.99C124.429 100.556 124.314 100.224 124.083 99.9937C123.858 99.7577 123.581 99.6397 123.252 99.6397C122.923 99.6397 122.646 99.7577 122.421 99.9937C122.201 100.224 122.091 100.556 122.091 100.99C122.091 101.423 122.198 101.758 122.412 101.994C122.632 102.224 122.906 102.34 123.236 102.34ZM127.556 99.4175C127.704 99.176 127.896 98.9867 128.132 98.8495C128.373 98.7123 128.648 98.6437 128.955 98.6437L128.955 99.8537L128.651 99.8537C128.288 99.8537 128.014 99.9388 127.827 100.109C127.646 100.279 127.556 100.575 127.556 100.998L127.556 103.27L126.403 103.27L126.403 98.7095L127.556 98.7095L127.556 99.4175ZM135.338 98.6437C135.898 98.6437 136.348 98.8166 136.688 99.1623C137.034 99.5025 137.207 99.98 137.207 100.595L137.207 103.27L136.054 103.27L136.054 100.751C136.054 100.394 135.964 100.123 135.783 99.9361C135.602 99.744 135.355 99.648 135.042 99.648C134.729 99.648 134.479 99.744 134.293 99.9361C134.112 100.123 134.021 100.394 134.021 100.751L134.021 103.27L132.869 103.27L132.869 100.751C132.869 100.394 132.778 100.123 132.597 99.9361C132.416 99.744 132.169 99.648 131.856 99.648C131.538 99.648 131.285 99.744 131.099 99.9361C130.918 100.123 130.827 100.394 130.827 100.751L130.827 103.27L129.675 103.27L129.675 98.7095L130.827 98.7095L130.827 99.2611C130.975 99.069 131.165 98.9181 131.395 98.8083C131.631 98.6986 131.889 98.6437 132.169 98.6437C132.526 98.6437 132.844 98.7205 133.124 98.8742C133.404 99.0223 133.62 99.2364 133.774 99.5162C133.922 99.2528 134.136 99.0416 134.416 98.8824C134.702 98.7233 135.009 98.6437 135.338 98.6437Z" fill="#0A74C6"/>
<defs>
<filter id="filter0_d_811_1013" x="0.208334" y="-0.000975907" width="210.374" height="224.583" filterUnits="userSpaceOnUse" color-interpolation-filters="sRGB">
<feFlood flood-opacity="0" result="BackgroundImageFix"/>
<feColorMatrix in="SourceAlpha" type="matrix" values="0 0 0 0 0 0 0 0 0 0 0 0 0 0 0 0 0 0 127 0" result="hardAlpha"/>
<feOffset dy="-0.458333"/>
<feGaussianBlur stdDeviation="3.89583"/>
<feComposite in2="hardAlpha" operator="out"/>
<feColorMatrix type="matrix" values="0 0 0 0 1 0 0 0 0 1 0 0 0 0 1 0 0 0 0.33 0"/>
<feBlend mode="normal" in2="BackgroundImageFix" result="effect1_dropShadow_811_1013"/>
<feBlend mode="normal" in="SourceGraphic" in2="effect1_dropShadow_811_1013" result="shape"/>
</filter>
<filter id="filter1_d_811_1013" x="25.9269" y="112.319" width="159.045" height="65.0845" filterUnits="userSpaceOnUse" color-interpolation-filters="sRGB">
<feFlood flood-opacity="0" result="BackgroundImageFix"/>
<feColorMatrix in="SourceAlpha" type="matrix" values="0 0 0 0 0 0 0 0 0 0 0 0 0 0 0 0 0 0 127 0" result="hardAlpha"/>
<feOffset dy="3.66673"/>
<feGaussianBlur stdDeviation="4.58342"/>
<feColorMatrix type="matrix" values="0 0 0 0 1 0 0 0 0 0.584314 0 0 0 0 0 0 0 0 0.32 0"/>
<feBlend mode="normal" in2="BackgroundImageFix" result="effect1_dropShadow_811_1013"/>
<feBlend mode="normal" in="SourceGraphic" in2="effect1_dropShadow_811_1013" result="shape"/>
</filter>
<filter id="filter2_d_811_1013" x="23.8019" y="28.3584" width="159.045" height="65.5429" filterUnits="userSpaceOnUse" color-interpolation-filters="sRGB">
<feFlood flood-opacity="0" result="BackgroundImageFix"/>
<feColorMatrix in="SourceAlpha" type="matrix" values="0 0 0 0 0 0 0 0 0 0 0 0 0 0 0 0 0 0 127 0" result="hardAlpha"/>
<feOffset dy="3.66673"/>
<feGaussianBlur stdDeviation="4.58342"/>
<feColorMatrix type="matrix" values="0 0 0 0 0.0392157 0 0 0 0 0.454902 0 0 0 0 0.776471 0 0 0 0.32 0"/>
<feBlend mode="normal" in2="BackgroundImageFix" result="effect1_dropShadow_811_1013"/>
<feBlend mode="normal" in="SourceGraphic" in2="effect1_dropShadow_811_1013" result="shape"/>
</filter>
</defs>
</svg>
